<svg width="121" height="48" viewBox="0 0 121 48" fill="none" xmlns="http://www.w3.org/2000/svg">
<g clip-path="url(#clip0_10_615)">
<path d="M120.103 37.1442C120.103 37.5915 120.015 38.0345 119.844 38.4478C119.672 38.8611 119.421 39.2365 119.105 39.5527C118.788 39.8689 118.412 40.1196 117.999 40.2905C117.586 40.4614 117.142 40.5491 116.695 40.5486H5.16708C4.26314 40.5495 3.39584 40.1914 2.75591 39.553C2.11597 38.9146 1.75582 38.0481 1.75464 37.1442V9.99483C1.75582 9.09048 2.11583 8.22356 2.75564 7.58442C3.39544 6.94528 4.26273 6.58617 5.16708 6.58594H116.694C117.142 6.58594 117.585 6.67412 117.999 6.84544C118.412 7.01676 118.788 7.26788 119.104 7.58443C119.421 7.90099 119.672 8.27679 119.843 8.69037C120.014 9.10395 120.102 9.54721 120.102 9.99483L120.103 37.1442Z" fill="black"/>
<path d="M27.7441 23.3804C27.7183 20.5155 30.0899 19.1217 30.1983 19.0568C28.8552 17.0986 26.7734 16.831 26.0419 16.8097C24.2934 16.6257 22.5974 17.8559 21.7068 17.8559C20.7983 17.8559 19.4268 16.8275 17.9485 16.8577C16.0463 16.887 14.2668 17.9884 13.2908 19.6986C11.2765 23.1857 12.7788 28.3101 14.7085 31.1288C15.6739 32.5092 16.8019 34.0506 18.2783 33.9964C19.7228 33.9368 20.2623 33.0755 22.0054 33.0755C23.7325 33.0755 24.2392 33.9964 25.745 33.9617C27.2952 33.9368 28.2712 32.575 29.2028 31.1821C30.3183 29.5999 30.7663 28.0417 30.7841 27.9617C30.7476 27.9492 27.7734 26.8141 27.7441 23.3804ZM24.8996 14.9555C25.6765 13.9839 26.2081 12.6621 26.0605 11.3208C24.9361 11.3706 23.5299 12.0986 22.7201 13.0488C22.0036 13.8861 21.3636 15.2586 21.529 16.5492C22.7921 16.6435 24.089 15.9119 24.8996 14.9555Z" fill="white"/>
<path d="M48.648 33.7986H46.6294L45.5236 30.3239H41.68L40.6267 33.7986H38.6614L42.4694 21.9692H44.8214L48.648 33.7986ZM45.1903 28.8661L44.1903 25.7772C44.0845 25.4617 43.8863 24.7186 43.5938 23.5488H43.5583C43.3809 24.2941 43.1937 25.037 42.9965 25.7772L42.0143 28.8661H45.1903ZM58.4409 29.4288C58.4409 30.8795 58.0489 32.0261 57.2649 32.8679C56.5627 33.6172 55.6907 33.9915 54.6498 33.9915C53.5263 33.9915 52.7192 33.5879 52.2276 32.7808H52.192V37.2741H50.2969V28.0768C50.2969 27.1648 50.2729 26.2288 50.2267 25.2688H51.8934L51.9992 26.6208H52.0347C52.6667 25.6021 53.6258 25.0937 54.9129 25.0937C55.9192 25.0937 56.7592 25.491 57.4312 26.2866C58.1049 27.083 58.4409 28.1301 58.4409 29.4288ZM56.5103 29.4981C56.5103 28.6679 56.3236 27.9835 55.9485 27.4448C55.5387 26.883 54.9885 26.6021 54.2987 26.6021C53.8312 26.6021 53.4063 26.7586 53.0267 27.067C52.6463 27.3781 52.3974 27.7843 52.2809 28.2875C52.2223 28.5221 52.1929 28.7141 52.1929 28.8652V30.2875C52.1929 30.9079 52.3832 31.4315 52.7636 31.859C53.144 32.2866 53.6383 32.4999 54.2463 32.4999C54.96 32.4999 55.5156 32.2243 55.9129 31.675C56.3112 31.1248 56.5103 30.3995 56.5103 29.4981ZM68.2516 29.4288C68.2516 30.8795 67.8596 32.0261 67.0747 32.8679C66.3734 33.6172 65.5014 33.9915 64.4605 33.9915C63.3369 33.9915 62.5298 33.5879 62.0392 32.7808H62.0036V37.2741H60.1085V28.0768C60.1085 27.1648 60.0845 26.2288 60.0383 25.2688H61.7049L61.8107 26.6208H61.8463C62.4774 25.6021 63.4365 25.0937 64.7245 25.0937C65.7298 25.0937 66.5698 25.491 67.2436 26.2866C67.9147 27.083 68.2516 28.1301 68.2516 29.4288ZM66.3209 29.4981C66.3209 28.6679 66.1334 27.9835 65.7583 27.4448C65.3485 26.883 64.8 26.6021 64.1094 26.6021C63.6435 26.602 63.1926 26.7667 62.8365 27.067C62.456 27.3781 62.208 27.7843 62.0916 28.2875C62.0338 28.5221 62.0036 28.7141 62.0036 28.8652V30.2875C62.0036 30.9079 62.1938 31.4315 62.5725 31.859C62.9529 32.2857 63.4472 32.4999 64.0569 32.4999C64.7707 32.4999 65.3263 32.2243 65.7236 31.675C66.1218 31.1248 66.3209 30.3995 66.3209 29.4981ZM79.2205 30.4812C79.2205 31.4875 78.8712 32.3061 78.1698 32.9381C77.3992 33.6288 76.3263 33.9737 74.9476 33.9737C73.6747 33.9737 72.6543 33.7283 71.8818 33.2368L72.3209 31.6572C73.1529 32.1603 74.0658 32.4128 75.0605 32.4128C75.7743 32.4128 76.3298 32.251 76.7289 31.9292C77.1263 31.6075 77.3245 31.1755 77.3245 30.6368C77.3245 30.1568 77.1609 29.7523 76.8329 29.4243C76.5067 29.0963 75.9618 28.7915 75.2009 28.5097C73.1298 27.7372 72.0952 26.6057 72.0952 25.1177C72.0952 24.1452 72.4578 23.3479 73.184 22.7275C73.9076 22.1061 74.8729 21.7959 76.08 21.7959C77.1565 21.7959 78.0507 21.9835 78.7645 22.3577L78.2907 23.9026C77.624 23.5399 76.8703 23.3586 76.0267 23.3586C75.36 23.3586 74.8392 23.523 74.4658 23.8501C74.3144 23.984 74.1937 24.1491 74.1119 24.3339C74.0302 24.5188 73.9893 24.7191 73.992 24.9212C73.992 25.3888 74.1725 25.7755 74.5352 26.0795C74.8507 26.3603 75.424 26.6643 76.2561 26.9923C77.2738 27.4021 78.0214 27.8812 78.5023 28.4306C78.9814 28.9781 79.2205 29.6635 79.2205 30.4812ZM85.4863 26.691H83.3974V30.8323C83.3974 31.8857 83.7654 32.4119 84.5032 32.4119C84.8418 32.4119 85.1227 32.3826 85.3449 32.3239L85.3974 33.763C85.024 33.9026 84.5325 33.9728 83.9236 33.9728C83.1752 33.9728 82.5903 33.7443 82.168 33.2883C81.7476 32.8315 81.536 32.0652 81.536 30.9888V26.6892H80.2916V25.267H81.536V23.7052L83.3974 23.1435V25.267H85.4863V26.691ZM94.9112 29.4635C94.9112 30.7746 94.536 31.851 93.7876 32.6928C93.0027 33.5595 91.9609 33.9915 90.6623 33.9915C89.4107 33.9915 88.4143 33.5763 87.6712 32.7461C86.928 31.9159 86.5565 30.8679 86.5565 29.6048C86.5565 28.283 86.9387 27.2003 87.7058 26.3586C88.4712 25.5159 89.504 25.0946 90.8027 25.0946C92.0543 25.0946 93.0614 25.5097 93.8214 26.3408C94.5485 27.147 94.9112 28.1879 94.9112 29.4635ZM92.9449 29.5248C92.9449 28.7381 92.7769 28.0635 92.4365 27.5008C92.0392 26.8199 91.4712 26.4803 90.7352 26.4803C89.9734 26.4803 89.3947 26.8208 88.9974 27.5008C88.6569 28.0643 88.4889 28.7497 88.4889 29.5603C88.4889 30.347 88.6569 31.0217 88.9974 31.5835C89.4072 32.2643 89.9796 32.6039 90.7183 32.6039C91.4418 32.6039 92.0098 32.2572 92.4196 31.5657C92.7689 30.9923 92.9449 30.3106 92.9449 29.5248ZM101.071 26.9355C100.874 26.8998 100.674 26.8823 100.474 26.883C99.8072 26.883 99.2916 27.1346 98.9289 27.6386C98.6134 28.083 98.4552 28.6448 98.4552 29.323V33.7986H96.5609L96.5787 27.955C96.5787 26.9719 96.5547 26.0768 96.5076 25.2697H98.1583L98.2276 26.9017H98.28C98.48 26.3408 98.7956 25.8892 99.2276 25.5506C99.623 25.2546 100.103 25.0944 100.597 25.0937C100.772 25.0937 100.931 25.1061 101.071 25.1283V26.9355ZM109.547 29.1301C109.552 29.4182 109.528 29.7061 109.477 29.9897H103.792C103.814 30.8323 104.089 31.4768 104.617 31.9212C105.096 32.3186 105.716 32.5177 106.477 32.5177C107.318 32.5177 108.086 32.3835 108.777 32.1141L109.074 33.4297C108.267 33.7817 107.314 33.9568 106.214 33.9568C104.892 33.9568 103.853 33.5675 103.098 32.7897C102.344 32.0119 101.966 30.9675 101.966 29.6572C101.966 28.371 102.317 27.2999 103.021 26.4457C103.757 25.5337 104.751 25.0777 106.003 25.0777C107.232 25.0777 108.163 25.5337 108.795 26.4457C109.295 27.1701 109.547 28.0661 109.547 29.1301ZM107.74 28.6386C107.752 28.0768 107.628 27.5915 107.372 27.1817C107.044 26.6546 106.54 26.3915 105.861 26.3915C105.242 26.3915 104.738 26.6483 104.353 27.1639C104.037 27.5737 103.85 28.0652 103.792 28.6377L107.74 28.6386Z" fill="white"/>
<path d="M44.5635 14.6919C44.5635 15.7381 44.2497 16.5257 43.6231 17.0546C43.0426 17.5426 42.2177 17.787 41.1493 17.787C40.6195 17.787 40.1662 17.7639 39.7866 17.7177V12.0012C40.2817 11.9212 40.8151 11.8803 41.3911 11.8803C42.4088 11.8803 43.176 12.1017 43.6933 12.5443C44.2728 13.0448 44.5635 13.7603 44.5635 14.6919ZM43.5813 14.7177C43.5813 14.0394 43.4017 13.5194 43.0426 13.1568C42.6835 12.795 42.1591 12.6137 41.4684 12.6137C41.1751 12.6137 40.9253 12.6332 40.7182 12.6741V17.0199C40.8328 17.0377 41.0426 17.0457 41.3475 17.0457C42.0604 17.0457 42.6106 16.8474 42.9982 16.451C43.3857 16.0546 43.5813 15.4768 43.5813 14.7177ZM49.7715 15.6057C49.7715 16.2501 49.5875 16.7781 49.2195 17.1923C48.8337 17.6181 48.3226 17.8306 47.6844 17.8306C47.0693 17.8306 46.5795 17.627 46.2142 17.2181C45.8497 16.8101 45.6675 16.2954 45.6675 15.675C45.6675 15.0261 45.8551 14.4937 46.232 14.0803C46.6088 13.667 47.1155 13.4599 47.7537 13.4599C48.3688 13.4599 48.8631 13.6634 49.2373 14.0714C49.5928 14.4679 49.7715 14.9799 49.7715 15.6057ZM48.8053 15.6359C48.8053 15.2492 48.7217 14.9177 48.5555 14.6412C48.36 14.307 48.0817 14.1399 47.72 14.1399C47.3457 14.1399 47.0613 14.307 46.8657 14.6412C46.6986 14.9177 46.616 15.2546 46.616 15.6528C46.616 16.0394 46.6995 16.371 46.8657 16.6474C47.0675 16.9817 47.3484 17.1488 47.7111 17.1488C48.0666 17.1488 48.3457 16.979 48.5466 16.6386C48.7191 16.3568 48.8053 16.0226 48.8053 15.6359ZM56.7546 13.5452L55.4435 17.7354H54.5902L54.0471 15.9159C53.9117 15.4707 53.7993 15.0188 53.7102 14.5621H53.6933C53.6129 15.0207 53.5004 15.4731 53.3564 15.9159L52.7795 17.7354H51.9164L50.6835 13.5452H51.6408L52.1146 15.5372C52.2293 16.0083 52.3235 16.4572 52.3991 16.8821H52.416C52.4853 16.5319 52.6 16.0857 52.7617 15.5461L53.3564 13.5461H54.1155L54.6853 15.5034C54.8231 15.9808 54.9351 16.4403 55.0213 16.883H55.0471C55.1102 16.4519 55.2053 15.9923 55.3315 15.5034L55.84 13.5461H56.7546V13.5452ZM61.584 17.7354H60.6524V15.3354C60.6524 14.5959 60.3715 14.2261 59.808 14.2261C59.68 14.2224 59.5528 14.2479 59.4362 14.3007C59.3196 14.3535 59.2166 14.4323 59.1351 14.531C58.9644 14.731 58.8725 14.9863 58.8764 15.2492V17.7346H57.9448V14.7426C57.9448 14.3746 57.9333 13.9754 57.9111 13.5434H58.7297L58.7733 14.1986H58.7991C58.9075 13.995 59.0693 13.827 59.2817 13.6928C59.5342 13.5363 59.8168 13.4572 60.1262 13.4572C60.5173 13.4572 60.8426 13.5834 61.1013 13.8368C61.4231 14.147 61.584 14.6101 61.584 15.2252V17.7354ZM64.1528 17.7354H63.2222V11.6226H64.1528V17.7354ZM69.6373 15.6057C69.6373 16.2501 69.4533 16.7781 69.0853 17.1923C68.6995 17.6181 68.1875 17.8306 67.5502 17.8306C66.9342 17.8306 66.4444 17.627 66.08 17.2181C65.7155 16.8101 65.5333 16.2954 65.5333 15.675C65.5333 15.0261 65.7208 14.4937 66.0977 14.0803C66.4746 13.667 66.9813 13.4599 67.6186 13.4599C68.2346 13.4599 68.728 13.6634 69.1031 14.0714C69.4586 14.4679 69.6373 14.9799 69.6373 15.6057ZM68.6702 15.6359C68.6702 15.2492 68.5866 14.9177 68.4204 14.6412C68.2257 14.307 67.9466 14.1399 67.5857 14.1399C67.2106 14.1399 66.9262 14.307 66.7315 14.6412C66.5644 14.9177 66.4817 15.2546 66.4817 15.6528C66.4817 16.0394 66.5653 16.371 66.7315 16.6474C66.9333 16.9817 67.2142 17.1488 67.5768 17.1488C67.9324 17.1488 68.2106 16.979 68.4115 16.6386C68.5848 16.3568 68.6702 16.0226 68.6702 15.6359ZM74.1457 17.7354H73.3093L73.24 17.2528H73.2142C72.928 17.6377 72.52 17.8306 71.9902 17.8306C71.5946 17.8306 71.2746 17.7034 71.0337 17.451C70.9255 17.3374 70.8408 17.2035 70.7845 17.0571C70.7282 16.9106 70.7015 16.7545 70.7057 16.5977C70.7057 16.0857 70.9191 15.6954 71.3484 15.4252C71.7768 15.155 72.3795 15.0226 73.1555 15.0288V14.9506C73.1555 14.3986 72.8657 14.123 72.2853 14.123C71.872 14.123 71.5075 14.227 71.1928 14.4332L71.0035 13.8217C71.3928 13.5808 71.8737 13.4599 72.4408 13.4599C73.536 13.4599 74.0853 14.0377 74.0853 15.1932V16.7363C74.0853 17.155 74.1057 17.4883 74.1457 17.7354ZM73.1786 16.2954V15.6492C72.1511 15.6314 71.6373 15.9132 71.6373 16.4937C71.6373 16.7123 71.696 16.8759 71.816 16.9852C71.9411 17.0961 72.104 17.1547 72.2711 17.1488C72.4755 17.1488 72.6666 17.0839 72.8408 16.955C72.9465 16.8808 73.0326 16.782 73.0914 16.6671C73.1503 16.5521 73.1802 16.4246 73.1786 16.2954ZM79.4391 17.7354H78.6124L78.5688 17.0626H78.5431C78.2791 17.5746 77.8293 17.8306 77.1973 17.8306C76.6924 17.8306 76.272 17.6323 75.9386 17.2359C75.6053 16.8394 75.4391 16.3248 75.4391 15.6928C75.4391 15.0146 75.6195 14.4652 75.9822 14.0457C76.3333 13.6546 76.7635 13.459 77.2755 13.459C77.8382 13.459 78.232 13.6483 78.456 14.0279H78.4737V11.6226H79.4062V16.6066C79.4062 17.0146 79.4168 17.3906 79.4391 17.7354ZM78.4737 15.9683V15.2697C78.4825 15.1085 78.4544 14.9475 78.3915 14.7989C78.3287 14.6502 78.2328 14.5179 78.1111 14.4119C77.9392 14.2605 77.7169 14.179 77.488 14.1834C77.1404 14.1834 76.8684 14.3212 76.6684 14.5977C76.4702 14.8741 76.3697 15.227 76.3697 15.6581C76.3697 16.0723 76.4648 16.4083 76.656 16.667C76.8577 16.9426 77.1297 17.0803 77.4702 17.0803C77.776 17.0803 78.0204 16.9657 78.2062 16.7354C78.3857 16.523 78.4737 16.267 78.4737 15.9683ZM87.4062 15.6057C87.4062 16.2501 87.2222 16.7781 86.8542 17.1923C86.4684 17.6181 85.9582 17.8306 85.3191 17.8306C84.7048 17.8306 84.2151 17.627 83.8488 17.2181C83.4844 16.8101 83.3022 16.2954 83.3022 15.675C83.3022 15.0261 83.4897 14.4937 83.8666 14.0803C84.2435 13.667 84.7502 13.4599 85.3893 13.4599C86.0035 13.4599 86.4986 13.6634 86.872 14.0714C87.2275 14.4679 87.4062 14.9799 87.4062 15.6057ZM86.4408 15.6359C86.4408 15.2492 86.3573 14.9177 86.1911 14.6412C85.9946 14.307 85.7173 14.1399 85.3546 14.1399C84.9813 14.1399 84.6968 14.307 84.5004 14.6412C84.3333 14.9177 84.2506 15.2546 84.2506 15.6528C84.2506 16.0394 84.3342 16.371 84.5004 16.6474C84.7022 16.9817 84.9831 17.1488 85.3457 17.1488C85.7013 17.1488 85.9813 16.979 86.1822 16.6386C86.3537 16.3568 86.4408 16.0226 86.4408 15.6359ZM92.4151 17.7354H91.4844V15.3354C91.4844 14.5959 91.2035 14.2261 90.6391 14.2261C90.3626 14.2261 90.1395 14.3274 89.9671 14.531C89.7946 14.7346 89.7084 14.9746 89.7084 15.2492V17.7346H88.776V14.7426C88.776 14.3746 88.7653 13.9754 88.7431 13.5434H89.5608L89.6044 14.1986H89.6302C89.7442 13.9908 89.9106 13.8164 90.1128 13.6928C90.3662 13.5363 90.648 13.4572 90.9582 13.4572C91.3484 13.4572 91.6737 13.5834 91.9324 13.8368C92.2551 14.147 92.4151 14.6101 92.4151 15.2252V17.7354ZM98.6844 14.243H97.6586V16.2786C97.6586 16.7959 97.8408 17.0546 98.2017 17.0546C98.3688 17.0546 98.5075 17.0403 98.6168 17.011L98.6408 17.7177C98.4568 17.787 98.2151 17.8217 97.9173 17.8217C97.5493 17.8217 97.2631 17.7097 97.056 17.4857C96.8479 17.2617 96.7448 16.8848 96.7448 16.3559V14.243H96.1324V13.5452H96.7448V12.7772L97.6577 12.5017V13.5443H98.6835L98.6844 14.243ZM103.616 17.7354H102.684V15.3532C102.684 14.6021 102.403 14.2261 101.84 14.2261C101.408 14.2261 101.113 14.4439 100.951 14.8794C100.92 14.9885 100.906 15.1013 100.908 15.2146V17.7346H99.9768V11.6226H100.908V14.1479H100.925C101.219 13.6883 101.639 13.459 102.184 13.459C102.57 13.459 102.889 13.5852 103.142 13.8386C103.458 14.1541 103.616 14.6234 103.616 15.2439V17.7354ZM108.703 15.4421C108.703 15.6092 108.691 15.7497 108.668 15.8643H105.875C105.887 16.2786 106.02 16.5941 106.279 16.8128C106.516 17.0083 106.82 17.1061 107.194 17.1061C107.607 17.1061 107.984 17.0403 108.324 16.9079L108.469 17.555C108.072 17.7274 107.604 17.8137 107.063 17.8137C106.414 17.8137 105.903 17.6226 105.533 17.2403C105.162 16.8581 104.978 16.3452 104.978 15.7017C104.978 15.0697 105.149 14.5434 105.495 14.1239C105.856 13.6759 106.344 13.4519 106.96 13.4519C107.563 13.4519 108.02 13.6759 108.33 14.1239C108.58 14.4794 108.703 14.9194 108.703 15.4421ZM107.814 15.2012C107.827 14.95 107.764 14.7007 107.634 14.4857C107.472 14.227 107.226 14.0972 106.892 14.0972C106.747 14.0948 106.604 14.1281 106.474 14.1943C106.345 14.2605 106.234 14.3575 106.151 14.4768C105.993 14.6877 105.897 14.9387 105.875 15.2012H107.814Z" fill="white"/>
</g>
<defs>
<clipPath id="clip0_10_615">
<rect width="120" height="46.991" fill="white" transform="translate(0.963623 0.0771484)"/>
</clipPath>
</defs>
</svg>
