<svg width="119" height="119" viewBox="0 0 119 119" fill="none" xmlns="http://www.w3.org/2000/svg">
<g clip-path="url(#clip0_10_409)">
<mask id="mask0_10_409" style="mask-type:luminance" maskUnits="userSpaceOnUse" x="0" y="0" width="119" height="119">
<path d="M0.990845 0.82666H118.973V118.809H0.990845V0.82666Z" fill="white"/>
</mask>
<g mask="url(#mask0_10_409)">
<path d="M59.7007 118.246C92.1253 118.246 118.411 91.9611 118.411 59.5365C118.411 27.112 92.1253 0.82666 59.7007 0.82666C27.2761 0.82666 0.990845 27.112 0.990845 59.5365C0.990845 91.9611 27.2761 118.246 59.7007 118.246Z" fill="white"/>
<path d="M46.012 53.3232C36.8278 50.0897 36.3117 42.5877 36.3117 42.5877L45.1059 34.3105L66.8349 42.5877L75.1121 55.7805L68.9042 66.9031C58.7301 68.8866 38.1441 72.9561 37.1965 73.37C36.2499 73.7847 27.1284 62.6354 34.6304 60.8252C34.6304 60.8252 55.1943 56.5575 46.012 53.3232Z" fill="#FF8A56"/>
<path fill-rule="evenodd" clip-rule="evenodd" d="M95.4566 55.2247C95.8751 57.1216 94.6713 59.2066 92.5762 60.6196C94.6261 62.098 95.7626 64.2208 95.2842 66.1039C94.6215 68.7152 91.1032 69.8784 87.4274 68.7013C84.7036 67.8285 82.6574 65.9177 82.049 63.9231L76.8717 63.8401L76.9731 57.4682L82.0076 57.5484C82.4362 55.3694 84.6751 53.2392 87.6855 52.3793C91.3973 51.3193 94.8768 52.5931 95.4566 55.2247ZM91.9485 56.5584C91.9571 56.8627 91.9047 57.1657 91.7942 57.4494C91.6837 57.733 91.5175 57.9917 91.3053 58.21C91.0931 58.4283 90.8393 58.6018 90.5589 58.7203C90.2785 58.8388 89.9771 58.8999 89.6727 58.8999C89.3683 58.8999 89.0669 58.8388 88.7865 58.7203C88.5061 58.6018 88.2523 58.4283 88.0401 58.21C87.8279 57.9917 87.6617 57.733 87.5512 57.4494C87.4407 57.1657 87.3883 56.8627 87.3969 56.5584C87.4138 55.9661 87.661 55.4036 88.0859 54.9906C88.5109 54.5776 89.0801 54.3465 89.6727 54.3465C90.2653 54.3465 90.8346 54.5776 91.2595 54.9906C91.6844 55.4036 91.9316 55.9661 91.9485 56.5584ZM89.6718 66.5731C89.9761 66.5817 90.279 66.5293 90.5627 66.4188C90.8464 66.3083 91.1051 66.1421 91.3234 65.9299C91.5417 65.7177 91.7152 65.4639 91.8337 65.1835C91.9522 64.9031 92.0133 64.6017 92.0133 64.2973C92.0133 63.9929 91.9522 63.6915 91.8337 63.4111C91.7152 63.1307 91.5417 62.8769 91.3234 62.6647C91.1051 62.4525 90.8464 62.2863 90.5627 62.1758C90.279 62.0653 89.9761 62.0129 89.6718 62.0215C89.0794 62.0384 88.517 62.2856 88.104 62.7105C87.6909 63.1355 87.4599 63.7047 87.4599 64.2973C87.4599 64.8899 87.6909 65.4591 88.104 65.8841C88.517 66.309 89.0794 66.5562 89.6718 66.5731ZM60.2086 68.4055C60.21 68.2696 60.1847 68.1348 60.134 68.0087C60.0834 67.8826 60.0084 67.7677 59.9133 67.6706C59.8183 67.5735 59.705 67.4961 59.5801 67.4427C59.4551 67.3894 59.3208 67.3612 59.185 67.3598C58.9106 67.3568 58.6462 67.463 58.4501 67.655C58.254 67.8469 58.1422 68.1089 58.1393 68.3833C58.1088 71.3043 58.119 74.2271 58.13 77.1426C58.1347 78.5971 58.1393 80.0488 58.1393 81.4978C58.1393 81.5955 58.1264 81.7006 58.0987 81.8904L58.095 81.9107L58.0867 81.9706C57.8314 81.9798 57.5825 81.9964 57.3466 82.0121L57.3291 82.013C56.9226 82.0398 56.553 82.0628 56.1861 82.0628H54.81C54.7058 82.0628 54.609 82.0499 54.4431 82.0259L54.2578 82.002C54.0163 81.9697 53.6523 81.9282 53.2624 81.9983C52.8927 82.0628 52.4964 82.0536 51.9719 82.0351L51.9295 82.0333C51.4502 82.0167 50.852 81.9955 50.252 82.1015C49.8695 82.1697 49.4869 82.2029 49.0814 82.2306L48.7754 82.2508C48.4657 82.2702 48.1338 82.2914 47.814 82.3246C46.9227 82.4177 45.9548 82.6232 44.9806 83.2712L44.9253 83.3081C44.6423 83.4952 43.9851 83.9293 43.4818 84.44C43.221 84.7045 42.9011 85.0861 42.7509 85.5534C42.657 85.8356 42.6385 86.1375 42.6974 86.4291C42.7666 86.7609 42.9352 87.0439 43.162 87.2697C43.4708 87.5785 43.8579 87.7554 44.1999 87.8651C44.551 87.9776 44.9336 88.0421 45.305 88.0799L45.3327 88.0827C45.2774 88.1678 45.2279 88.2565 45.1843 88.3481C44.9907 88.7564 44.9096 89.2744 44.9419 89.7418C44.9714 90.175 45.1244 90.8755 45.7382 91.3004C46.2452 91.6507 46.7853 91.7336 47.2232 91.7373C47.2699 92.1134 47.4436 92.4623 47.7154 92.7264C48.0251 93.0333 48.4131 93.2103 48.756 93.319C49.109 93.4315 49.4915 93.496 49.8648 93.5329L49.8962 93.5366C49.8418 93.6195 49.792 93.7071 49.7487 93.7992C49.5533 94.2076 49.4722 94.7265 49.5044 95.1948C49.5349 95.6289 49.6888 96.3312 50.3054 96.7543C51.0751 97.2825 51.9194 97.2005 52.372 97.1562C52.4402 97.1498 52.4992 97.1442 52.548 97.1415C52.619 97.1378 52.6881 97.1313 52.7572 97.1239C52.7561 97.1571 52.7555 97.1903 52.7554 97.2235C52.7554 98.2964 53.2965 99.1508 54.1343 99.596C54.9362 100.021 55.9096 100.026 56.7806 99.6799C58.177 99.1269 59.0564 97.9332 59.7219 97.0299L59.7375 97.0096C60.003 96.6483 60.5902 96.1312 61.039 95.8178C61.3386 95.6086 61.5045 95.5017 61.6612 95.4252C61.8032 95.3561 61.9672 95.2971 62.2585 95.2325C63.4208 94.9763 64.6596 94.9689 66.0007 94.9689C66.2751 94.9689 66.5383 94.8599 66.7323 94.6659C66.9264 94.4719 67.0354 94.2087 67.0354 93.9343C67.0354 93.6599 66.9264 93.3967 66.7323 93.2027C66.5383 93.0086 66.2751 92.8996 66.0007 92.8996H65.9897C64.6873 92.8996 63.2272 92.8996 61.8124 93.2121C61.4096 93.3006 61.0796 93.4057 60.7505 93.567C60.4371 93.7209 60.1551 93.9117 59.8546 94.1209C59.3154 94.4979 58.5255 95.1653 58.071 95.7819C57.3484 96.7617 56.7898 97.4512 56.0174 97.7563C55.6229 97.913 55.292 97.8678 55.1049 97.7682C54.9556 97.689 54.8247 97.5452 54.8247 97.2235C54.8247 96.8889 54.9915 96.5598 55.3796 95.9838L55.4183 95.9285C55.5925 95.7948 55.7437 95.6612 55.8746 95.5459L55.8838 95.5386C55.9511 95.4786 56.0064 95.4132 56.0202 95.3966L56.022 95.3948C56.1695 95.2158 56.3074 95.029 56.435 94.8353C56.4599 94.7975 56.4921 94.7449 56.5225 94.6878C56.545 94.6447 56.565 94.6004 56.5824 94.5551L56.5843 94.5523C56.6322 94.4285 56.6569 94.297 56.6571 94.1643V94.1615C56.6571 94.0841 56.6571 93.5919 56.2101 93.2692C55.6985 92.9006 55.1842 93.143 55.1012 93.1844C54.9537 93.2573 54.8468 93.3494 54.797 93.3937C54.7415 93.4444 54.6886 93.4979 54.6385 93.5541C54.4886 93.7248 54.351 93.9059 54.2265 94.0961C54.1601 94.1935 54.088 94.2871 54.0108 94.3763L53.9915 94.3993L53.9822 94.4113C53.3343 94.8242 52.9139 95.0482 52.4337 95.0749C52.3286 95.0805 52.2088 95.0906 52.1111 95.098L51.9913 95.1072C51.8669 95.1164 51.7802 95.1192 51.7092 95.1164C51.6635 95.1151 51.618 95.1086 51.5737 95.097C51.56 94.9637 51.5732 94.8289 51.6125 94.7007C51.6736 94.5965 51.7533 94.5044 51.8475 94.4288C51.9824 94.3116 52.1302 94.2102 52.2881 94.1265C52.4724 94.0297 52.6439 93.9237 52.7821 93.838L52.7914 93.8324C52.9398 93.7403 53.055 93.6693 53.172 93.6075C53.3407 93.5181 53.4734 93.4084 53.5527 93.3402L53.5628 93.331C53.6513 93.3135 53.7306 93.2969 53.8007 93.2803C53.8882 93.26 53.9961 93.2324 54.0956 93.1955C54.1343 93.1808 54.2376 93.142 54.3482 93.0702C54.503 92.9714 54.6289 92.8334 54.7132 92.6703C54.7975 92.5071 54.8372 92.3246 54.8282 92.1412C54.8192 91.9578 54.7619 91.78 54.662 91.6259C54.5622 91.4717 54.4234 91.3467 54.2597 91.2636C54.1774 91.2211 54.09 91.1892 53.9997 91.1686C53.9215 91.1513 53.842 91.1408 53.7619 91.1373C53.6479 91.133 53.5338 91.1346 53.42 91.1419C53.1628 91.1588 52.9139 91.2392 52.6955 91.376C52.477 91.4055 52.2217 91.4359 51.9461 91.459C51.3193 91.5124 50.64 91.5309 50.0685 91.4737C49.8703 91.4561 49.6737 91.4231 49.4805 91.3751L49.5063 91.3493C49.8529 90.9999 50.3469 90.6736 50.6456 90.4764L50.6843 90.4506C51.276 90.0598 51.8779 89.9132 52.6015 89.8376C52.8771 89.81 53.1471 89.7925 53.4449 89.774L53.8007 89.751C54.2692 89.724 54.736 89.6717 55.1989 89.5943C55.5676 89.5298 55.9658 89.5399 56.494 89.5583L56.5318 89.5602C57.0157 89.5768 57.6185 89.598 58.2259 89.4911C58.283 89.4818 58.378 89.4809 58.5974 89.5095L58.696 89.5224C58.8803 89.5482 59.1578 89.5869 59.4205 89.5869H60.8049C61.2473 89.5869 61.6806 89.5593 62.0751 89.5344H62.087C62.4963 89.5067 62.865 89.4837 63.2291 89.4837H63.2411C63.3332 89.4837 63.4724 89.4837 63.6005 89.4699C63.8508 89.4466 64.0888 89.3509 64.2854 89.1943C64.5822 88.9509 64.6753 88.6394 64.7094 88.4587C64.7319 88.3186 64.7418 88.1767 64.7389 88.0347C64.7389 87.9389 64.7527 87.8347 64.7804 87.6448L64.7831 87.6245C64.808 87.4586 64.843 87.2153 64.843 86.9544C64.843 85.4898 64.8384 84.0298 64.8338 82.5725C64.8228 79.6681 64.8126 76.773 64.843 73.8677C64.8484 73.7294 64.8259 73.5915 64.777 73.462C64.7282 73.3326 64.6538 73.2143 64.5584 73.1141C64.463 73.0139 64.3485 72.9338 64.2216 72.8786C64.0948 72.8234 63.9581 72.7942 63.8198 72.7927C63.6814 72.7912 63.5442 72.8175 63.4161 72.87C63.2881 72.9225 63.1719 73.0001 63.0744 73.0982C62.9769 73.1964 62.9 73.3131 62.8484 73.4414C62.7967 73.5698 62.7714 73.7072 62.7737 73.8455C62.7495 76.7637 62.7461 79.682 62.7636 82.6002C62.7691 84.0547 62.7737 85.5055 62.7737 86.9544C62.7737 87.0512 62.7608 87.1563 62.7332 87.3453L62.7295 87.3655L62.7203 87.4255C62.4622 87.4356 62.2106 87.4522 61.9718 87.4679H61.9534C61.546 87.4955 61.1736 87.5186 60.8049 87.5186H59.4195C59.3135 87.5186 59.2168 87.5047 59.049 87.4817C58.987 87.4732 58.9249 87.4649 58.8628 87.4568C58.6204 87.4255 58.2554 87.3849 57.8655 87.4531C57.4922 87.5195 57.0931 87.5084 56.5659 87.49L56.5235 87.4891C56.0414 87.4715 55.4413 87.4503 54.8385 87.5573C54.4532 87.6245 54.0689 87.6587 53.6596 87.6863L53.3527 87.7066C53.0302 87.7245 52.7082 87.7491 52.3867 87.7803C51.4917 87.8725 50.5211 88.078 49.5422 88.7251L49.4869 88.761C49.2427 88.9214 48.7219 89.2634 48.2601 89.6791C48.1317 89.6345 47.9958 89.6157 47.8601 89.6238C47.755 89.6284 47.6352 89.6385 47.5375 89.6459L47.4195 89.6551C47.3266 89.6635 47.2334 89.6665 47.1402 89.6643C47.0963 89.6636 47.0526 89.6574 47.0102 89.6459C46.996 89.5114 47.0089 89.3754 47.048 89.2459L47.0508 89.2394L47.0526 89.2357C47.0711 89.1989 47.1356 89.1021 47.2821 88.974C47.4204 88.8523 47.5808 88.7454 47.72 88.6716C47.9043 88.5749 48.0739 88.4689 48.2113 88.3831L48.2205 88.3776C48.3689 88.2854 48.4832 88.2145 48.5984 88.1527C48.7347 88.078 48.8622 87.988 48.9781 87.8845L48.9874 87.8762C49.074 87.8596 49.1533 87.843 49.2224 87.8264C49.31 87.8061 49.4169 87.7776 49.5164 87.7407C49.5551 87.7259 49.6593 87.6872 49.769 87.6144C49.9229 87.5154 50.048 87.3776 50.1317 87.2148C50.2154 87.0521 50.2548 86.8702 50.2458 86.6874C50.2368 86.5046 50.1799 86.3274 50.0806 86.1736C49.9814 86.0199 49.8434 85.895 49.6805 85.8115C49.598 85.7686 49.5103 85.7364 49.4196 85.7156C49.3415 85.698 49.2619 85.6872 49.1818 85.6834C49.0682 85.679 48.9543 85.6806 48.8408 85.688C48.5839 85.7048 48.3353 85.7852 48.1172 85.9221C47.8997 85.9525 47.6472 85.982 47.3743 86.0051C46.7512 86.0585 46.0765 86.077 45.5087 86.0207C45.3123 86.0031 45.1175 85.9701 44.9262 85.9221L44.9538 85.8926C45.2995 85.5433 45.7899 85.217 46.0876 85.0197L46.1254 84.9939C46.7134 84.604 47.3098 84.4584 48.0288 84.3828C48.3016 84.3542 48.5698 84.3367 48.8657 84.3183L49.2196 84.2962C49.6482 84.2667 50.1183 84.227 50.6115 84.1395C50.9783 84.075 51.3719 84.0842 51.8973 84.1026L51.936 84.1044C52.4162 84.122 53.0172 84.1432 53.6228 84.0353C53.6781 84.0261 53.7702 84.0252 53.9887 84.0537L54.0864 84.0667C54.2698 84.0925 54.5473 84.1321 54.809 84.1321H56.187C56.6267 84.1321 57.0581 84.1044 57.4507 84.0786H57.4627C57.8692 84.0519 58.237 84.0289 58.5974 84.0289H58.6093C58.7015 84.0289 58.8398 84.0289 58.9688 84.0141C59.0942 84.0003 59.3864 83.9579 59.6537 83.7376C59.9495 83.4933 60.0417 83.1818 60.0749 83.0021C60.0976 82.8625 60.1078 82.7212 60.1053 82.5799C60.1053 82.4822 60.1182 82.3771 60.1459 82.1882L60.1496 82.1679C60.1735 82.002 60.2086 81.7586 60.2086 81.4978C60.2086 80.0322 60.2039 78.5731 60.1993 77.1149C60.1883 74.2087 60.1781 71.3126 60.2086 68.4055Z" fill="#252D37"/>
<path d="M80.8264 46.1447L47.9029 25.3072C45.7784 23.9626 42.9661 24.5948 41.6215 26.7193L37.4833 33.2577C36.1387 35.3822 36.7709 38.1945 38.8954 39.5391L71.8189 60.3766C73.9434 61.7212 76.7557 61.089 78.1003 58.9645L82.2385 52.4261C83.5831 50.3016 82.9509 47.4893 80.8264 46.1447Z" fill="#1F6CD6"/>
<path d="M73.1434 59.0539L34.1058 63.6674C31.609 63.9624 29.8241 66.2258 30.1191 68.7226L30.7586 74.1334C31.0537 76.6302 33.317 78.4151 35.8139 78.1201L74.8514 73.5066C77.3483 73.2115 79.1332 70.9482 78.8381 68.4513L78.1986 63.0406C77.9036 60.5437 75.6402 58.7588 73.1434 59.0539Z" fill="#2C64D8"/>
<path fill-rule="evenodd" clip-rule="evenodd" d="M37.1689 43.8358C39.3469 45.0931 42.2319 44.1695 43.6145 41.7739C44.9971 39.3774 44.3519 36.4186 42.1739 35.1614C39.9958 33.9051 37.1099 34.8286 35.7282 37.2242C34.3456 39.6198 34.9908 42.5795 37.1689 43.8358ZM45.0561 48.3864C47.2333 49.6428 50.1192 48.7192 51.5009 46.3236C52.8835 43.928 52.2383 40.9683 50.0602 39.712C47.8831 38.4557 44.9962 39.3783 43.6145 41.7739C42.2319 44.1704 42.8781 47.1301 45.0561 48.3864ZM59.3421 50.9525C57.9429 53.2882 55.0975 54.1777 52.9434 52.9352C50.7663 51.6789 50.1211 48.7183 51.5027 46.3227C52.8853 43.9271 55.7704 43.0044 57.9484 44.2607C60.1025 45.5032 60.757 48.4122 59.4343 50.7931C60.8335 48.4574 63.6789 47.5689 65.833 48.8113C68.0101 50.0668 68.6553 53.0274 67.2736 55.4229C67.1264 55.678 66.959 55.9209 66.7731 56.1493C67.2607 56.8682 67.5815 57.7347 67.6663 58.685C67.9124 61.4391 66.0809 63.8541 63.5775 64.0771C61.0731 64.3011 58.8434 62.2493 58.5983 59.4942C58.4851 58.3165 58.77 57.1349 59.4075 56.1382C58.4637 54.692 58.3807 52.6836 59.3421 50.9525ZM49.4464 60.3035C49.6915 63.0586 47.861 65.4726 45.3566 65.6957C42.8523 65.9197 40.6235 63.8679 40.3774 61.1128C40.1313 58.3587 41.9628 55.9447 44.4662 55.7207C46.9706 55.4976 49.2012 57.5494 49.4464 60.3035ZM36.3725 67.3299C38.8768 67.1059 40.7074 64.6919 40.4613 61.9378C40.2161 59.1827 37.9864 57.1309 35.4821 57.3549C32.9777 57.578 31.1472 59.992 31.3933 62.7471C31.6394 65.5012 33.8681 67.553 36.3725 67.3299ZM58.5973 59.4952C58.8434 62.2493 57.012 64.6633 54.5085 64.8873C52.0042 65.1104 49.7745 63.0586 49.5293 60.3035C49.2832 57.5494 51.1147 55.1344 53.6181 54.9114C56.1225 54.6883 58.3522 56.7401 58.5983 59.4942L58.5973 59.4952Z" fill="#FDFAEE"/>
</g>
</g>
<defs>
<clipPath id="clip0_10_409">
<rect width="117.982" height="117.982" fill="white" transform="translate(0.990845 0.82666)"/>
</clipPath>
</defs>
</svg>
