<svg width="119" height="119" viewBox="0 0 119 119" fill="none" xmlns="http://www.w3.org/2000/svg">
<g clip-path="url(#clip0_10_436)">
<mask id="mask0_10_436" style="mask-type:luminance" maskUnits="userSpaceOnUse" x="0" y="0" width="119" height="119">
<path d="M0.309082 0.82666H118.291V118.809H0.309082V0.82666Z" fill="white"/>
</mask>
<g mask="url(#mask0_10_436)">
<path d="M59.019 118.246C91.4435 118.246 117.729 91.9611 117.729 59.5365C117.729 27.112 91.4435 0.82666 59.019 0.82666C26.5944 0.82666 0.309082 27.112 0.309082 59.5365C0.309082 91.9611 26.5944 118.246 59.019 118.246Z" fill="white"/>
<path fill-rule="evenodd" clip-rule="evenodd" d="M71.8329 15.3328C71.8451 15.1956 71.8847 15.0622 71.9491 14.9404C72.0135 14.8187 72.1016 14.7111 72.2082 14.6238C72.3148 14.5366 72.4377 14.4715 72.5698 14.4323C72.7019 14.3932 72.8404 14.3808 72.9773 14.3959C73.1142 14.411 73.2468 14.4532 73.3671 14.5202C73.4875 14.5872 73.5933 14.6775 73.6783 14.7858C73.7633 14.8942 73.8259 15.0185 73.8622 15.1513C73.8986 15.2842 73.9081 15.4229 73.8902 15.5595L72.8975 24.5658C72.8623 24.8343 72.7232 25.0783 72.5101 25.2454C72.2971 25.4126 72.027 25.4896 71.7578 25.4599C71.4886 25.4302 71.2418 25.2963 71.0703 25.0867C70.8987 24.8772 70.8161 24.6088 70.8402 24.339L71.8329 15.3328ZM82.5895 18.8178C83.0523 19.1543 83.1546 19.8013 82.8181 20.2631L77.1384 28.0702C77.0585 28.1801 76.9578 28.2732 76.8419 28.3442C76.726 28.4151 76.5973 28.4626 76.4631 28.4838C76.3289 28.505 76.1918 28.4996 76.0597 28.4679C75.9276 28.4361 75.803 28.3787 75.6931 28.2988C75.5832 28.2189 75.4901 28.1181 75.4192 28.0023C75.3482 27.8864 75.3007 27.7577 75.2795 27.6235C75.2583 27.4893 75.2637 27.3522 75.2954 27.2201C75.3272 27.088 75.3846 26.9634 75.4645 26.8535L81.1443 19.0464C81.2241 18.9363 81.3249 18.8431 81.4408 18.772C81.5568 18.7009 81.6856 18.6534 81.82 18.6321C81.9543 18.6109 82.0915 18.6164 82.2237 18.6482C82.3559 18.6801 82.4796 18.7377 82.5895 18.8178ZM90.0252 26.9438C90.2556 27.4674 90.0178 28.0776 89.4943 28.308L81.3673 31.877C81.2424 31.9348 81.1072 31.9671 80.9697 31.9721C80.8321 31.977 80.6949 31.9545 80.5662 31.9058C80.4374 31.8571 80.3197 31.7832 80.2198 31.6884C80.12 31.5937 80.0401 31.4799 79.9847 31.3539C79.9293 31.2279 79.8997 31.092 79.8975 30.9544C79.8952 30.8168 79.9205 30.6801 79.9717 30.5523C80.023 30.4246 80.0992 30.3083 80.1959 30.2104C80.2926 30.1124 80.4079 30.0347 80.535 29.9819L88.6619 26.4129C89.1855 26.1825 89.7947 26.4203 90.0252 26.9438ZM60.1932 32.5425C59.6663 32.2537 59.0759 32.1006 58.475 32.0969C57.8742 32.0932 57.2819 32.239 56.7515 32.5213L51.3815 35.3786C51.0874 35.5339 50.8148 35.7266 50.5703 35.952C48.5821 37.2921 46.9547 39.1014 45.8318 41.2199C44.7089 43.3384 44.1251 45.7009 44.132 48.0986C44.132 56.137 50.5547 62.6527 58.4761 62.6527C66.3984 62.6527 72.8201 56.137 72.8201 48.0986C72.8201 42.1654 69.3212 37.0608 64.3033 34.7943L60.1932 32.5425Z" fill="#FF8A56"/>
<path fill-rule="evenodd" clip-rule="evenodd" d="M39.338 56.7787C38.9196 55.6266 37.8854 54.7583 36.6604 54.7583H23.0943C22.7546 54.7583 22.4182 54.8252 22.1043 54.9553C21.7905 55.0853 21.5053 55.2759 21.2651 55.5162C21.025 55.7564 20.8345 56.0417 20.7045 56.3556C20.5746 56.6695 20.5078 57.0059 20.5079 57.3456V87.0255C20.5079 87.7114 20.7804 88.3693 21.2655 88.8543C21.7505 89.3394 22.4084 89.6118 23.0943 89.6118H95.5463C96.2324 89.6118 96.8903 89.3394 97.3755 88.8544C97.8607 88.3694 98.1334 87.7115 98.1336 87.0255V57.3456C98.1336 56.6594 97.861 56.0013 97.3758 55.5161C96.8906 55.0309 96.2325 54.7583 95.5463 54.7583H79.1948C77.9707 54.7583 76.9365 55.6275 76.518 56.7787C74.0432 63.5996 66.6564 68.5493 57.9285 68.5493C49.1997 68.5493 41.8138 63.5996 39.338 56.7787Z" fill="#1F6CD6"/>
<path fill-rule="evenodd" clip-rule="evenodd" d="M59.3609 34.6202C59.1092 34.4567 58.8154 34.3696 58.5152 34.3696C58.215 34.3696 57.9213 34.4567 57.6696 34.6202L54.1402 36.9126C52.8443 37.7541 53.4397 39.7663 54.9855 39.7663H62.0459C63.5908 39.7663 64.1862 37.7541 62.8903 36.9126L59.3609 34.6202ZM78.3948 79.0663C78.9087 79.0472 79.4136 78.9261 79.8803 78.7101C80.347 78.4941 80.7661 78.1875 81.1133 77.8081C81.4605 77.4287 81.7288 76.9841 81.9026 76.5001C82.0764 76.0162 82.1523 75.5024 82.1259 74.9889C82.0994 74.4753 81.9712 73.9721 81.7485 73.5085C81.5259 73.045 81.2134 72.6303 80.8291 72.2886C80.4448 71.9468 79.9964 71.6849 79.5099 71.518C79.0235 71.3511 78.5088 71.2825 77.9956 71.3163C76.9786 71.3836 76.0288 71.8483 75.3516 72.6101C74.6743 73.3719 74.324 74.3695 74.3763 75.3875C74.4286 76.4054 74.8793 77.3619 75.6311 78.0503C76.3828 78.7387 77.3752 79.1036 78.3938 79.0663H78.3948ZM92.76 71.3348C92.7861 71.8438 92.7117 72.3529 92.541 72.8331C92.3703 73.3134 92.1067 73.7553 91.7652 74.1336C91.4238 74.512 91.0111 74.8194 90.5508 75.0382C90.0906 75.2571 89.5917 75.3832 89.0827 75.4093C88.5737 75.4354 88.0646 75.3609 87.5844 75.1903C87.1041 75.0196 86.6622 74.756 86.2839 74.4145C85.9055 74.0731 85.5981 73.6604 85.3792 73.2002C85.1604 72.7399 85.0343 72.241 85.0082 71.732C84.9555 70.7041 85.3133 69.6973 86.003 68.9332C86.6926 68.1691 87.6575 67.7102 88.6855 67.6575C89.7134 67.6048 90.7202 67.9626 91.4843 68.6523C92.2484 69.3419 92.7073 70.3068 92.76 71.3348ZM86.4102 83.8353C87.1638 83.7967 87.8713 83.4603 88.3769 82.9C88.8825 82.3398 89.1449 81.6017 89.1062 80.848C89.0676 80.0943 88.7312 79.3869 88.1709 78.8812C87.6107 78.3756 86.8726 78.1133 86.1189 78.1519C85.7457 78.171 85.38 78.2635 85.0425 78.424C84.705 78.5844 84.4025 78.8098 84.1522 79.0872C83.9018 79.3646 83.7085 79.6886 83.5834 80.0407C83.4583 80.3928 83.4037 80.7661 83.4228 81.1393C83.4419 81.5124 83.5344 81.8782 83.6949 82.2156C83.8553 82.5531 84.0807 82.8556 84.3581 83.106C84.6355 83.3563 84.9595 83.5496 85.3116 83.6747C85.6637 83.7999 86.037 83.8544 86.4102 83.8353Z" fill="#FDFAEE"/>
<path fill-rule="evenodd" clip-rule="evenodd" d="M48.9526 32.0438C49.7241 31.5866 50.5122 31.0142 51.2846 30.4418L51.6625 30.1607C52.3207 29.6722 52.9714 29.1864 53.6378 28.7375C55.2481 27.6527 56.7441 26.9208 58.1774 26.9208C58.2511 26.9208 58.3248 26.9125 58.394 26.8978C58.464 26.9125 58.5359 26.9208 58.6106 26.9208C60.0439 26.9208 61.5398 27.6527 63.1501 28.7375C63.8165 29.1864 64.4682 29.6713 65.1245 30.1607L65.5033 30.4418C66.2757 31.0142 67.0638 31.5866 67.8353 32.0438C73.762 35.5538 77.6886 41.569 77.6886 48.4258C77.6845 48.5643 77.7082 48.7021 77.7583 48.8313C77.8085 48.9604 77.884 49.0782 77.9805 49.1776C78.077 49.277 78.1924 49.356 78.32 49.41C78.4476 49.464 78.5847 49.4918 78.7233 49.4918C78.8618 49.4918 78.9989 49.464 79.1265 49.41C79.2541 49.356 79.3696 49.277 79.466 49.1776C79.5625 49.0782 79.6381 48.9604 79.6882 48.8313C79.7384 48.7021 79.7621 48.5643 79.7579 48.4258C79.7579 40.7339 75.3502 34.0901 68.8907 30.263C68.2215 29.8667 67.5108 29.3542 66.7357 28.779L66.3697 28.5071C65.6937 27.9962 65.0059 27.5011 64.3069 27.0222C62.6413 25.8995 60.702 24.8506 58.6106 24.8506C58.5368 24.8506 58.4631 24.8589 58.394 24.8736C58.3227 24.8587 58.2501 24.8513 58.1774 24.8515C56.0859 24.8515 54.1466 25.8995 52.481 27.0213C51.7713 27.5006 51.0754 28.0186 50.4182 28.5071L50.0523 28.779C49.2771 29.3542 48.5664 29.8667 47.8982 30.263C41.4368 34.0901 37.03 40.7339 37.03 48.4258C37.0259 48.5643 37.0496 48.7021 37.0997 48.8313C37.1498 48.9604 37.2254 49.0782 37.3219 49.1776C37.4184 49.277 37.5338 49.356 37.6614 49.41C37.789 49.464 37.9261 49.4918 38.0646 49.4918C38.2032 49.4918 38.3403 49.464 38.4679 49.41C38.5955 49.356 38.7109 49.277 38.8074 49.1776C38.9039 49.0782 38.9795 48.9604 39.0296 48.8313C39.0797 48.7021 39.1034 48.5643 39.0993 48.4258C39.0993 41.5681 43.0259 35.5538 48.9526 32.0438Z" fill="#252D37"/>
</g>
</g>
<defs>
<clipPath id="clip0_10_436">
<rect width="117.982" height="117.982" fill="white" transform="translate(0.309082 0.82666)"/>
</clipPath>
</defs>
</svg>
