<svg width="39" height="25" viewBox="0 0 39 25" fill="none" xmlns="http://www.w3.org/2000/svg">
<g clip-path="url(#clip0_35_1096)">
<path fill-rule="evenodd" clip-rule="evenodd" d="M7.52277 0.949707H31.5228V24.9497H7.52277V0.949707Z" fill="white"/>
<mask id="mask0_35_1096" style="mask-type:luminance" maskUnits="userSpaceOnUse" x="10" y="4" width="19" height="18">
<path fill-rule="evenodd" clip-rule="evenodd" d="M27.8945 11.3916H19.7225V14.7027H24.4265C23.9876 16.807 22.1542 18.0147 19.7225 18.0147C16.851 18.0147 14.5393 15.7553 14.5393 12.9498C14.5393 10.1444 16.8519 7.88413 19.7225 7.88413C20.8963 7.88172 22.0357 8.28097 22.9513 9.01556L25.503 6.52128C23.9482 5.19699 21.9545 4.37842 19.7225 4.37842C14.8582 4.37842 10.9513 8.19699 10.9513 12.9498C10.9513 17.7027 14.8582 21.5213 19.7225 21.5213C24.1076 21.5213 28.0942 18.4047 28.0942 12.9498C28.0942 12.4441 28.0145 11.8981 27.8945 11.3916Z" fill="white"/>
</mask>
<g mask="url(#mask0_35_1096)">
<path d="M10.1542 18.0157V7.88428L16.9316 12.95L10.1542 18.0157Z" fill="#FBBC05"/>
</g>
<mask id="mask1_35_1096" style="mask-type:luminance" maskUnits="userSpaceOnUse" x="10" y="4" width="19" height="18">
<path fill-rule="evenodd" clip-rule="evenodd" d="M27.8945 11.3916H19.7225V14.7027H24.4265C23.9876 16.807 22.1542 18.0147 19.7225 18.0147C16.851 18.0147 14.5393 15.7553 14.5393 12.9498C14.5393 10.1444 16.8519 7.88413 19.7225 7.88413C20.8963 7.88172 22.0357 8.28097 22.9513 9.01556L25.503 6.52128C23.9482 5.19699 21.9545 4.37842 19.7225 4.37842C14.8582 4.37842 10.9513 8.19699 10.9513 12.9498C10.9513 17.7027 14.8582 21.5213 19.7225 21.5213C24.1076 21.5213 28.0942 18.4047 28.0942 12.9498C28.0942 12.4441 28.0145 11.8981 27.8945 11.3916Z" fill="white"/>
</mask>
<g mask="url(#mask1_35_1096)">
<path d="M10.1542 7.88435L16.9316 12.9501L19.7225 10.5732L29.2899 9.05435V3.59863H10.1542V7.88435Z" fill="#EA4335"/>
</g>
<mask id="mask2_35_1096" style="mask-type:luminance" maskUnits="userSpaceOnUse" x="10" y="4" width="19" height="18">
<path fill-rule="evenodd" clip-rule="evenodd" d="M27.8945 11.3916H19.7225V14.7027H24.4265C23.9876 16.807 22.1542 18.0147 19.7225 18.0147C16.851 18.0147 14.5393 15.7553 14.5393 12.9498C14.5393 10.1444 16.8519 7.88413 19.7225 7.88413C20.8963 7.88172 22.0357 8.28097 22.9513 9.01556L25.503 6.52128C23.9482 5.19699 21.9545 4.37842 19.7225 4.37842C14.8582 4.37842 10.9513 8.19699 10.9513 12.9498C10.9513 17.7027 14.8582 21.5213 19.7225 21.5213C24.1076 21.5213 28.0942 18.4047 28.0942 12.9498C28.0942 12.4441 28.0145 11.8981 27.8945 11.3916Z" fill="white"/>
</mask>
<g mask="url(#mask2_35_1096)">
<path d="M10.1542 18.0158L22.1139 9.05349L25.2639 9.44263L29.2899 3.59863V22.2998H10.1542V18.0158Z" fill="#34A853"/>
</g>
<mask id="mask3_35_1096" style="mask-type:luminance" maskUnits="userSpaceOnUse" x="10" y="4" width="19" height="18">
<path fill-rule="evenodd" clip-rule="evenodd" d="M27.8945 11.3916H19.7225V14.7027H24.4265C23.9876 16.807 22.1542 18.0147 19.7225 18.0147C16.851 18.0147 14.5393 15.7553 14.5393 12.9498C14.5393 10.1444 16.8519 7.88413 19.7225 7.88413C20.8963 7.88172 22.0357 8.28097 22.9513 9.01556L25.503 6.52128C23.9482 5.19699 21.9545 4.37842 19.7225 4.37842C14.8582 4.37842 10.9513 8.19699 10.9513 12.9498C10.9513 17.7027 14.8582 21.5213 19.7225 21.5213C24.1076 21.5213 28.0942 18.4047 28.0942 12.9498C28.0942 12.4441 28.0145 11.8981 27.8945 11.3916Z" fill="white"/>
</mask>
<g mask="url(#mask3_35_1096)">
<path d="M29.2899 22.3011L16.9316 12.9496L15.3373 11.7805L29.2899 7.88477V22.3011Z" fill="#4285F4"/>
</g>
</g>
<defs>
<clipPath id="clip0_35_1096">
<rect width="37.3364" height="24" fill="white" transform="translate(0.854553 0.949707)"/>
</clipPath>
</defs>
</svg>
