<svg width="296" height="296" viewBox="0 0 296 296" fill="none" xmlns="http://www.w3.org/2000/svg">
<g clip-path="url(#clip0_10_481)">
<path d="M116.699 54.8627C116.171 54.8627 115.643 54.7571 115.115 54.6515C110.68 53.7011 107.934 48.8438 109.096 43.7753C109.624 41.3466 110.891 39.2347 112.792 37.862C114.692 36.4893 116.91 35.9613 119.022 36.3837C123.457 37.334 126.202 42.1914 125.041 47.2599C124.513 49.6886 123.246 51.8004 121.345 53.1732C120.044 54.2661 118.398 54.8645 116.699 54.8627ZM117.544 37.2284C116.065 37.2284 114.692 37.7564 113.425 38.7067C111.736 39.9739 110.574 41.8746 110.046 44.0921C109.096 48.6326 111.419 52.962 115.326 53.8067C117.227 54.2291 119.127 53.7011 120.817 52.5396C122.506 51.2725 123.668 49.3718 124.196 47.1543C125.146 42.6137 122.823 38.2844 118.916 37.4396C118.388 37.2284 117.966 37.2284 117.544 37.2284ZM124.196 79.5717C114.27 71.2298 114.692 62.2543 114.165 59.5088L101.388 77.2487L100.332 87.7025L129.476 90.6591C130.109 89.6032 129.687 84.3235 124.196 79.5717Z" fill="#252D37"/>
<path d="M102.232 86.4354C99.1702 95.6221 91.7786 96.9948 88.294 96.5725C77.2066 95.9389 71.0821 85.8018 69.287 80.5221C69.287 80.5221 69.1814 80.5221 69.1814 80.4165C62.9513 76.5095 48.6961 73.0249 34.7577 75.348C6.35279 79.9942 -15.0828 173.34 14.1668 210.614C19.2353 217.056 47.3234 230.044 86.0765 190.657L94.7352 171.967L160.626 143.879C160.098 128.462 164.955 88.0193 102.232 86.4354Z" fill="white"/>
<path d="M69.0758 80.3105C69.0758 80.5217 69.1814 80.5217 69.1814 80.4161C69.1814 80.4161 69.1814 80.3105 69.0758 80.3105Z" fill="#AD563A"/>
<path d="M126.941 53.0676C127.047 50.8501 123.246 46.9431 120.817 45.5704C121.239 35.9613 120.5 24.1348 115.643 19.4886C108.885 13.0474 86.2877 14.8425 75.8338 16.532C75.8338 16.532 70.3429 78.6214 69.0758 80.3109C70.8709 85.5907 76.9954 95.7277 88.0828 96.4669C91.673 96.8892 99.1702 95.5165 102.127 86.1186H102.232C102.232 86.1186 100.543 85.6963 102.338 78.5158C110.046 78.9382 114.27 77.2487 117.544 67.9564C119.339 62.8879 119.867 59.4033 119.972 57.397C122.823 56.4466 126.941 55.1795 126.941 53.0676Z" fill="#AD563A"/>
<path d="M102.232 86.2238C99.2758 95.6217 91.7786 96.9944 88.1884 96.5721C76.9954 95.8329 70.8709 85.4847 69.1814 80.3105H69.0758C73.5108 100.373 78.1569 145.779 78.8961 158.767L102.444 148.63L102.232 86.2238Z" fill="#2C64D8"/>
<path d="M107.301 277.983C107.301 268.902 106.456 235.112 110.891 220.434L134.967 217.055L181.639 208.186L254.499 217.055C256.506 226.876 255.344 260.244 254.499 275.766C227.256 294.984 148.166 286.009 107.301 277.983Z" fill="#5FC69B"/>
<path d="M122.084 55.6015C123.14 55.0735 122.295 54.5456 120.5 54.9679C118.6 55.3903 120.078 56.4463 122.084 55.6015Z" fill="#AD563A"/>
<path d="M86.2876 39.0605L86.5442 38.145L103.122 42.7711L102.867 43.6866L86.2876 39.0605Z" fill="#252D37"/>
<path d="M119.127 68.2732C118.811 65.8445 119.127 62.9935 119.867 60.776C118.916 60.776 115.854 60.8816 109.413 57.6082C104.027 54.7571 102.972 58.5585 107.723 62.4655C110.469 64.683 114.27 66.6893 119.127 68.2732Z" fill="#FFF0BB"/>
<path d="M116.804 34.6938C116.699 34.6938 116.488 34.5882 116.488 34.4826C114.376 32.1595 110.363 32.4763 108.885 33.2154C108.674 33.321 108.357 33.2154 108.251 33.0043C108.146 32.7931 108.251 32.4763 108.462 32.3707C110.258 31.4203 114.798 30.998 117.332 33.7434C117.544 33.9546 117.544 34.2714 117.332 34.4826C117.121 34.6938 117.016 34.6938 116.804 34.6938ZM110.363 53.8063C109.835 53.8063 109.307 53.7007 108.779 53.5951C104.344 52.6448 101.599 47.7875 102.76 42.7189C103.288 40.0791 104.872 37.756 106.984 36.3833C108.779 35.2217 110.785 34.7994 112.686 35.2217C117.121 36.1721 119.867 41.0294 118.705 46.0979C118.177 48.5266 116.91 50.6385 115.009 52.0112C113.637 53.1728 112.053 53.8063 110.363 53.8063ZM111.208 36.0665C109.941 36.0665 108.674 36.4889 107.512 37.228C105.611 38.4952 104.239 40.5014 103.711 42.9301C102.76 47.4707 105.083 51.8 108.99 52.6448C110.891 53.0672 112.792 52.5392 114.481 51.3777C116.171 50.1105 117.332 48.2098 117.86 45.9924C118.811 41.4518 116.488 37.1224 112.581 36.2777C112.158 36.1721 111.63 36.0665 111.208 36.0665Z" fill="#252D37"/>
<path d="M113.109 45.9927C111.947 45.7815 108.146 44.9368 106.351 44.62C104.239 44.1976 109.096 41.3466 112.686 41.9801C116.065 42.5081 114.692 46.2039 113.109 45.9927Z" fill="white"/>
<mask id="mask0_10_481" style="mask-type:luminance" maskUnits="userSpaceOnUse" x="105" y="41" width="10" height="6">
<path d="M113.109 45.9927C111.947 45.7815 108.146 44.9368 106.351 44.62C104.239 44.1976 109.096 41.3466 112.686 41.9801C116.065 42.5081 114.692 46.2039 113.109 45.9927Z" fill="white"/>
</mask>
<g mask="url(#mask0_10_481)">
<path d="M113.003 46.4152C113.936 46.4152 114.692 45.6587 114.692 44.7256C114.692 43.7925 113.936 43.0361 113.003 43.0361C112.07 43.0361 111.313 43.7925 111.313 44.7256C111.313 45.6587 112.07 46.4152 113.003 46.4152Z" fill="#252D37"/>
</g>
<path d="M113.953 142.823C135.178 125.294 158.514 130.996 165.695 135.959L204.236 137.332C213.001 131.102 235.704 125.399 256.083 152.537C281.637 186.327 312.893 250.106 284.383 263.622C261.574 274.393 235.281 235.218 224.827 215.788H145.315C124.407 253.908 83.0142 289.071 70.0261 263.622C54.8206 233.422 87.3436 164.786 113.953 142.823Z" fill="#5FC69B"/>
<path d="M135.706 150.425C129.793 149.052 128.103 168.587 128.525 177.88H136.656C138.768 169.221 141.619 151.798 135.706 150.425Z" fill="#FFBB95"/>
<path d="M44.8947 169.855C44.5779 169.855 44.3667 169.644 44.3667 169.327C45.1059 161.407 44.6835 135.959 44.3667 123.604C44.3667 123.288 44.5779 123.076 44.8947 123.076C45.2115 123.076 45.4226 123.288 45.4226 123.604C45.7394 135.959 46.1618 161.513 45.4226 169.538C45.317 169.644 45.1059 169.855 44.8947 169.855ZM106.139 148.63H105.189C105.4 142.717 111.419 134.164 114.587 130.257C114.481 127.828 111.102 121.493 108.885 117.797L108.674 117.48L116.382 110.194C116.488 103.119 112.369 92.3486 110.258 87.4912L111.102 87.0688C113.32 91.9262 117.544 103.119 117.332 110.405V110.616L109.835 117.691C110.891 119.486 115.432 127.511 115.432 130.574V130.785L115.326 130.89C112.369 134.375 106.351 142.928 106.139 148.63Z" fill="#252D37"/>
<path d="M124.829 164.364C123.668 171.755 121.873 186.116 120.289 194.247L144.259 213.359L144.47 213.043C152.918 201.11 170.129 176.824 166.645 171.016C163.055 165.208 156.191 176.718 150.806 184.321C146.476 180.097 148.377 171.016 157.247 171.016C161.576 171.016 163.371 169.854 163.899 168.271C164.533 166.37 162.632 164.68 160.732 164.047C148.694 160.245 144.47 167.637 140.88 172.706C141.936 167.743 147.743 147.68 140.88 147.68C136.022 147.68 134.227 161.935 132.432 172.706C133.171 168.059 132.432 169.432 132.432 163.413C132.327 157.606 126.097 156.972 124.829 164.364ZM199.273 170.171C192.304 172.494 213.212 203.433 224.088 211.247L248.48 194.669C244.679 184.954 240.983 167.426 233.169 165.42C227.573 163.941 220.92 163.73 219.231 164.68C218.386 164.575 214.901 164.047 207.51 161.829C198.64 159.189 195.578 162.252 196.634 165.42C197.478 167.954 207.932 172.283 213.106 174.184L213.529 182.103C212.262 179.041 205.398 168.165 199.273 170.171Z" fill="#FFBB95"/>
<path d="M257.562 258.131C257.456 258.131 257.35 258.131 257.245 258.026C241.406 243.876 232.853 229.621 225.25 217.055C224.405 215.577 223.455 214.204 222.61 212.726L222.399 212.303L251.754 191.607L252.071 191.818C259.357 198.154 273.823 212.092 280.687 220.645C280.898 220.857 280.792 221.173 280.581 221.385C280.37 221.596 280.053 221.49 279.842 221.279C273.084 212.937 259.04 199.21 251.648 192.768L223.666 212.515C224.405 213.782 225.25 215.049 226.094 216.422C233.697 228.882 242.25 243.137 257.878 257.181C258.09 257.392 258.09 257.709 257.878 257.92C257.773 258.026 257.667 258.131 257.562 258.131Z" fill="#252D37"/>
<path d="M190.826 39.5515C190.826 45.4647 164.744 63.5214 160.626 60.2479C155.557 56.0242 190.826 33.6382 190.826 39.5515Z" fill="#9E9E9E"/>
<path d="M144.47 42.4023C157.036 45.1477 169.39 52.4338 173.825 55.8128C183.012 53.2785 189.664 42.6135 191.988 37.7561C191.776 34.5883 185.863 26.6687 183.54 24.0289C183.646 21.2834 183.223 17.482 181.217 15.0534C179.633 13.0471 176.043 13.9974 174.67 15.0534C171.713 12.6247 167.701 14.2086 166.223 15.0534C162.632 13.7862 159.042 16.8485 158.409 18.2212C148.272 18.1156 151.651 31.1037 156.93 35.6443C140.035 29.3086 132.116 39.6568 144.47 42.4023ZM73.0884 160.562L88.9275 175.768L115.326 141.661C114.059 140.499 106.562 141.344 97.903 148.63C92.8345 152.96 81.1135 157.817 73.0884 160.562Z" fill="#AD563A"/>
<path d="M157.036 27.1966C156.93 26.9854 156.613 26.8798 156.402 26.9854C156.191 27.091 156.085 27.4078 156.191 27.619L157.036 27.1966ZM159.359 18.3267C159.148 18.2211 158.831 18.2211 158.725 18.4323C158.62 18.6435 158.62 18.9603 158.831 19.0658L159.359 18.3267ZM156.085 27.7246C156.93 29.3085 158.303 30.8924 159.887 31.9483C161.471 33.0043 163.266 33.6379 164.744 32.8987L164.322 32.0539C163.266 32.4763 161.893 32.1595 160.415 31.1036C158.937 30.1532 157.669 28.6749 156.93 27.3022L156.085 27.7246ZM164.85 32.8987C166.223 32.2651 166.856 31.2092 166.962 29.9421C167.067 28.6749 166.75 27.3022 166.011 25.9295C164.639 23.184 161.999 20.2274 159.253 18.3267L158.725 19.1714C161.365 20.9665 163.899 23.8176 165.167 26.4574C165.8 27.7246 166.117 28.9917 166.011 29.9421C165.906 30.8924 165.483 31.6316 164.427 32.0539L164.85 32.8987Z" fill="#252D37"/>
<path d="M235.915 110.511C242.356 96.8892 209.727 54.4403 190.932 34.7998C185.124 47.6823 168.651 60.0368 160.52 60.0368L167.49 72.2858L163.688 80.7333L201.069 135.22C208.566 131.841 227.467 128.145 235.915 110.511Z" fill="white"/>
<path d="M138.557 176.507C138.451 176.507 138.346 176.507 138.346 176.402C138.134 176.296 138.029 175.979 138.134 175.768C138.979 174.395 140.985 171.122 142.886 169.01C143.097 168.799 143.414 168.799 143.625 168.904C143.837 169.116 143.837 169.432 143.731 169.644C141.936 171.755 139.93 174.923 139.085 176.296C138.874 176.402 138.662 176.507 138.557 176.507ZM132.749 175.346C132.432 175.346 132.221 175.029 132.221 174.818L135.811 152.009C135.811 151.693 136.128 151.587 136.339 151.587C136.656 151.587 136.762 151.904 136.762 152.115L133.172 174.923C133.172 175.134 132.96 175.346 132.749 175.346ZM88.7163 204.806C88.5051 204.806 88.2939 204.595 88.1884 204.384C88.1884 204.067 88.294 203.856 88.6107 203.856C92.7289 203.117 97.2695 202.378 103.605 202.378C103.922 202.378 104.133 202.589 104.133 202.906C104.133 203.223 103.922 203.434 103.605 203.434C97.3751 203.328 92.8345 204.067 88.7163 204.806Z" fill="#252D37"/>
<path d="M107.301 262.355C107.195 262.355 106.984 262.25 106.878 262.144C106.773 261.933 106.773 261.616 106.984 261.511C115.009 255.809 134.755 228.249 144.364 214.099L117.966 193.402C106.773 199.421 92.2009 213.36 86.0764 220.012C85.8652 220.223 85.5484 220.223 85.3372 220.012C85.126 219.801 85.126 219.484 85.3372 219.273C91.5673 212.515 106.35 198.26 117.755 192.346L118.071 192.241L145.632 213.888L145.42 214.31C135.917 228.354 115.854 256.548 107.618 262.355H107.301ZM161.893 253.274C161.682 253.274 161.576 253.169 161.471 253.063C161.365 252.852 161.365 252.535 161.682 252.43C179.316 242.187 189.981 222.863 193.149 214.099C193.255 213.888 193.571 213.676 193.783 213.782C193.994 213.888 194.205 214.204 194.099 214.416C190.932 223.286 180.055 242.926 162.21 253.274H161.893ZM75.8337 152.96C72.6659 144.195 66.647 137.965 62.3177 133.425L61.1561 132.158V131.947C60.7337 128.356 62.9512 120.014 64.2184 115.791L53.7645 102.486V102.275C54.5037 92.0319 58.1995 81.0501 60.1002 76.7207L61.0505 77.1431C59.2554 81.4724 55.5596 92.1375 54.8205 102.169L65.2743 115.579L65.1687 115.791C63.9016 119.698 61.6841 128.04 62.0009 131.63L62.9512 132.686C67.3862 137.332 73.5107 143.667 76.6785 152.643L75.8337 152.96Z" fill="#252D37"/>
<path d="M117.86 22.3395C107.512 10.9353 98.8534 39.4458 89.1387 42.0856L83.0142 40.6073C83.2254 41.7689 83.2254 45.2535 82.5919 53.3842C81.5359 66.6891 79.424 86.3296 69.1814 80.522C58.9387 74.6087 42.2548 74.1863 33.8073 75.4534C24.4094 52.2227 51.7583 51.8003 66.4359 22.3395C78.2625 -1.31361 113.742 9.98497 117.86 22.3395Z" fill="#252D37"/>
<path d="M80.7967 38.9178C85.2317 33.6381 89.3499 38.7066 90.9338 41.8745C89.3499 45.9926 85.6541 53.9122 83.4366 52.8563C80.6911 51.5891 75.2002 45.5703 80.7967 38.9178Z" fill="#AD563A"/>
<path d="M79.1072 49.0547C75.8337 51.061 77.4176 55.7071 80.4799 55.8127C83.8589 55.9183 85.654 51.5889 83.2253 49.1603" stroke="white" stroke-width="0.687736" stroke-linecap="round"/>
<path d="M86.3931 48.6324H86.182C85.9708 48.5268 85.7596 48.21 85.8652 47.9988C87.6603 43.0359 85.654 40.8184 84.3869 40.2904C84.1757 40.1849 83.9645 39.8681 84.0701 39.6569C84.1757 39.4457 84.4925 39.2345 84.7036 39.3401C86.2876 39.9737 88.8218 42.6135 86.8155 48.21C86.7099 48.5268 86.6043 48.6324 86.3931 48.6324ZM129.053 175.134C128.736 175.134 128.525 174.923 128.525 174.606C128.525 172.6 129.37 159.929 130.215 156.022C130.32 155.705 130.532 155.599 130.848 155.599C131.165 155.705 131.271 155.916 131.271 156.233C130.426 160.034 129.687 172.706 129.687 174.606C129.476 174.923 129.264 175.134 129.053 175.134Z" fill="#252D37"/>
<path d="M172.981 68.9063C166.75 71.863 161.999 82.1056 158.936 91.7147C155.874 93.0874 147.744 100.901 147.321 103.119C147.004 104.808 151.334 106.603 154.502 107.976C153.868 110.194 153.129 114.101 153.234 120.542C153.446 131.735 158.197 133.319 166.434 136.487C168.968 137.437 167.806 141.555 167.067 143.034C176.148 150.636 191.037 149.052 195.472 146.096L205.187 137.543L217.013 80.3105C206.348 74.6084 182.59 64.4714 172.981 68.9063Z" fill="#FFBB95"/>
<path d="M161.999 114.629C159.359 114.629 156.825 114.101 155.135 113.151C154.924 113.045 154.818 112.728 154.924 112.517C155.029 112.306 155.346 112.2 155.557 112.306C159.359 114.312 167.384 114.101 170.974 110.933C171.185 110.722 171.502 110.827 171.713 110.933C171.925 111.144 171.819 111.461 171.713 111.672C169.39 113.679 165.589 114.629 161.999 114.629ZM174.776 92.1373C174.564 92.1373 174.459 92.0317 174.353 91.8205C173.614 90.131 170.446 87.28 167.067 87.9135C166.856 87.9135 166.539 87.8079 166.539 87.4912C166.539 87.1744 166.645 86.9632 166.962 86.9632C170.763 86.3296 174.459 89.4974 175.304 91.5037C175.409 91.7149 175.304 92.0317 175.092 92.1373H174.776Z" fill="#252D37"/>
<path d="M165.167 97.4172C166.328 97.6283 170.235 98.0507 172.03 98.2619C174.142 98.5787 170.446 94.3549 166.856 93.7213C163.583 93.1934 163.583 97.1004 165.167 97.4172Z" fill="white"/>
<mask id="mask1_10_481" style="mask-type:luminance" maskUnits="userSpaceOnUse" x="164" y="93" width="9" height="6">
<path d="M165.167 97.4172C166.328 97.6283 170.235 98.0507 172.03 98.2619C174.142 98.5787 170.446 94.3549 166.856 93.7213C163.583 93.1934 163.583 97.1004 165.167 97.4172Z" fill="white"/>
</mask>
<g mask="url(#mask1_10_481)">
<path d="M165.906 96.9947C166.839 96.9947 167.595 96.2383 167.595 95.3052C167.595 94.3721 166.839 93.6157 165.906 93.6157C164.973 93.6157 164.216 94.3721 164.216 95.3052C164.216 96.2383 164.973 96.9947 165.906 96.9947Z" fill="#252D37"/>
</g>
<path d="M73.1939 95.3049C73.0883 95.0937 72.7715 94.9881 72.5603 95.1993C72.3491 95.3049 72.2435 95.6217 72.4547 95.8329L73.1939 95.3049ZM101.704 97.5224C101.81 97.3112 101.704 96.9944 101.493 96.8888C101.282 96.7832 100.965 96.8888 100.86 97.1L101.704 97.5224ZM72.3491 95.8329C73.7219 98.0503 79.3183 103.647 88.1883 103.541V102.591C79.7407 102.696 74.461 97.3112 73.1939 95.3049L72.3491 95.8329ZM88.1883 103.647C96.9526 103.541 100.648 99.4231 101.704 97.5224L100.86 96.9944C100.015 98.5783 96.6358 102.485 88.1883 102.591V103.647ZM122.084 46.7315C121.978 46.7315 121.767 46.6259 121.767 46.5203C121.028 45.6756 119.655 45.8868 118.811 46.0979C118.599 46.2035 118.283 45.9924 118.177 45.7812C118.071 45.57 118.283 45.2532 118.494 45.1476C119.127 44.9364 121.239 44.514 122.401 45.8868C122.612 46.0979 122.612 46.4147 122.401 46.6259C122.295 46.6259 122.19 46.7315 122.084 46.7315ZM24.8317 175.451C24.6205 175.451 24.4093 175.345 24.3037 175.029C24.1981 174.817 24.4093 174.501 24.6205 174.395C27.366 173.761 33.1736 173.656 35.8135 173.656C36.1303 173.656 36.3415 173.867 36.3415 174.184C36.3415 174.501 36.1303 174.606 35.8135 174.712C33.1736 174.712 27.4715 174.817 24.8317 175.451C24.9373 175.451 24.9373 175.451 24.8317 175.451Z" fill="#252D37"/>
<path d="M26.0989 180.942C25.8877 180.942 25.7821 180.837 25.6765 180.731C25.5709 180.52 25.5709 180.203 25.7821 180.097C42.8884 168.693 61.0506 160.14 70.0261 157.606L70.3429 157.5L89.1387 175.346C89.3499 175.557 89.3499 175.874 89.1387 176.085C88.9275 176.296 88.6107 176.296 88.3995 176.085L70.0261 158.662C60.945 161.302 43.0996 169.749 26.3101 180.942H26.0989ZM165.589 68.4843C165.378 68.4843 165.167 68.2731 165.061 68.0619C164.955 67.7451 165.167 67.5339 165.483 67.5339C174.881 65.6332 193.36 57.9248 196.106 42.2969C196.106 41.9801 196.423 41.8745 196.634 41.8745C196.95 41.8745 197.056 42.1913 197.056 42.4025C194.205 58.5584 175.304 66.478 165.589 68.4843Z" fill="#252D37"/>
<path d="M184.174 77.8821C168.018 81.1555 163.899 78.1989 158.514 76.087C155.557 75.3478 150.806 72.2856 154.713 66.4779C158.62 60.5646 166.962 62.7821 170.657 64.5772C175.409 62.0429 183.434 58.136 192.304 62.8877C199.062 66.5835 202.441 65.8443 207.827 67.8506C230.952 76.8261 220.709 107.448 215.218 118.853C217.753 126.35 215.218 132.158 213.423 133.53C211.206 133.319 205.292 138.388 201.808 140.288C195.683 137.015 193.783 118.43 196.739 112.728L197.373 108.399C189.453 108.399 189.136 94.566 192.304 87.9135C193.783 84.7457 198.112 75.031 184.174 77.8821Z" fill="#542816"/>
<path d="M202.653 101.324C199.696 94.038 193.466 97.9449 190.615 100.796C190.826 105.759 191.882 115.685 194.733 115.368C198.112 115.051 206.243 110.511 202.653 101.324Z" fill="#FFBB95"/>
<path d="M193.783 108.927C193.466 108.927 193.255 108.716 193.255 108.399C193.149 102.169 196.422 100.479 198.218 100.479C198.534 100.479 198.745 100.691 198.745 101.007C198.745 101.324 198.534 101.535 198.218 101.535C196.739 101.535 194.099 103.119 194.205 108.505C194.205 108.716 193.994 108.927 193.783 108.927ZM194.416 147.891C194.311 147.891 194.205 147.891 194.099 147.786C193.888 147.575 193.888 147.258 194.099 147.047C197.162 143.562 207.615 133.425 215.641 132.263C215.852 132.263 216.169 132.369 216.169 132.686C216.169 133.003 216.063 133.214 215.746 133.214C208.883 134.27 199.273 142.612 194.838 147.68C194.627 147.786 194.522 147.891 194.416 147.891Z" fill="#252D37"/>
<path d="M186.497 100.585C186.919 95.3051 191.143 90.0254 192.621 87.1743L197.267 97.1002C193.149 97.417 190.615 102.063 189.77 104.281C187.869 103.964 186.285 102.485 186.497 100.585Z" fill="#542816"/>
<path d="M235.915 178.619H235.387C235.07 178.619 234.964 178.302 234.964 178.091C234.964 177.774 235.281 177.668 235.492 177.668C235.809 177.668 236.865 177.774 237.71 177.246C237.921 177.141 238.238 177.141 238.343 177.352C238.449 177.563 238.449 177.88 238.238 177.985C237.499 178.408 236.548 178.619 235.915 178.619Z" fill="#252D37"/>
<path d="M119.655 55.3905C120.289 55.0737 121.767 54.6513 122.929 55.0737" stroke="#AD563A" stroke-width="0.343815" stroke-linecap="round"/>
<path d="M152.495 105.759C151.439 105.125 152.812 105.125 154.396 105.442C156.825 106.076 154.185 107.131 152.495 105.759Z" fill="#EB8839"/>
<path d="M219.125 166.159C219.442 166.159 219.548 165.842 219.548 165.631C219.548 165.314 219.231 165.209 219.02 165.209L219.125 166.159ZM221.026 179.358C221.026 179.041 220.815 178.936 220.498 178.936C220.181 178.936 219.97 179.147 220.076 179.464L221.026 179.358ZM219.02 165.103C215.535 165.631 212.262 169.644 212.79 178.619L213.74 178.513C213.212 169.644 216.485 166.37 219.125 165.948L219.02 165.103ZM212.684 178.725C212.79 181.153 213.423 182.737 214.162 183.793C215.007 184.849 216.063 185.272 217.225 185.06C219.336 184.744 221.132 182.315 220.92 179.358L219.97 179.464C220.181 182.104 218.597 183.899 217.013 184.216C216.274 184.321 215.535 184.11 214.901 183.265C214.268 182.42 213.74 181.048 213.634 178.725H212.684ZM233.592 168.06C233.908 168.06 234.014 167.743 234.014 167.532C234.014 167.215 233.697 167.109 233.486 167.109L233.592 168.06ZM235.704 174.395C235.704 174.079 235.387 173.973 235.176 173.973C234.859 173.973 234.753 174.29 234.753 174.501L235.704 174.395ZM233.38 167.109C230.107 167.532 226.517 171.439 227.467 179.992L228.418 179.886C227.467 171.544 230.952 168.482 233.592 168.06L233.38 167.109ZM227.467 179.992C227.678 181.998 228.312 183.476 229.262 184.321C230.213 185.166 231.48 185.272 232.536 184.744C233.592 184.216 234.542 182.948 235.176 181.259C235.809 179.569 236.02 177.246 235.809 174.395L234.859 174.501C235.176 177.246 234.859 179.358 234.331 180.942C233.803 182.526 232.958 183.476 232.219 183.899C231.48 184.321 230.741 184.216 230.001 183.582C229.368 182.948 228.734 181.787 228.523 179.886L227.467 179.992Z" fill="#252D37"/>
<path d="M226.094 166.687C226.306 166.581 226.517 166.37 226.411 166.053C226.306 165.842 226.094 165.631 225.778 165.737L226.094 166.687ZM228.312 179.041C228.312 178.725 228.101 178.513 227.784 178.513C227.467 178.513 227.256 178.725 227.256 179.041H228.312ZM225.778 165.737C223.771 166.37 222.187 167.532 221.132 169.644C220.076 171.65 219.653 174.395 219.864 178.197L220.815 178.091C220.604 174.395 221.026 171.861 221.976 170.066C222.821 168.271 224.299 167.215 225.989 166.687L225.778 165.737ZM219.97 178.091C220.076 180.414 220.604 182.209 221.448 183.265C222.293 184.321 223.349 184.849 224.405 184.744C226.517 184.532 228.418 182.104 228.418 179.041H227.467C227.467 181.787 225.883 183.582 224.405 183.793C223.666 183.899 222.927 183.582 222.293 182.737C221.659 181.892 221.132 180.414 221.026 178.091H219.97ZM166.645 15.1591C166.434 15.0535 166.117 15.1591 166.011 15.3703C165.906 15.5815 166.011 15.8983 166.222 16.0039L166.645 15.1591ZM166.645 27.408C166.539 27.1968 166.222 27.0913 166.011 27.1969C165.8 27.3024 165.694 27.6192 165.8 27.8304L166.645 27.408ZM166.222 16.0039C166.962 16.4262 167.912 17.271 168.862 18.6437C169.813 19.9108 170.763 21.4948 171.502 23.0787C172.241 24.6626 172.664 26.2465 172.664 27.408C172.664 28.6752 172.241 29.4143 171.397 29.8367L171.819 30.7871C173.192 30.2591 173.72 28.8864 173.72 27.5136C173.72 26.0353 173.192 24.3458 172.453 22.7619C171.713 21.0724 170.763 19.4885 169.707 18.1157C168.757 16.743 167.701 15.6871 166.75 15.2647L166.222 16.0039ZM171.397 29.8367C170.341 30.2591 169.179 29.8367 168.229 29.0975C167.806 28.7808 167.384 28.3584 167.067 28.0416C166.962 27.8304 166.856 27.7248 166.75 27.6192C166.75 27.5136 166.645 27.5136 166.645 27.5136L165.8 27.936C165.906 28.1472 166.117 28.464 166.434 28.8864C166.75 29.3087 167.173 29.7311 167.701 30.1535C168.757 30.9982 170.235 31.6318 171.819 30.9982L171.397 29.8367Z" fill="#252D37"/>
<path d="M174.987 15.0536C174.776 14.8424 174.459 14.948 174.248 15.1592C174.036 15.3704 174.142 15.6872 174.353 15.8983L174.987 15.0536ZM173.508 25.9298C173.403 25.7186 173.192 25.5074 172.875 25.613C172.664 25.7186 172.453 25.9298 172.558 26.2466L173.508 25.9298ZM174.353 15.7928C174.881 16.2151 175.515 17.1655 176.148 18.2214C176.782 19.383 177.31 20.6501 177.627 22.0228C177.943 23.2899 178.049 24.5571 177.943 25.5074C177.732 26.4578 177.31 26.9857 176.571 27.3025L176.887 28.2529C178.155 27.9361 178.788 26.8802 178.999 25.7186C179.211 24.5571 179.105 23.1844 178.683 21.8116C178.366 20.4389 177.732 19.0662 177.099 17.799C176.465 16.6375 175.726 15.5816 174.987 15.0536L174.353 15.7928ZM176.571 27.3025C175.832 27.5137 175.092 27.3025 174.459 26.8802C174.142 26.669 173.931 26.4578 173.72 26.2466C173.614 26.141 173.614 26.0354 173.508 26.0354V25.9298L172.558 26.141C172.558 26.2466 172.664 26.4578 172.769 26.5634C172.875 26.669 172.98 26.7746 173.086 26.9857C173.297 27.1969 173.614 27.5137 174.036 27.7249C174.776 28.2529 175.832 28.5697 176.993 28.2529L176.571 27.3025Z" fill="#252D37"/>
<path d="M183.118 17.9044C183.012 17.6933 182.801 17.4821 182.484 17.5877C182.273 17.6933 182.062 17.9044 182.167 18.2212L183.118 17.9044ZM178.683 22.1282C178.683 21.8114 178.366 21.7058 178.155 21.7058C177.838 21.7058 177.732 22.0226 177.732 22.2338L178.683 22.1282ZM182.167 18.1156C182.378 18.8548 182.906 20.7555 183.012 22.445C183.012 23.2897 182.906 24.0289 182.695 24.5569C182.484 24.9793 181.956 25.296 181.217 25.296V26.2464C182.378 26.2464 183.118 25.7184 183.54 24.9793C183.962 24.2401 184.068 23.2897 184.068 22.3394C183.962 20.5443 183.434 18.538 183.223 17.7988L182.167 18.1156ZM181.111 25.296C180.266 25.296 179.739 24.6625 179.316 23.8177C179.105 23.3953 178.999 22.973 178.894 22.6562C178.894 22.5506 178.788 22.3394 178.788 22.2338V22.1282L178.26 22.2338L177.732 22.3394V22.445C177.732 22.5506 177.838 22.6562 177.838 22.8674C177.943 23.1842 178.049 23.7121 178.366 24.1345C178.788 25.0849 179.633 26.1408 181.111 26.1408V25.296ZM82.1694 185.905C82.0638 185.905 81.9582 185.905 81.8526 185.799L59.1498 162.885C58.9387 162.674 58.9387 162.357 59.1498 162.146C59.361 161.935 59.6778 161.935 59.889 162.146L82.4862 185.06C82.6974 185.271 82.6974 185.588 82.4862 185.799C82.3806 185.799 82.275 185.905 82.1694 185.905Z" fill="#252D37"/>
<path d="M165.061 167.637H201.174C203.075 167.637 204.659 169.221 204.659 171.122V191.502C204.659 193.402 203.075 194.986 201.174 194.986H165.061C163.16 194.986 161.576 193.402 161.576 191.502V171.122C161.576 169.221 163.16 167.637 165.061 167.637Z" fill="white"/>
<path d="M166.223 179.358H175.937C176.36 179.358 176.676 179.675 176.676 180.098V182.737C176.676 183.16 176.36 183.477 175.937 183.477H166.223C165.8 183.477 165.483 183.16 165.483 182.737V180.098C165.483 179.675 165.8 179.358 166.223 179.358Z" fill="#5FC69B"/>
<path d="M173.086 176.507V186.222C173.086 186.644 172.769 186.961 172.347 186.961H169.707C169.285 186.961 168.968 186.644 168.968 186.222V176.507C168.968 176.085 169.285 175.768 169.707 175.768H172.347C172.769 175.768 173.086 176.085 173.086 176.507Z" fill="#5FC69B"/>
<path d="M180.689 176.93H198.746M180.689 181.153H198.746M180.689 185.377H191.354" stroke="black" stroke-width="1.05594" stroke-linecap="round"/>
</g>
<defs>
<clipPath id="clip0_10_481">
<rect width="295.664" height="295.664" fill="white" transform="translate(0.122681 0.059082)"/>
</clipPath>
</defs>
</svg>
