<svg width="119" height="119" viewBox="0 0 119 119" fill="none" xmlns="http://www.w3.org/2000/svg">
<g clip-path="url(#clip0_10_423)">
<mask id="mask0_10_423" style="mask-type:luminance" maskUnits="userSpaceOnUse" x="0" y="0" width="119" height="119">
<path d="M0.649902 0.82666H118.632V118.809H0.649902V0.82666Z" fill="white"/>
</mask>
<g mask="url(#mask0_10_423)">
<path d="M59.3598 118.246C91.7843 118.246 118.07 91.9611 118.07 59.5365C118.07 27.112 91.7843 0.82666 59.3598 0.82666C26.9352 0.82666 0.649902 27.112 0.649902 59.5365C0.649902 91.9611 26.9352 118.246 59.3598 118.246Z" fill="white"/>
<path fill-rule="evenodd" clip-rule="evenodd" d="M38.582 59.1531C35.743 58.1502 29.8983 53.1065 29.2301 40.9488C28.8291 35.3373 26.0565 34.1575 24.7209 34.269C23.1061 33.9344 19.9777 34.8036 20.3787 40.9488C20.8792 48.6315 24.3864 59.8204 35.4094 60.8223L35.7329 60.9763L35.4103 61.1293C24.3873 62.1312 20.881 73.3201 20.3796 81.0019C19.9786 87.148 23.1079 88.0163 24.7209 87.6826C26.0575 87.7941 28.83 86.6134 29.231 81.0028C29.8992 68.8451 35.744 63.8014 38.5829 62.7985C38.8576 62.6501 39.1479 62.4796 39.4309 62.298L39.4844 62.2934L39.5406 62.298C39.8236 62.4796 40.1139 62.6501 40.3886 62.7985C43.2275 63.8014 49.0713 68.8451 49.7405 81.0028C50.1405 86.6143 52.9131 87.7941 54.2496 87.6826C55.8636 88.0172 58.992 87.148 58.591 81.0028C58.0905 73.3201 54.5833 62.1312 43.5612 61.1293L43.2367 60.9753L43.5594 60.8223C54.5824 59.8204 58.0896 48.6315 58.5901 40.9497C58.991 34.8027 55.8627 33.9353 54.2487 34.269C52.9122 34.1575 50.1396 35.3382 49.7396 40.9488C49.0713 53.1065 43.2257 58.1502 40.3867 59.1531C40.1121 59.3015 39.8226 59.472 39.5387 59.6536L39.4853 59.6582L39.4291 59.6536C39.153 59.476 38.8705 59.3096 38.582 59.1531ZM89.4912 40.9488C88.823 53.1074 82.9792 58.1502 80.1402 59.154C79.8655 59.3024 79.5752 59.4729 79.2922 59.6545C79.2738 59.656 79.2554 59.6575 79.2369 59.6591C79.2185 59.6575 79.2001 59.656 79.1816 59.6545C78.9053 59.4769 78.6224 59.3096 78.3336 59.1531C75.4947 58.1511 69.65 53.1074 68.9817 40.9497C68.5808 35.3382 65.8091 34.1584 64.4726 34.2699C62.8586 33.9353 59.7293 34.8045 60.1312 40.9497C60.6317 48.6324 64.1389 59.8213 75.161 60.8233L75.4855 60.9772L75.1629 61.1302C64.1371 62.1312 60.6308 73.321 60.1294 81.0028C59.7293 87.1489 62.8577 88.0172 64.4717 87.6835C65.8082 87.7941 68.5798 86.6143 68.9808 81.0028C69.649 68.8451 75.4947 63.8014 78.3336 62.7985C78.6083 62.6501 78.8977 62.4796 79.1816 62.298L79.2351 62.2934L79.2922 62.298C79.5743 62.4796 79.8646 62.6501 80.1393 62.7985C82.9782 63.8014 88.8239 68.8451 89.4912 81.0028C89.8922 86.6143 92.6647 87.7941 94.0003 87.6826C95.6152 88.0172 98.7436 87.148 98.3426 81.0028C97.8421 73.3201 94.3349 62.1312 83.3119 61.1293L82.9884 60.9753L83.311 60.8223C94.3331 59.8204 97.8403 48.6315 98.3417 40.9497C98.7427 34.8027 95.6143 33.9353 93.9994 34.269C92.6629 34.1575 89.8922 35.3382 89.4912 40.9488Z" fill="#1F6CD6"/>
<path d="M29.2301 40.9495L30.2624 40.8914V40.8749L29.2301 40.9495ZM38.582 59.1519L39.076 58.2431C39.0281 58.2171 38.9782 58.1949 38.9267 58.1767L38.582 59.1519ZM24.7209 34.2688L24.5108 35.2818C24.6085 35.302 24.708 35.3076 24.8057 35.3002L24.7209 34.2679V34.2688ZM35.4085 60.8221L35.8509 59.8875C35.741 59.8352 35.6227 59.8027 35.5016 59.7916L35.4085 60.8221ZM35.732 60.976L36.1744 61.9107C36.3516 61.827 36.5014 61.6946 36.6063 61.5291C36.7112 61.3635 36.7669 61.1716 36.7669 60.9756C36.7669 60.7796 36.7112 60.5876 36.6063 60.4221C36.5014 60.2565 36.3516 60.1242 36.1744 60.0405L35.732 60.976ZM35.4094 61.129L35.5025 62.1595C35.624 62.1485 35.7426 62.1161 35.8527 62.0637L35.4094 61.129ZM24.72 87.6824L24.8067 86.6519C24.708 86.6436 24.6087 86.6495 24.5117 86.6694L24.7209 87.6833L24.72 87.6824ZM29.2301 81.0026L30.2624 81.0763V81.0588L29.2301 81.0026ZM38.582 62.7983L38.9267 63.7744C38.9783 63.756 39.0281 63.7339 39.076 63.7081L38.582 62.7983ZM39.43 62.2978L39.3507 61.2655C39.179 61.2786 39.0133 61.3343 38.8686 61.4277L39.4291 62.2978H39.43ZM39.4834 62.2932L39.5618 61.2609C39.5096 61.2569 39.4573 61.2569 39.4051 61.2609L39.4834 62.2932ZM39.5397 62.2978L40.101 61.4277C39.9562 61.3347 39.7905 61.2792 39.6189 61.2664L39.5397 62.2978ZM40.3877 62.7983L39.8936 63.7081C39.9415 63.7339 39.9913 63.756 40.0429 63.7744L40.3877 62.7983ZM49.7396 81.0026L48.7063 81.0588L48.7072 81.0763L49.7396 81.0026ZM54.2487 87.6824L54.4579 86.6694C54.361 86.6492 54.2617 86.643 54.163 86.6509L54.2487 87.6824ZM43.5621 61.129L43.1197 62.0637C43.2285 62.1162 43.3474 62.1485 43.4681 62.1595L43.5621 61.129ZM43.2377 60.9751L42.7952 60.0405C42.618 60.1242 42.4683 60.2565 42.3634 60.4221C42.2585 60.5876 42.2028 60.7796 42.2028 60.9756C42.2028 61.1716 42.2585 61.3635 42.3634 61.5291C42.4683 61.6946 42.618 61.827 42.7952 61.9107L43.2377 60.9751ZM43.5603 60.8221L43.4672 59.7916C43.3464 59.8027 43.2275 59.8349 43.1178 59.8875L43.5603 60.8221ZM54.2487 34.2688L54.1621 35.2993C54.2616 35.3085 54.3612 35.302 54.4579 35.2808L54.2487 34.2688ZM49.7396 40.9486L48.7072 40.8749L48.7063 40.8924L49.7396 40.9486ZM40.3858 59.1538L40.0411 58.1767C39.9904 58.1952 39.9397 58.2182 39.8918 58.244L40.3858 59.1538ZM39.5378 59.6543L39.6171 60.6866C39.7885 60.6728 39.9544 60.6175 40.0992 60.5244L39.5387 59.6543H39.5378ZM39.4844 59.6589L39.406 60.6903C39.4586 60.694 39.5111 60.694 39.5627 60.6903L39.4844 59.6589ZM39.4281 59.6543L38.8677 60.5244C39.0124 60.6166 39.1783 60.6728 39.3498 60.6857L39.4281 59.6543ZM80.1384 59.1528L79.7937 58.1777C79.742 58.1961 79.6923 58.2182 79.6443 58.244L80.1384 59.1528ZM89.4912 40.9495L88.4589 40.8758V40.8933L89.4912 40.9495ZM79.2922 59.6533L79.3678 60.6857C79.5411 60.6728 79.7079 60.6175 79.8536 60.5235L79.2922 59.6533ZM79.2369 59.658L79.154 60.6894C79.2093 60.694 79.2646 60.694 79.319 60.6894L79.236 59.657L79.2369 59.658ZM79.1816 59.6533L78.6212 60.5235C78.7668 60.6175 78.9337 60.6728 79.106 60.6857L79.1816 59.6533ZM78.3336 59.1519L78.8277 58.2431C78.7797 58.2171 78.7298 58.1949 78.6784 58.1767L78.3336 59.1519ZM68.9808 40.9495L70.0131 40.8924V40.8758L68.9808 40.9495ZM64.4717 34.2697L64.2615 35.2827C64.3592 35.303 64.4588 35.3085 64.5574 35.3011L64.4717 34.2697ZM75.1592 60.8221L75.6016 59.8875C75.492 59.8353 75.3741 59.8028 75.2532 59.7916L75.1592 60.8221ZM75.4836 60.976L75.9261 61.9107C76.103 61.8267 76.2524 61.6943 76.3571 61.5287C76.4617 61.3632 76.5173 61.1714 76.5173 60.9756C76.5173 60.7797 76.4617 60.5879 76.3571 60.4224C76.2524 60.2569 76.103 60.1245 75.9261 60.0405L75.4836 60.976ZM75.161 61.129L75.2532 62.1595C75.3747 62.1485 75.4933 62.1161 75.6035 62.0637L75.161 61.129ZM64.4717 87.6833L64.5574 86.6509C64.4587 86.6429 64.3594 86.6491 64.2624 86.6694L64.4717 87.6833ZM68.9808 81.0026L70.0131 81.0763L70.014 81.0597L68.9808 81.0026ZM78.3336 62.7983L78.6774 63.7753C78.729 63.7569 78.7788 63.7348 78.8268 63.7081L78.3336 62.7983ZM79.1816 62.2978L79.1024 61.2655C78.9307 61.2786 78.765 61.3344 78.6203 61.4277L79.1816 62.2978ZM79.2351 62.2932L79.3171 61.2618C79.2637 61.2576 79.2101 61.2576 79.1567 61.2618L79.2351 62.2932ZM79.2922 62.2978L79.8526 61.4277C79.7069 61.3338 79.5398 61.278 79.3669 61.2655L79.2922 62.2978ZM80.1393 62.7983L79.6453 63.7081C79.6932 63.7339 79.743 63.756 79.7946 63.7744L80.1393 62.7983ZM89.4912 81.0026L88.4589 81.0588V81.0763L89.4912 81.0026ZM94.0003 87.6824L94.2105 86.6694C94.1133 86.6491 94.0136 86.6429 93.9146 86.6509L94.0003 87.6824ZM83.3128 61.129L82.8704 62.0637C82.9801 62.1162 83.0981 62.1485 83.2197 62.1595L83.3128 61.129ZM82.9893 60.9751L82.5469 60.0405C82.37 60.1245 82.2205 60.2569 82.1159 60.4224C82.0112 60.5879 81.9557 60.7797 81.9557 60.9756C81.9557 61.1714 82.0112 61.3632 82.1159 61.5287C82.2205 61.6943 82.37 61.8267 82.5469 61.9107L82.9893 60.9751ZM83.3119 60.8221L83.2179 59.7916C83.0981 59.8027 82.9782 59.8349 82.8695 59.8875L83.3119 60.8221ZM94.0003 34.2688L93.9146 35.2993C94.0132 35.3085 94.1128 35.302 94.2105 35.2808L94.0003 34.2688ZM28.1968 41.0048C28.8817 53.4685 34.9089 58.9519 38.2382 60.1271L38.9267 58.1767C36.5763 57.3472 30.9141 52.7431 30.2624 40.8914L28.1968 41.0048ZM24.8067 35.2993C25.1385 35.2716 25.8602 35.4016 26.5672 36.1648C27.2714 36.9243 28.0088 38.3723 28.1977 41.0223L30.2624 40.8749C30.0504 37.9115 29.2015 35.9639 28.0853 34.7582C26.9718 33.5563 25.6381 33.1526 24.6343 33.2364L24.8067 35.2984V35.2993ZM21.411 40.8804C21.2202 37.9613 21.8857 36.5556 22.5291 35.9058C22.7816 35.6453 23.0949 35.4518 23.4409 35.3427C23.7869 35.2336 24.1546 35.2133 24.5108 35.2818L24.9302 33.254C24.2364 33.1157 23.519 33.1526 22.8431 33.3613C22.1671 33.57 21.5539 33.944 21.0589 34.4494C19.8339 35.6873 19.1352 37.7889 19.3463 41.0159L21.411 40.8804ZM35.5025 59.7907C30.3878 59.3261 27.0225 56.5213 24.8371 52.8592C22.6314 49.1631 21.6553 44.6217 21.411 40.8804L19.3463 41.0159C19.6035 44.9572 20.6312 49.8507 23.06 53.9192C25.509 58.0246 29.408 61.3152 35.3154 61.8517L35.5025 59.7907ZM36.1753 60.0396L35.8527 59.8865L34.966 61.7567L35.2905 61.9097L36.1753 60.0396ZM35.8527 62.0637L36.1753 61.9097L35.2905 60.0396L34.9679 60.1926L35.8527 62.0637ZM21.4119 81.0689C21.6562 77.3276 22.6323 72.7862 24.838 69.0901C27.0225 65.428 30.3887 62.6232 35.5034 62.1586L35.3163 60.0976C29.4089 60.6341 25.5099 63.9247 23.0609 68.0291C20.6321 72.0986 19.6044 76.993 19.3463 80.9334L21.4119 81.0689ZM24.5117 86.6685C24.1555 86.7369 23.7878 86.7156 23.4419 86.6065C23.0959 86.4974 22.7825 86.3039 22.53 86.0435C21.8875 85.3937 21.2211 83.9881 21.4119 81.0689L19.3472 80.9344C19.1362 84.1604 19.8358 86.262 21.0598 87.4999C21.5548 88.0053 22.1681 88.3793 22.844 88.588C23.52 88.7967 24.2373 88.8336 24.9311 88.6954L24.5117 86.6685ZM28.1986 80.9279C28.0097 83.577 27.2723 85.0241 26.5672 85.7845C25.8611 86.5477 25.1403 86.6786 24.8076 86.6509L24.6361 88.7129C25.639 88.7958 26.9727 88.393 28.0862 87.1911C29.2024 85.9855 30.0513 84.0378 30.2633 81.0754L28.1986 80.9279ZM38.2391 61.8222C34.9098 62.9974 28.8826 68.4817 28.1977 80.9454L30.2643 81.0588C30.915 69.2071 36.5772 64.604 38.9267 63.7744L38.2391 61.8222ZM38.8696 61.4268C38.6115 61.5936 38.3442 61.7503 38.0898 61.8876L39.076 63.7081C39.3719 63.5477 39.6844 63.3633 39.9913 63.1661L38.8696 61.4268ZM39.4051 61.2609L39.3516 61.2645L39.5083 63.3283L39.5636 63.3237L39.4051 61.2609ZM39.6199 61.2655L39.5618 61.2609L39.406 63.3246L39.4622 63.3283L39.6189 61.2664L39.6199 61.2655ZM40.8817 61.8886C40.6273 61.7503 40.3591 61.5936 40.101 61.4277L38.9802 63.1661C39.2862 63.3643 39.5996 63.5468 39.8945 63.7071L40.8817 61.8886ZM50.7728 80.9445C50.0889 68.4808 44.0608 62.9974 40.7324 61.8222L40.0439 63.7735C42.3934 64.6031 48.0556 69.2062 48.7072 81.0579L50.7728 80.9445ZM54.163 86.6509C53.8312 86.6786 53.1104 86.5477 52.4025 85.7845C51.6992 85.0241 50.9618 83.577 50.7719 80.927L48.7082 81.0745C48.9202 84.0378 49.7682 85.9855 50.8853 87.1911C51.9988 88.393 53.3316 88.7967 54.3354 88.7129L54.163 86.6509ZM57.5587 81.0689C57.7495 83.9881 57.084 85.3937 56.4406 86.0435C56.188 86.3039 55.8747 86.4974 55.5287 86.6065C55.1828 86.7156 54.8151 86.7369 54.4589 86.6685L54.0395 88.6954C54.7333 88.8336 55.4506 88.7967 56.1266 88.588C56.8025 88.3793 57.4157 88.0053 57.9108 87.4999C59.1367 86.262 59.8344 84.1604 59.6243 80.9344L57.5587 81.0689ZM43.4672 62.1586C48.5828 62.6232 51.9481 65.428 54.1335 69.0901C56.3392 72.7862 57.3153 77.3276 57.5587 81.0689L59.6243 80.9344C59.368 76.993 58.3384 72.0986 55.9106 68.0301C53.4606 63.9247 49.5617 60.6341 43.6543 60.0976L43.4672 62.1586ZM42.7943 61.9097L43.1178 62.0628L44.0036 60.1926L43.6801 60.0396L42.7943 61.9097ZM43.1169 59.8865L42.7943 60.0396L43.6801 61.9097L44.0027 61.7567L43.1169 59.8865ZM57.5577 40.8804C57.3135 44.6217 56.3383 49.1631 54.1326 52.8592C51.9481 56.5213 48.581 59.3261 43.4663 59.7907L43.6534 61.8517C49.5617 61.3152 53.4606 58.0246 55.9097 53.9202C58.3375 49.8507 59.3653 44.9563 59.6224 41.0159L57.5577 40.8804ZM54.4579 35.2808C54.8142 35.2124 55.1818 35.2337 55.5278 35.3428C55.8737 35.4519 56.1871 35.6454 56.4397 35.9058C57.083 36.5556 57.7485 37.9613 57.5577 40.8804L59.6224 41.0159C59.8335 37.7898 59.1348 35.6873 57.9108 34.4504C57.4158 33.9448 56.8026 33.5706 56.1267 33.3617C55.4507 33.1528 54.7333 33.1158 54.0395 33.254L54.4579 35.2808ZM50.771 41.0214C50.9609 38.3723 51.6983 36.9243 52.4025 36.1648C53.1085 35.4016 53.8302 35.2707 54.163 35.2984L54.3344 33.2364C53.3297 33.1535 51.9978 33.5563 50.8835 34.7582C49.7682 35.9639 48.9183 37.9124 48.7072 40.8749L50.771 41.0214ZM40.7315 60.128C44.0599 58.9528 50.0871 53.4694 50.7719 41.0057L48.7063 40.8924C48.0547 52.744 42.3915 57.3472 40.0411 58.1767L40.7315 60.128ZM40.1001 60.5235C40.3591 60.3566 40.6264 60.199 40.8808 60.0617L39.8927 58.2431C39.5977 58.4035 39.2853 58.586 38.9793 58.7842L40.1001 60.5235ZM39.5646 60.6894L39.618 60.6857L39.4613 58.6219L39.4069 58.6256L39.5636 60.6894H39.5646ZM39.3507 60.6848L39.4069 60.6894L39.5636 58.6256L39.5083 58.6219L39.3507 60.6848ZM38.0879 60.0617C38.3423 60.1999 38.6096 60.3566 38.8686 60.5225L39.9895 58.7842C39.6918 58.5925 39.3871 58.4121 39.076 58.2431L38.0879 60.0617ZM80.4831 60.128C83.8124 58.9528 89.8387 53.4694 90.5245 41.0057L88.458 40.8924C87.8072 52.744 82.1441 57.3472 79.7946 58.1767L80.4831 60.128ZM79.8536 60.5235C80.1117 60.3566 80.378 60.199 80.6324 60.0617L79.6453 58.2431C79.3503 58.4035 79.0369 58.586 78.7309 58.7842L79.8536 60.5235ZM79.319 60.6894L79.3678 60.6857L79.2166 58.621L79.154 58.6265L79.319 60.6894ZM79.106 60.6857L79.154 60.6894L79.3171 58.6265C79.2965 58.6249 79.2759 58.6234 79.2554 58.6219L79.106 60.6857ZM77.8396 60.0617C78.0931 60.1999 78.3613 60.3566 78.6203 60.5225L79.7411 58.7842C79.4431 58.5925 79.1391 58.412 78.8277 58.2431L77.8396 60.0617ZM67.9475 41.0057C68.6324 53.4694 74.6596 58.9528 77.9889 60.128L78.6784 58.1767C76.3289 57.3472 70.6648 52.744 70.0131 40.8924L67.9475 41.0057ZM64.5574 35.3011C64.8892 35.2735 65.6109 35.4025 66.3179 36.1657C67.0221 36.9252 67.7595 38.3733 67.9494 41.0233L70.0131 40.8758C69.8011 37.9124 68.9531 35.9648 67.836 34.7591C66.7225 33.5572 65.3897 33.1535 64.3859 33.2374L64.5574 35.2993V35.3011ZM61.1617 40.8813C60.9718 37.9622 61.6373 36.5565 62.2798 35.9067C62.5323 35.6463 62.8457 35.4529 63.1917 35.3438C63.5376 35.2347 63.9053 35.2143 64.2615 35.2827L64.6809 33.2549C63.9871 33.1166 63.2698 33.1535 62.5938 33.3622C61.9179 33.571 61.3046 33.945 60.8096 34.4504C59.5846 35.6883 58.8869 37.7898 59.097 41.0168L61.1617 40.8813ZM75.2532 59.7916C70.1385 59.3271 66.7732 56.5222 64.5878 52.8602C62.3821 49.164 61.406 44.6226 61.1617 40.8813L59.097 41.0168C59.3542 44.9581 60.3819 49.8516 62.8107 53.9202C65.2597 58.0256 69.1587 61.3162 75.0661 61.8526L75.2532 59.7916ZM75.9261 60.0405L75.6016 59.8875L74.7177 61.7577L75.0412 61.9107L75.9261 60.0405ZM75.6035 62.0637L75.9261 61.9107L75.0412 60.0405L74.7186 60.1935L75.6035 62.0646V62.0637ZM61.1617 81.0698C61.406 77.3294 62.3821 72.7871 64.5878 69.091C66.7723 65.4299 70.1385 62.6241 75.2532 62.1595L75.067 60.0985C69.1587 60.6359 65.2597 63.9256 62.8107 68.0301C60.3819 72.1005 59.3542 76.9939 59.097 80.9353L61.1617 81.0698ZM64.2624 86.6694C63.9062 86.7378 63.5385 86.7165 63.1926 86.6074C62.8466 86.4983 62.5332 86.3048 62.2807 86.0444C61.6373 85.3946 60.9709 83.989 61.1617 81.0698L59.097 80.9353C58.885 84.1613 59.5855 86.2629 60.8096 87.5008C61.3046 88.0062 61.9179 88.3802 62.5938 88.5889C63.2698 88.7977 63.9871 88.8346 64.6809 88.6963L64.2624 86.6694ZM67.9494 80.9288C67.7595 83.5779 67.0221 85.0259 66.3179 85.7864C65.6109 86.5486 64.8901 86.6786 64.5574 86.6509L64.3859 88.7138C65.3897 88.7977 66.7225 88.3939 67.836 87.192C68.9522 85.9864 69.8011 84.0388 70.0131 81.0763L67.9494 80.9288ZM77.9889 61.8231C74.6605 62.9983 68.6333 68.4817 67.9475 80.9454L70.014 81.0597C70.6657 69.2071 76.3279 64.604 78.6784 63.7744L77.9889 61.8231ZM78.6203 61.4277C78.3613 61.5945 78.094 61.7521 77.8396 61.8895L78.8268 63.7081C79.1217 63.5477 79.4351 63.3643 79.7411 63.167L78.6203 61.4277ZM79.1567 61.2618L79.1024 61.2655L79.259 63.3292L79.3144 63.3246L79.1567 61.2618ZM79.3669 61.2655L79.3171 61.2618L79.153 63.3246L79.2176 63.3292L79.3669 61.2655ZM80.6324 61.8895C80.379 61.7512 80.1117 61.5936 79.8526 61.4277L78.7318 63.167C79.0378 63.3652 79.3503 63.5477 79.6453 63.7081L80.6324 61.8895ZM90.5245 80.9454C89.8396 68.4817 83.8124 62.9983 80.4831 61.8231L79.7946 63.7744C82.145 64.604 87.8072 69.2071 88.4589 81.0588L90.5245 80.9454ZM93.9146 86.6509C93.5819 86.6786 92.8611 86.5486 92.1541 85.7854C91.4499 85.025 90.7125 83.5779 90.5236 80.9279L88.4589 81.0763C88.6709 84.0397 89.5198 85.9864 90.636 87.192C91.7495 88.3939 93.0832 88.7977 94.087 88.7138L93.9146 86.6509ZM97.3103 81.0698C97.5011 83.989 96.8356 85.3946 96.1922 86.0444C95.9397 86.3048 95.6263 86.4983 95.2803 86.6074C94.9344 86.7165 94.5667 86.7378 94.2105 86.6694L93.7911 88.6963C94.4849 88.8346 95.2023 88.7978 95.8782 88.5891C96.5542 88.3803 97.1674 88.0063 97.6624 87.5008C98.8874 86.2629 99.5861 84.1613 99.375 80.9353L97.3103 81.0698ZM83.2197 62.1595C88.3344 62.6241 91.6997 65.428 93.8851 69.0901C96.0908 72.7862 97.067 77.3276 97.3112 81.0689L99.3759 80.9344C99.1187 76.993 98.091 72.0986 95.6622 68.0301C93.2132 63.9247 89.3142 60.6341 83.4068 60.0976L83.2197 62.1595ZM82.5469 61.9097L82.8695 62.0628L83.7562 60.1926L83.4317 60.0396L82.5469 61.9097ZM82.8695 59.8875L82.5469 60.0405L83.4317 61.9097L83.7543 61.7567L82.8695 59.8856V59.8875ZM97.3103 40.8804C97.066 44.6217 96.0899 49.1631 93.8842 52.8592C91.6997 56.5213 88.3335 59.3271 83.2179 59.7916L83.4059 61.8517C89.3133 61.3152 93.2123 58.0246 95.6613 53.9202C98.0901 49.8507 99.1178 44.9563 99.375 41.0159L97.3103 40.8804ZM94.2105 35.2808C94.5667 35.2124 94.9344 35.2337 95.2803 35.3428C95.6263 35.4519 95.9397 35.6454 96.1922 35.9058C96.8347 36.5556 97.5002 37.9613 97.3103 40.8804L99.375 41.0159C99.5851 37.7898 98.8874 35.6873 97.6624 34.4504C97.1675 33.9447 96.5543 33.5705 95.8784 33.3616C95.2024 33.1527 94.485 33.1157 93.7911 33.254L94.2105 35.2808ZM90.5236 41.0214C90.7125 38.3723 91.4499 36.9243 92.155 36.1648C92.8611 35.4016 93.5819 35.2707 93.9146 35.2984L94.0861 33.2364C93.0823 33.1535 91.7495 33.5563 90.636 34.7582C89.5198 35.9639 88.6709 37.9115 88.4589 40.8739L90.5236 41.0214Z" fill="#1F6CD6"/>
<path fill-rule="evenodd" clip-rule="evenodd" d="M54.3778 35.2848C54.9134 35.1805 55.4686 35.2882 55.9264 35.5852C56.4379 35.918 57.0297 36.6194 57.3025 38.1071C57.327 38.2407 57.3776 38.3682 57.4514 38.4823C57.5252 38.5964 57.6207 38.6948 57.7325 38.772C57.8444 38.8491 57.9703 38.9035 58.1031 38.932C58.236 38.9605 58.3731 38.9626 58.5068 38.9381C58.6404 38.9135 58.7679 38.8629 58.882 38.7892C58.996 38.7154 59.0945 38.6199 59.1716 38.508C59.2488 38.3962 59.3032 38.2703 59.3317 38.1374C59.3602 38.0046 59.3622 37.8674 59.3377 37.7338C58.9856 35.8129 58.1394 34.5557 57.0518 33.8496C56.136 33.2554 55.0239 33.0436 53.9538 33.2597C53.6933 33.3238 53.4679 33.4865 53.325 33.7136C53.1821 33.9407 53.133 34.2144 53.188 34.477C53.2429 34.7396 53.3977 34.9706 53.6197 35.1213C53.8417 35.272 54.1135 35.3306 54.3778 35.2848ZM50.7499 41.0087C50.7573 40.873 50.7379 40.7372 50.6928 40.609C50.6477 40.4809 50.5777 40.3628 50.487 40.2616C50.3963 40.1605 50.2865 40.0782 50.164 40.0194C50.0415 39.9607 49.9085 39.9266 49.7729 39.9192C49.6372 39.9119 49.5013 39.9313 49.3732 39.9764C49.245 40.0215 49.1269 40.0914 49.0258 40.1821C48.9246 40.2728 48.8423 40.3826 48.7835 40.5051C48.7248 40.6277 48.6907 40.7606 48.6834 40.8963C48.2354 49.1541 45.3789 53.9149 42.9004 56.3095C42.703 56.5002 42.5894 56.7615 42.5847 57.0359C42.5799 57.3103 42.6844 57.5754 42.8751 57.7728C43.0657 57.9702 43.327 58.0837 43.6014 58.0885C43.8758 58.0933 44.1409 57.9888 44.3383 57.7981C47.2418 54.9924 50.278 49.7145 50.7499 41.0078V41.0087ZM90.5227 80.929C90.7117 83.579 91.4491 85.0262 92.1533 85.7866C92.8603 86.5489 93.581 86.6807 93.9138 86.653C94.0492 86.6418 94.1855 86.6573 94.3148 86.6987C94.4442 86.7401 94.5642 86.8066 94.6679 86.8944C94.7716 86.9821 94.857 87.0895 94.9192 87.2102C94.9814 87.331 95.0192 87.4629 95.0305 87.5983C95.0417 87.7336 95.0262 87.8699 94.9848 87.9993C94.9434 88.1287 94.8769 88.2487 94.7891 88.3524C94.7014 88.4561 94.594 88.5414 94.4732 88.6037C94.3525 88.6659 94.2206 88.7037 94.0852 88.7149C93.0815 88.7979 91.7486 88.3951 90.6352 87.1922C89.519 85.9875 88.6691 84.0399 88.458 81.0765C88.4461 80.9397 88.4614 80.8019 88.5032 80.6711C88.545 80.5402 88.6124 80.419 88.7015 80.3145C88.7906 80.21 88.8997 80.1243 89.0222 80.0623C89.1448 80.0004 89.2785 79.9634 89.4155 79.9536C89.5524 79.9438 89.69 79.9614 89.8201 80.0053C89.9503 80.0492 90.0704 80.1186 90.1734 80.2094C90.2765 80.3002 90.3604 80.4106 90.4204 80.5341C90.4804 80.6577 90.5152 80.7919 90.5227 80.929ZM99.3742 80.9364C99.3878 81.2079 99.2941 81.4739 99.1132 81.6769C98.9324 81.8799 98.6789 82.0036 98.4076 82.0212C98.1364 82.0389 97.869 81.9492 97.6634 81.7714C97.4577 81.5935 97.3303 81.342 97.3085 81.071C97.1187 78.1528 96.4818 74.7313 95.1526 71.6048C93.8225 68.4773 91.8279 65.7066 88.9567 63.9793C88.7299 63.8339 88.5686 63.6058 88.5073 63.3435C88.4459 63.0811 88.4893 62.8052 88.6281 62.5743C88.767 62.3434 88.9904 62.1758 89.2509 62.107C89.5114 62.0382 89.7884 62.0736 90.0232 62.2059C93.3801 64.2245 95.6153 67.4044 97.0569 70.7946C98.4976 74.1847 99.1723 77.8458 99.3742 80.9364ZM95.6752 35.5852C95.2178 35.2884 94.6629 35.1807 94.1276 35.2848C93.8612 35.3354 93.5855 35.2795 93.3599 35.129C93.1342 34.9784 92.9767 34.7454 92.9211 34.4799C92.8656 34.2144 92.9165 33.9378 93.0628 33.7094C93.2091 33.481 93.4392 33.3192 93.7036 33.2588C94.7741 33.0427 95.8866 33.2548 96.8025 33.8496C97.8902 34.5557 98.7354 35.8129 99.0875 37.7338C99.112 37.8674 99.11 38.0046 99.0815 38.1374C99.053 38.2703 98.9986 38.3962 98.9214 38.508C98.8443 38.6199 98.7458 38.7154 98.6318 38.7892C98.5177 38.8629 98.3902 38.9135 98.2565 38.9381C98.1229 38.9626 97.9858 38.9605 97.8529 38.932C97.7201 38.9035 97.5942 38.8491 97.4823 38.772C97.3705 38.6948 97.275 38.5964 97.2012 38.4823C97.1274 38.3682 97.0768 38.2407 97.0523 38.1071C96.7795 36.6194 96.1877 35.918 95.6752 35.5852ZM89.5227 39.9192C89.6583 39.9265 89.7912 39.9605 89.9137 40.0192C90.0362 40.0778 90.1459 40.1601 90.2367 40.2611C90.3274 40.3622 90.3973 40.4802 90.4424 40.6083C90.4876 40.7364 90.507 40.8722 90.4997 41.0078C90.0278 49.7145 86.9916 54.9924 84.0881 57.7981C83.9911 57.8962 83.8755 57.974 83.7481 58.0267C83.6206 58.0795 83.4839 58.1063 83.346 58.1055C83.208 58.1047 83.0716 58.0764 82.9448 58.0221C82.818 57.9679 82.7033 57.8888 82.6075 57.7896C82.5116 57.6904 82.4366 57.573 82.3867 57.4444C82.3369 57.3157 82.3133 57.1784 82.3173 57.0406C82.3213 56.9027 82.3528 56.767 82.4099 56.6414C82.4671 56.5159 82.5488 56.403 82.6502 56.3095C85.1287 53.9149 87.9852 49.1541 88.4332 40.8963C88.4482 40.6223 88.5713 40.3654 88.7756 40.1822C88.9799 39.999 89.2486 39.9044 89.5227 39.9192ZM61.1093 84.3588C61.0869 84.2218 61.0371 84.0907 60.963 83.9733C60.8889 83.8559 60.7919 83.7546 60.6778 83.6754C60.5638 83.5963 60.4349 83.5409 60.299 83.5126C60.1631 83.4842 60.0229 83.4835 59.8867 83.5105C59.7505 83.5374 59.6211 83.5915 59.5062 83.6695C59.3914 83.7475 59.2934 83.8478 59.2181 83.9645C59.1428 84.0811 59.0917 84.2117 59.0679 84.3485C59.0441 84.4853 59.0481 84.6255 59.0796 84.7607C59.4326 86.5433 60.3424 87.6503 61.4356 88.2375C62.3234 88.7091 63.3445 88.8673 64.3335 88.6864C64.595 88.6254 64.8227 88.4653 64.9683 88.2396C65.114 88.014 65.1662 87.7406 65.1141 87.4772C65.0619 87.2138 64.9094 86.9809 64.6888 86.8278C64.4681 86.6747 64.1966 86.6134 63.9316 86.6567C63.4134 86.7445 62.8807 86.6596 62.4154 86.4152C61.9121 86.1451 61.3526 85.5866 61.1093 84.3588ZM20.5668 83.5449C20.836 83.4915 21.1155 83.5473 21.3437 83.6999C21.5718 83.8525 21.73 84.0896 21.7835 84.3588C22.0259 85.5875 22.5854 86.1451 23.0886 86.4143C23.5539 86.659 24.0866 86.7442 24.6049 86.6567C24.8699 86.6134 25.1414 86.6747 25.3621 86.8278C25.5827 86.9809 25.7352 87.2138 25.7874 87.4772C25.8395 87.7406 25.7872 88.014 25.6416 88.2396C25.496 88.4653 25.2683 88.6254 25.0068 88.6864C24.0178 88.8676 22.9966 88.7094 22.1088 88.2375C21.0157 87.6503 20.1059 86.5433 19.7529 84.7607C19.6998 84.4916 19.7556 84.2123 19.9082 83.9844C20.0608 83.7564 20.2977 83.5984 20.5668 83.5449ZM28.1987 41.0253C28.0098 38.3763 27.2715 36.9291 26.5673 36.1687C25.8612 35.4055 25.1404 35.2746 24.8068 35.3023C24.5386 35.3155 24.2758 35.224 24.0739 35.0471C23.8719 34.8702 23.7466 34.6217 23.7243 34.3542C23.7021 34.0866 23.7846 33.8209 23.9546 33.6131C24.1246 33.4053 24.3687 33.2716 24.6353 33.2404C25.64 33.1574 26.9728 33.5602 28.0863 34.7621C29.2016 35.9678 30.0514 37.9154 30.2625 40.8778C30.2771 41.016 30.2637 41.1556 30.2232 41.2885C30.1827 41.4213 30.1159 41.5446 30.0267 41.6511C29.9376 41.7576 29.8279 41.8451 29.7042 41.9083C29.5806 41.9715 29.4454 42.0092 29.3069 42.0191C29.1684 42.029 29.0293 42.0109 28.8979 41.9659C28.7665 41.9209 28.6455 41.8499 28.5421 41.7572C28.4387 41.6645 28.355 41.5519 28.296 41.4262C28.237 41.3004 28.2039 41.1641 28.1987 41.0253ZM19.3473 41.0189C19.3388 40.7504 19.4349 40.4892 19.6154 40.2904C19.7959 40.0915 20.0466 39.9705 20.3146 39.9531C20.5826 39.9356 20.8469 40.023 21.0516 40.1967C21.2564 40.3705 21.3856 40.617 21.412 40.8843C21.6028 43.8025 22.2397 47.224 23.5689 50.3505C24.898 53.477 26.8926 56.2487 29.7638 57.976C29.9873 58.1229 30.1453 58.3505 30.2047 58.6112C30.2641 58.872 30.2202 59.1456 30.0824 59.3747C29.9445 59.6039 29.7233 59.7708 29.4651 59.8404C29.207 59.9101 28.9318 59.8772 28.6974 59.7485C25.3404 57.7299 23.1052 54.5499 21.6646 51.1607C20.223 47.7706 19.5483 44.1094 19.3473 41.0189ZM68.9256 82.0361C68.7899 82.0287 68.6569 81.9948 68.5343 81.936C68.4118 81.8773 68.302 81.795 68.2112 81.6938C68.1205 81.5926 68.0506 81.4746 68.0055 81.3463C67.9604 81.2181 67.9411 81.0823 67.9485 80.9466C68.4223 72.332 71.4382 67.0745 74.35 64.2457C74.5484 64.0624 74.8105 63.9639 75.0805 63.9713C75.3505 63.9786 75.6069 64.0912 75.7951 64.285C75.9832 64.4787 76.0881 64.7384 76.0875 65.0085C76.0868 65.2786 75.9806 65.5377 75.7916 65.7306C73.2992 68.151 70.4639 72.897 70.0151 81.059C70.0001 81.333 69.8769 81.5899 69.6726 81.7731C69.4683 81.9563 69.1996 82.0509 68.9256 82.0361ZM28.1987 80.9466C28.1943 81.2142 28.2936 81.4732 28.476 81.6692C28.6584 81.8651 28.9097 81.9828 29.177 81.9975C29.4443 82.0121 29.7069 81.9227 29.9096 81.7479C30.1124 81.573 30.2395 81.3265 30.2643 81.0599C30.7132 72.897 33.5485 68.151 36.0409 65.7306C36.1383 65.6359 36.2161 65.523 36.2699 65.3983C36.3237 65.2735 36.3524 65.1394 36.3544 65.0036C36.3564 64.8677 36.3316 64.7328 36.2814 64.6066C36.2313 64.4803 36.1567 64.3652 36.0621 64.2678C35.9674 64.1703 35.8545 64.0925 35.7297 64.0387C35.605 63.9849 35.4709 63.9562 35.3351 63.9542C35.1992 63.9523 35.0643 63.9771 34.9381 64.0272C34.8118 64.0774 34.6967 64.1519 34.5993 64.2466C31.6875 67.0735 28.6725 72.332 28.1987 80.9466Z" fill="#252D37"/>
<path d="M78.8664 43.3583C77.3596 43.7323 75.984 44.512 74.8892 45.6129C73.8323 46.6751 73.1133 48.0262 72.8226 49.4961L72.3682 51.8466L71.9138 49.4961C71.6231 48.0262 70.9041 46.6751 69.8473 45.6129C68.7527 44.5122 67.3775 43.7324 65.8709 43.3583C67.3778 42.9849 68.7534 42.2054 69.8482 41.1047C70.9053 40.0421 71.6241 38.6902 71.9138 37.2196L72.3682 34.8691L72.8226 37.2196C73.1123 38.6902 73.8311 40.0421 74.8882 41.1047C75.9832 42.2056 77.3592 42.9851 78.8664 43.3583ZM33.0857 57.2737C31.579 57.6475 30.2034 58.4269 29.1085 59.5274C28.0516 60.5896 27.3326 61.9407 27.0419 63.4107L26.5875 65.7611L26.1331 63.4107C25.8423 61.9407 25.1233 60.5896 24.0666 59.5274C22.972 58.4267 21.5967 57.6469 20.0902 57.2728C21.5971 56.8995 22.9728 56.12 24.0675 55.0192C25.1245 53.9569 25.8433 52.6053 26.1331 51.135L26.5875 48.7846L27.0419 51.135C27.3317 52.6053 28.0505 53.9569 29.1075 55.0192C30.2025 56.1201 31.5785 56.8996 33.0857 57.2728V57.2737Z" fill="#FDFAEE" stroke="#FF8A56" stroke-width="2.06929" stroke-linecap="round" stroke-linejoin="round"/>
</g>
</g>
<defs>
<clipPath id="clip0_10_423">
<rect width="117.982" height="117.982" fill="white" transform="translate(0.649902 0.82666)"/>
</clipPath>
</defs>
</svg>
