<svg width="121" height="48" viewBox="0 0 121 48" fill="none" xmlns="http://www.w3.org/2000/svg">
<g clip-path="url(#clip0_10_624)">
<path d="M116.515 5.79492H5.40355C2.94895 5.79492 0.959106 7.78477 0.959106 10.2394V36.906C0.959106 39.3606 2.94895 41.3505 5.40355 41.3505H116.515C118.969 41.3505 120.959 39.3606 120.959 36.906V10.2394C120.959 7.78477 118.969 5.79492 116.515 5.79492Z" fill="black"/>
<path d="M43.1103 14.8969C43.1259 15.2229 43.0748 15.5488 42.9602 15.8545C42.8456 16.1602 42.6698 16.4392 42.4436 16.6746C42.1926 16.9386 41.8886 17.1463 41.5516 17.2842C41.2145 17.4221 40.852 17.487 40.488 17.4746C40.1217 17.477 39.7585 17.4063 39.4198 17.2667C39.0811 17.1271 38.7736 16.9213 38.5153 16.6614C38.2571 16.4015 38.0533 16.0927 37.9158 15.7531C37.7783 15.4135 37.71 15.0499 37.7147 14.6835C37.7112 14.3179 37.7804 13.9553 37.9184 13.6167C38.0564 13.2781 38.2604 12.9704 38.5185 12.7114C38.7767 12.4525 39.0837 12.2475 39.4219 12.1084C39.76 11.9693 40.1224 11.8989 40.488 11.9013C40.8638 11.9 41.2359 11.9757 41.5814 12.1235C41.9029 12.2536 42.1891 12.4576 42.4169 12.7191L41.9458 13.1813C41.7689 12.9715 41.5464 12.8047 41.2954 12.6938C41.0443 12.5829 40.7712 12.5308 40.4969 12.5413C40.2193 12.5399 39.9442 12.5947 39.6882 12.7022C39.4322 12.8097 39.2006 12.9678 39.0072 13.167C38.8138 13.3662 38.6626 13.6025 38.5627 13.8615C38.4628 14.1206 38.4162 14.3971 38.4258 14.6746C38.42 15.089 38.537 15.4958 38.7621 15.8437C38.9872 16.1916 39.3103 16.465 39.6906 16.6295C40.071 16.794 40.4915 16.8422 40.8992 16.768C41.3069 16.6937 41.6834 16.5004 41.9814 16.2124C42.2542 15.9156 42.4119 15.5309 42.4258 15.128H40.4969V14.5057H43.0747C43.1009 14.6346 43.1158 14.7654 43.1192 14.8969H43.1103ZM47.208 12.6746H44.7814V14.3635H46.968V15.0035H44.7814V16.6924H47.208V17.3502H44.0969V12.0169H47.208V12.6746ZM50.0969 17.3502H49.4125V12.6746H47.928V12.0169H51.5903V12.6746H50.1058L50.0969 17.3502ZM54.2392 17.3502V12.0169H54.9236V17.3502H54.2392ZM57.9636 17.3502H57.2792V12.6746H55.7858V12.0169H59.448V12.6746H57.9636V17.3502ZM66.3814 16.6569C65.8617 17.1736 65.1587 17.4637 64.4258 17.4637C63.693 17.4637 62.9899 17.1736 62.4703 16.6569C62.2163 16.3961 62.017 16.0872 61.8842 15.7483C61.7514 15.4094 61.6877 15.0474 61.6969 14.6835C61.6889 14.319 61.754 13.9566 61.8883 13.6177C62.0227 13.2788 62.2236 12.9702 62.4792 12.7102C62.7353 12.4522 63.0399 12.2474 63.3756 12.1077C63.7112 11.9679 64.0712 11.896 64.4347 11.896C64.7983 11.896 65.1582 11.9679 65.4938 12.1077C65.8295 12.2474 66.1341 12.4522 66.3903 12.7102C66.6491 12.9687 66.8532 13.2766 66.9907 13.6156C67.1281 13.9546 67.196 14.3178 67.1903 14.6835C67.196 15.0493 67.1281 15.4124 66.9907 15.7514C66.8532 16.0904 66.6491 16.3983 66.3903 16.6569H66.3814ZM62.9858 16.2124C63.1758 16.4032 63.4016 16.5546 63.6502 16.658C63.8988 16.7613 64.1655 16.8145 64.4347 16.8145C64.704 16.8145 64.9706 16.7613 65.2192 16.658C65.4679 16.5546 65.6936 16.4032 65.8836 16.2124C66.0793 16.0102 66.2322 15.7706 66.333 15.5079C66.4338 15.2451 66.4805 14.9647 66.4703 14.6835C66.4805 14.4023 66.4338 14.1219 66.333 13.8592C66.2322 13.5965 66.0793 13.3568 65.8836 13.1546C65.6936 12.9638 65.4679 12.8124 65.2192 12.7091C64.9706 12.6058 64.704 12.5526 64.4347 12.5526C64.1655 12.5526 63.8988 12.6058 63.6502 12.7091C63.4016 12.8124 63.1758 12.9638 62.9858 13.1546C62.7869 13.3553 62.6308 13.5943 62.5269 13.8571C62.423 14.1199 62.3735 14.401 62.3814 14.6835C62.3735 14.966 62.423 15.2471 62.5269 15.5099C62.6308 15.7727 62.7869 16.0117 62.9858 16.2124ZM68.1414 17.3502V12.0169H68.968L71.5725 16.168H71.5992L71.5725 15.1369V12.0169H72.2569V17.3502H71.5458L68.8347 12.9946H68.7992L68.8436 14.0257V17.3502H68.1414Z" fill="white" stroke="white" stroke-width="0.177778" stroke-miterlimit="10"/>
<path d="M61.528 25.1282C60.7812 25.1299 60.0516 25.353 59.4316 25.7692C58.8115 26.1853 58.3287 26.776 58.0441 27.4664C57.7595 28.1569 57.686 28.9162 57.8327 29.6484C57.9795 30.3806 58.34 31.0529 58.8687 31.5804C59.3974 32.1078 60.0705 32.4667 60.8031 32.6118C61.5357 32.7568 62.2948 32.6815 62.9846 32.3953C63.6744 32.1091 64.2638 31.6249 64.6786 31.0039C65.0933 30.3828 65.3146 29.6528 65.3146 28.906C65.3206 28.4074 65.2267 27.9128 65.0384 27.4512C64.8501 26.9895 64.5713 26.5703 64.2183 26.2182C63.8654 25.8661 63.4455 25.5882 62.9834 25.401C62.5213 25.2138 62.0265 25.121 61.528 25.1282ZM61.528 31.1993C61.0689 31.2314 60.6108 31.1247 60.2133 30.893C59.8157 30.6613 59.497 30.3153 59.2986 29.9001C59.1003 29.4849 59.0314 29.0196 59.101 28.5648C59.1706 28.1099 59.3754 27.6865 59.6888 27.3496C60.0022 27.0126 60.4098 26.7778 60.8584 26.6755C61.3071 26.5733 61.7761 26.6084 62.2046 26.7763C62.633 26.9441 63.0011 27.237 63.2608 27.6168C63.5206 27.9966 63.6602 28.4458 63.6613 28.906C63.6756 29.1975 63.6314 29.489 63.5313 29.7632C63.4311 30.0374 63.2771 30.2888 63.0783 30.5026C62.8795 30.7163 62.6399 30.8881 62.3736 31.0077C62.1073 31.1274 61.8198 31.1925 61.528 31.1993ZM53.2435 25.1282C52.4975 25.1335 51.7697 25.3595 51.152 25.7778C50.5343 26.1961 50.0542 26.7879 49.7724 27.4787C49.4905 28.1694 49.4195 28.9281 49.5683 29.6592C49.717 30.3902 50.0789 31.0609 50.6083 31.5865C51.1377 32.1122 51.8108 32.4694 52.5429 32.613C53.275 32.7566 54.0332 32.6803 54.722 32.3936C55.4107 32.1069 55.9991 31.6227 56.4131 31.002C56.827 30.3813 57.0479 29.652 57.048 28.906C57.054 28.4059 56.9595 27.9098 56.7701 27.4469C56.5807 26.9841 56.3003 26.5641 55.9455 26.2117C55.5906 25.8593 55.1686 25.5819 54.7044 25.3957C54.2403 25.2096 53.7435 25.1186 53.2435 25.1282ZM53.2435 31.1993C52.7845 31.2314 52.3264 31.1247 51.9288 30.893C51.5312 30.6613 51.2126 30.3153 51.0142 29.9001C50.8158 29.4849 50.747 29.0196 50.8166 28.5648C50.8861 28.1099 51.091 27.6865 51.4044 27.3496C51.7178 27.0126 52.1253 26.7778 52.574 26.6755C53.0226 26.5733 53.4917 26.6084 53.9201 26.7763C54.3486 26.9441 54.7166 27.237 54.9764 27.6168C55.2362 27.9966 55.3757 28.4458 55.3768 28.906C55.3912 29.1975 55.347 29.489 55.2468 29.7632C55.1467 30.0374 54.9927 30.2888 54.7939 30.5026C54.595 30.7163 54.3554 30.8881 54.0891 31.0077C53.8229 31.1274 53.5354 31.1925 53.2435 31.1993ZM43.3946 26.2926V27.8926H47.2346C47.1793 28.644 46.8725 29.3549 46.3635 29.9104C45.9783 30.3029 45.515 30.6101 45.0036 30.8122C44.4922 31.0143 43.944 31.1068 43.3946 31.0837C42.263 31.0837 41.1778 30.6342 40.3776 29.8341C39.5775 29.0339 39.128 27.9487 39.128 26.8171C39.128 25.6855 39.5775 24.6002 40.3776 23.8001C41.1778 22.9999 42.263 22.5504 43.3946 22.5504C44.4753 22.5375 45.5171 22.953 46.2924 23.706L47.4213 22.5682C46.8915 22.0442 46.2625 21.6312 45.571 21.3534C44.8796 21.0756 44.1397 20.9386 43.3946 20.9504C42.6242 20.9504 41.8613 21.1022 41.1495 21.397C40.4378 21.6918 39.791 22.1239 39.2463 22.6687C38.7015 23.2135 38.2694 23.8602 37.9745 24.572C37.6797 25.2838 37.528 26.0467 37.528 26.8171C37.528 27.5875 37.6797 28.3504 37.9745 29.0622C38.2694 29.7739 38.7015 30.4207 39.2463 30.9654C39.791 31.5102 40.4378 31.9423 41.1495 32.2372C41.8613 32.532 42.6242 32.6837 43.3946 32.6837C44.1531 32.7157 44.9097 32.5864 45.6145 32.3045C46.3193 32.0226 46.9563 31.5944 47.4835 31.0482C48.4213 30.0284 48.9223 28.6818 48.8791 27.2971C48.8872 26.9637 48.8634 26.6303 48.808 26.3015L43.3946 26.2926ZM83.6613 27.5371C83.434 26.8547 83.0027 26.2586 82.4256 25.8294C81.8485 25.4001 81.1535 25.1585 80.4346 25.1371C79.9507 25.1413 79.4726 25.2432 79.0291 25.4369C78.5855 25.6305 78.1857 25.9117 77.8536 26.2638C77.5215 26.6158 77.264 27.0313 77.0965 27.4853C76.9291 27.9394 76.8551 28.4226 76.8791 28.906C76.8671 29.4035 76.9556 29.8984 77.1394 30.3609C77.3232 30.8234 77.5985 31.244 77.9487 31.5976C78.299 31.9512 78.717 32.2304 79.1778 32.4186C79.6385 32.6067 80.1325 32.7 80.6302 32.6926C81.2536 32.694 81.8675 32.5404 82.4168 32.2456C82.9661 31.9508 83.4335 31.524 83.7768 31.0037L82.488 30.1593C82.2964 30.4787 82.0254 30.7431 81.7015 30.9269C81.3775 31.1107 81.0115 31.2076 80.6391 31.2082C80.253 31.2221 79.8718 31.1193 79.5451 30.9132C79.2184 30.707 78.9615 30.4071 78.808 30.0526L83.8568 27.9726L83.6613 27.5371ZM78.5057 28.7993C78.4852 28.5215 78.521 28.2424 78.6108 27.9787C78.7007 27.7151 78.8428 27.4722 79.0287 27.2648C79.2146 27.0573 79.4404 26.8895 79.6927 26.7713C79.945 26.6531 80.2185 26.5871 80.4968 26.5771C80.784 26.5615 81.0694 26.6308 81.3175 26.7762C81.5657 26.9216 81.7656 27.1367 81.8924 27.3949L78.5057 28.7993ZM74.4257 32.4615H76.0791V21.3504H74.4168L74.4257 32.4615ZM71.6968 25.9726H71.6346C71.3819 25.6984 71.0735 25.4812 70.7302 25.3356C70.3868 25.19 70.0164 25.1193 69.6435 25.1282C68.6864 25.1939 67.7898 25.6205 67.1351 26.3217C66.4803 27.0229 66.1161 27.9466 66.1161 28.906C66.1161 29.8654 66.4803 30.789 67.1351 31.4902C67.7898 32.1915 68.6864 32.618 69.6435 32.6837C70.0174 32.6945 70.3892 32.6237 70.7331 32.4764C71.0769 32.329 71.3845 32.1086 71.6346 31.8304H71.6968V32.3637C71.6968 33.8126 70.9235 34.586 69.6791 34.586C69.2641 34.5787 68.8607 34.448 68.5203 34.2106C68.1799 33.9731 67.918 33.6396 67.768 33.2526L66.328 33.8393C66.5993 34.5044 67.0634 35.0731 67.6606 35.4723C68.2578 35.8715 68.9608 36.0829 69.6791 36.0793C71.6346 36.0793 73.2702 34.9237 73.2702 32.1415V25.3504H71.6968V25.9726ZM69.7857 31.1993C69.2335 31.1222 68.7278 30.848 68.3619 30.4274C67.9959 30.0067 67.7943 29.468 67.7943 28.9104C67.7943 28.3529 67.9959 27.8141 68.3619 27.3935C68.7278 26.9728 69.2335 26.6987 69.7857 26.6215C70.0724 26.6348 70.3535 26.7059 70.612 26.8304C70.8706 26.9548 71.1014 27.1302 71.2906 27.346C71.4799 27.5618 71.6236 27.8135 71.7132 28.0861C71.8029 28.3588 71.8366 28.6467 71.8124 28.9326C71.8329 29.2156 71.7963 29.4997 71.7047 29.7682C71.6131 30.0367 71.4685 30.284 71.2794 30.4955C71.0904 30.707 70.8607 30.8782 70.6041 30.9991C70.3475 31.1201 70.0692 31.1881 69.7857 31.1993ZM91.4746 21.3504H87.4746V32.4615H89.1457V28.2482H91.4568C91.9392 28.2972 92.4264 28.2445 92.8871 28.0936C93.3479 27.9426 93.7718 27.6966 94.1315 27.3716C94.4912 27.0466 94.7788 26.6497 94.9756 26.2066C95.1724 25.7636 95.2741 25.2841 95.2741 24.7993C95.2741 24.3145 95.1724 23.835 94.9756 23.392C94.7788 22.9489 94.4912 22.552 94.1315 22.227C93.7718 21.902 93.3479 21.656 92.8871 21.505C92.4264 21.3541 91.9392 21.3014 91.4568 21.3504H91.4746ZM91.5013 26.7015H89.1368V22.8971H91.4924C91.9969 22.8971 92.4807 23.0975 92.8375 23.4542C93.1942 23.811 93.3946 24.2948 93.3946 24.7993C93.3946 25.3038 93.1942 25.7876 92.8375 26.1444C92.4807 26.5011 91.9969 26.7015 91.4924 26.7015H91.5013ZM101.759 25.1015C101.152 25.0644 100.546 25.2063 100.019 25.5096C99.491 25.813 99.0638 26.2645 98.7902 26.8082L100.257 27.4304C100.404 27.1593 100.627 26.9373 100.898 26.7919C101.17 26.6465 101.479 26.5842 101.786 26.6126C102.205 26.5728 102.623 26.6998 102.949 26.966C103.275 27.2322 103.483 27.6163 103.528 28.0349V28.1504C102.994 27.8677 102.399 27.7212 101.795 27.7237C100.212 27.7237 98.5946 28.5949 98.5946 30.2304C98.6127 30.5723 98.6986 30.9072 98.8475 31.2155C98.9963 31.5238 99.2051 31.7993 99.4617 32.026C99.7182 32.2528 100.017 32.4261 100.342 32.536C100.666 32.6459 101.009 32.6901 101.35 32.666C101.771 32.6933 102.192 32.606 102.568 32.4136C102.943 32.2211 103.26 31.9305 103.484 31.5726H103.528V32.4615H105.128V28.1949C105.128 26.2393 103.652 25.1282 101.75 25.1282L101.759 25.1015ZM101.546 31.1993C101.012 31.1993 100.248 30.9326 100.248 30.2571C100.248 29.3949 101.19 29.066 101.999 29.066C102.527 29.0529 103.049 29.1819 103.51 29.4393C103.45 29.9188 103.22 30.3607 102.861 30.684C102.501 31.0072 102.038 31.1902 101.555 31.1993H101.546ZM110.95 25.3504L109.048 30.1682H108.995L107.021 25.3504H105.244L108.195 32.0882L106.506 35.8215H108.239L112.781 25.3504H110.95ZM96.0168 32.4615H97.6702V21.3504H96.0168V32.4615Z" fill="white"/>
<path d="M10.2391 12.4972C9.9462 12.8435 9.79675 13.2887 9.82134 13.7416V33.4038C9.79675 33.8568 9.9462 34.302 10.2391 34.6483L10.3013 34.7194L21.3236 23.6972V23.4305L10.2925 12.4438L10.2391 12.4972Z" fill="url(#paint0_linear_10_624)"/>
<path d="M24.9858 27.377L21.3147 23.7058V23.4392L24.9858 19.7681L25.0747 19.8214L29.4036 22.2925C30.648 23.0036 30.648 24.1592 29.4036 24.8703L25.0658 27.3325L24.9858 27.377Z" fill="url(#paint1_linear_10_624)"/>
<path d="M25.0658 27.3328L21.3147 23.5728L10.2391 34.6483C10.4911 34.8703 10.8124 34.9979 11.148 35.0092C11.4836 35.0206 11.8127 34.915 12.0791 34.7105L25.0747 27.3328" fill="url(#paint2_linear_10_624)"/>
<path d="M25.0658 19.8214L12.088 12.4436C11.8219 12.2356 11.4916 12.1271 11.154 12.1368C10.8164 12.1466 10.4928 12.2739 10.2391 12.4969L21.3147 23.5725L25.0658 19.8214Z" fill="url(#paint3_linear_10_624)"/>
<path opacity="0.2" d="M24.9858 27.2437L12.0702 34.577C11.8136 34.7689 11.5018 34.8725 11.1814 34.8725C10.8609 34.8725 10.5491 34.7689 10.2925 34.577L10.2391 34.6481L10.3014 34.7192C10.5574 34.9125 10.8695 35.017 11.1902 35.017C11.511 35.017 11.8231 34.9125 12.0791 34.7192L25.0747 27.3414L24.9858 27.2437Z" fill="black"/>
<path opacity="0.12" d="M10.2391 34.5239C9.9462 34.1775 9.79675 33.7323 9.82134 33.2794V33.4039C9.79675 33.8568 9.9462 34.302 10.2391 34.6483L10.3013 34.5861L10.2391 34.5239ZM29.4036 24.7283L24.9858 27.2439L25.0747 27.3328L29.4036 24.8616C29.6641 24.7533 29.8902 24.5761 30.0578 24.349C30.2253 24.122 30.3279 23.8537 30.3547 23.5728C30.2982 23.8266 30.1826 24.0635 30.0174 24.2643C29.8521 24.4651 29.6418 24.6241 29.4036 24.7283Z" fill="black"/>
<path opacity="0.25" d="M12.0702 12.5681L29.4035 22.417C29.6401 22.5223 29.8486 22.6818 30.0123 22.8825C30.1759 23.0832 30.2902 23.3196 30.3457 23.5725C30.3183 23.2942 30.2163 23.0284 30.0504 22.8031C29.8846 22.5778 29.6611 22.4015 29.4035 22.2925L12.0702 12.4436C10.8435 11.7325 9.82129 12.3192 9.82129 13.7414V13.8747C9.82129 12.4525 10.8435 11.857 12.0791 12.5592L12.0702 12.5681Z" fill="white"/>
</g>
<defs>
<linearGradient id="paint0_linear_10_624" x1="20.3369" y1="13.5372" x2="5.42134" y2="28.4527" gradientUnits="userSpaceOnUse">
<stop stop-color="#00A0FF"/>
<stop offset="0.01" stop-color="#00A1FF"/>
<stop offset="0.26" stop-color="#00BEFF"/>
<stop offset="0.51" stop-color="#00D2FF"/>
<stop offset="0.76" stop-color="#00DFFF"/>
<stop offset="1" stop-color="#00E3FF"/>
</linearGradient>
<linearGradient id="paint1_linear_10_624" x1="31.0303" y1="23.5725" x2="9.52803" y2="23.5725" gradientUnits="userSpaceOnUse">
<stop stop-color="#FFE000"/>
<stop offset="0.41" stop-color="#FFBD00"/>
<stop offset="0.78" stop-color="#FFA500"/>
<stop offset="1" stop-color="#FF9C00"/>
</linearGradient>
<linearGradient id="paint2_linear_10_624" x1="23.0302" y1="25.6172" x2="2.79913" y2="45.8394" gradientUnits="userSpaceOnUse">
<stop stop-color="#FF3A44"/>
<stop offset="1" stop-color="#C31162"/>
</linearGradient>
<linearGradient id="paint3_linear_10_624" x1="7.44802" y1="5.95469" x2="16.4791" y2="14.9858" gradientUnits="userSpaceOnUse">
<stop stop-color="#32A071"/>
<stop offset="0.07" stop-color="#2DA771"/>
<stop offset="0.48" stop-color="#15CF74"/>
<stop offset="0.8" stop-color="#06E775"/>
<stop offset="1" stop-color="#00F076"/>
</linearGradient>
<clipPath id="clip0_10_624">
<rect width="120" height="46.991" fill="white" transform="translate(0.959106 0.0771484)"/>
</clipPath>
</defs>
</svg>
