<svg width="119" height="119" viewBox="0 0 119 119" fill="none" xmlns="http://www.w3.org/2000/svg">
<mask id="mask0_10_450" style="mask-type:luminance" maskUnits="userSpaceOnUse" x="0" y="0" width="119" height="119">
<path d="M0.96814 0.82666H118.95V118.809H0.96814V0.82666Z" fill="white"/>
</mask>
<g mask="url(#mask0_10_450)">
<path d="M59.678 118.246C92.1026 118.246 118.388 91.9611 118.388 59.5365C118.388 27.112 92.1026 0.82666 59.678 0.82666C27.2534 0.82666 0.96814 27.112 0.96814 59.5365C0.96814 91.9611 27.2534 118.246 59.678 118.246Z" fill="white"/>
<path fill-rule="evenodd" clip-rule="evenodd" d="M41.2065 30.5653C42.4406 30.3214 43.6937 30.186 44.9515 30.1607C41.2553 31.4299 38.02 34.1794 36.0844 37.3419C35.96 37.5456 35.8392 37.7521 35.7231 37.9595C34.0557 38.5134 32.4638 39.2775 31.0738 40.3219C31.005 40.3733 30.9368 40.4255 30.8692 40.4786C31.0197 39.3983 31.3625 38.3538 31.8813 37.3944C33.7939 33.8319 37.2532 31.3635 41.2065 30.5653ZM28.7474 42.6317C28.5907 40.5689 28.9686 38.4452 30.0581 36.4156C32.2767 32.2843 36.2687 29.4509 40.7972 28.5375C44.7017 27.7494 48.5914 28.1227 52.3235 28.6444C56.8188 29.274 60.1564 29.9957 64.3706 31.8014C65.7283 32.3816 67.0387 33.067 68.2898 33.8513C69.1286 33.8421 69.9406 33.9508 70.6439 34.1223C72.2652 34.5168 73.5658 35.3067 74.5557 36.3418C75.9056 36.447 77.2401 36.6983 78.5358 37.0912C83.9132 38.754 87.1632 42.6216 88.5246 47.8967C88.8168 49.0313 88.9284 50.1457 88.9542 51.2481C90.3552 52.5828 91.6594 54.1304 92.5139 55.8743C94.373 59.6718 93.1462 64.0897 91.723 67.3646C94.2486 71.3908 93.6357 76.3101 91.8346 80.2597C90.6041 82.9604 88.8647 85.8224 86.3088 87.7414C82.4172 90.6633 77.1246 91.6754 72.5556 91.9371C72.3417 92.1372 72.1205 92.3363 71.8947 92.5271C71.2845 93.0395 70.5766 93.5428 69.8236 93.8304C69.0521 94.1254 68.1432 94.224 67.2611 93.7751C66.5302 93.4036 65.8767 92.8036 65.3301 92.1897C63.7088 92.1307 62.1086 91.9408 60.5445 91.7224C60.2056 91.6752 59.867 91.626 59.5287 91.5749C57.8982 92.1482 56.1496 92.3787 54.3255 92.0892C52.5834 91.8127 51.0441 91.0071 49.7003 89.9637C46.7028 91.8367 43.0269 92.2376 39.858 92.3704C37.1232 92.4856 34.2999 92.2837 31.5992 91.4486C25.4439 89.5462 21.7228 85.1255 20.1633 79.078C19.7282 77.3922 19.6434 75.745 19.6674 74.1044V73.7753C19.6639 73.5141 19.6654 73.2529 19.672 72.9918C19.6867 72.577 19.7328 72.0664 19.907 71.5908C20.2011 70.7861 20.9292 70.5105 21.4509 70.4294C21.9736 70.3464 22.5478 70.4045 23.0308 70.4847C23.5313 70.5677 24.0281 70.693 24.4217 70.7963L24.677 70.8635C24.9572 70.9373 25.113 70.9788 25.1876 70.9898C25.8909 71.0912 26.5887 71.152 27.2892 71.1788C27.1949 70.8576 27.1058 70.535 27.0219 70.2109C26.4961 69.549 26.0411 68.8338 25.6642 68.0771C24.0392 64.757 25.0955 60.9153 26.3168 58.0818C24.1424 54.5544 24.6908 50.272 26.2495 46.8514C26.8975 45.4301 27.7095 43.9507 28.7474 42.6317ZM27.2044 54.9138C26.6228 52.6187 27.0661 50.0508 28.1335 47.7105C28.481 46.9455 28.8681 46.1924 29.3004 45.4753C29.4829 46.0569 29.7051 46.6275 29.9613 47.1823C30.1991 47.6967 30.4664 48.199 30.7623 48.6875C29.223 50.5218 28.0229 52.6602 27.2044 54.9138ZM28.9142 69.2606C28.3577 66.9519 28.0548 64.5894 28.0109 62.2149C27.9993 61.557 28.0257 60.899 28.0902 60.2442C29.5097 61.6084 31.2775 62.7099 33.0768 63.5717C33.2031 64.11 33.3478 64.6409 33.5118 65.1645C34.0603 66.9084 34.9636 68.4809 36.3913 69.5971C36.3424 69.8402 36.3037 70.0853 36.2752 70.3317C34.782 70.7004 33.1689 70.846 31.4693 71L30.7227 71.0682L30.6858 71.0718C30.053 70.5109 29.461 69.9057 28.9142 69.2606ZM30.2839 73.4499C31.9089 77.3101 34.4557 80.6459 38.091 82.5723C38.7399 82.9161 39.4155 83.2194 40.1124 83.4848C39.8381 82.9795 39.619 82.4461 39.4589 81.8939C39.1588 80.8443 39.0455 79.7502 39.1243 78.6614C39.0137 78.3904 38.9104 78.1139 38.8146 77.8346C35.8125 77.0723 32.9699 75.5671 30.7789 73.8463C30.6157 73.7172 30.4498 73.5854 30.2839 73.4499ZM48.8237 84.6094C48.6227 84.7384 48.3988 84.8426 48.1582 84.9237C48.0067 84.9225 47.8552 84.9201 47.7038 84.9163C47.5023 84.655 47.3047 84.3908 47.1111 84.1236C46.3091 83.0332 45.5935 81.8818 44.9708 80.68C45.546 80.9934 46.1341 81.2819 46.7313 81.5409C47.3189 82.6348 48.0202 83.6627 48.8237 84.6094ZM60.9104 88.6512C59.1609 88.1433 57.4364 87.1146 55.9109 85.9846C57.314 85.579 58.6478 84.9637 59.867 84.1596C60.2111 84.4362 60.5652 84.7 60.9288 84.9504C61.2395 85.1661 61.5704 85.3762 61.916 85.5763C62.046 86.2537 62.2322 86.9248 62.4801 87.5847L62.3243 87.7027C61.8635 88.0502 61.3915 88.3673 60.9104 88.6512ZM69.2954 89.9361C68.9424 89.9305 68.5857 89.9213 68.229 89.9066C70.9379 88.6622 73.2653 86.5303 74.7327 84.1301C75.1529 83.4395 75.5228 82.7196 75.8397 81.976C76.939 81.5549 78.0131 81.0708 79.0566 80.5261C79.0151 81.7224 78.6971 82.8929 78.1275 83.9457C77.2385 85.5943 75.9562 86.9979 74.3944 88.0318C74.2296 87.9762 74.0534 87.9631 73.8821 87.9937C73.7108 88.0243 73.55 88.0976 73.4146 88.2069C73.1029 88.4705 72.8054 88.7505 72.5233 89.0457C71.7675 89.372 70.973 89.6208 70.1545 89.7867C69.8687 89.8439 69.583 89.8937 69.2954 89.9361ZM75.8812 89.5213C79.228 89.0162 82.5334 87.9903 85.0663 86.0878C87.2167 84.4739 88.7781 81.9769 89.9515 79.4016C91.4023 76.2207 91.8751 72.6526 90.5856 69.6432C88.3347 73.6122 84.9907 76.9286 81.0918 79.361C81.2512 81.2045 80.9259 83.1069 79.9507 84.9255C78.9676 86.7514 77.5747 88.3245 75.8812 89.5213ZM80.6742 77.17C84.3381 74.7339 87.4075 71.4516 89.3385 67.5822C87.9117 65.8051 85.7963 64.3487 83.5251 63.2159C83.4256 67.0724 81.9582 71.1511 79.3893 74.2509C79.6271 74.6509 79.8437 75.062 80.0382 75.4823C80.2908 76.0289 80.5046 76.594 80.6742 77.17ZM83.4551 60.8904C85.9382 62.0186 88.4149 63.5357 90.2557 65.488C91.3756 62.5633 91.9277 59.3843 90.6548 56.785C90.1967 55.8485 89.5699 54.959 88.8426 54.1202C88.8158 54.2359 88.7819 54.3497 88.7412 54.4613C88.462 55.2263 87.7706 55.4816 87.2969 55.5563C86.8213 55.631 86.3069 55.5784 85.8848 55.5074C85.4451 55.4337 85.0101 55.3249 84.669 55.2355C84.5208 55.1971 84.3727 55.158 84.2247 55.1185C84.1614 55.1023 84.0978 55.0872 84.0339 55.0733L84.022 55.0715C83.4876 54.9944 82.95 54.9427 82.4108 54.9166C82.9767 56.9011 83.3141 58.9354 83.4551 60.8904ZM86.7107 49.3162C86.6605 49.013 86.5972 48.7123 86.5208 48.4147C85.317 43.7489 82.5352 40.4942 77.9247 39.0683C77.3256 38.884 76.7126 38.7374 76.0914 38.6259C76.2785 39.0333 76.4342 39.4554 76.5596 39.8868C76.9062 41.0722 77.0297 42.3405 76.9384 43.6032C77.0822 43.9526 77.214 44.3065 77.3348 44.6669C80.8079 45.5324 84.1068 47.2708 86.6471 49.2664L86.7107 49.3162ZM68.5405 36.5114C68.275 36.3197 68.0059 36.1335 67.7331 35.951C66.8233 36.0441 65.991 36.3381 65.4048 36.8755C65.2508 37.0175 65.1024 37.1705 64.9605 37.3364C66.1274 36.917 67.345 36.6663 68.5405 36.5114ZM65.2868 39.4241C66.9551 38.754 68.8668 38.4959 70.8024 38.3853C72.4524 39.9504 73.8119 41.7533 74.7438 43.7609C74.4299 43.5625 74.1086 43.3762 73.7806 43.2023C73.1712 42.8797 72.5434 42.5935 71.9002 42.3451C70.5727 41.4968 69.1712 40.7703 67.7128 40.1744C66.9258 39.858 66.115 39.6071 65.2868 39.4241ZM78.5505 47.1823C81.0119 48.0353 83.3156 49.2888 85.3686 50.8923C85.8811 51.2951 86.3927 51.7182 86.8895 52.1597L86.8886 52.2086C86.8858 52.3791 86.8876 52.5109 86.8886 52.6353C86.8913 52.792 86.8922 52.9367 86.8858 53.1303C86.8802 53.287 86.8683 53.416 86.8526 53.522C86.6421 53.523 86.4319 53.5042 86.2249 53.4658C85.8272 53.3951 85.4334 53.304 85.0451 53.193C84.8057 53.124 84.5629 53.0671 84.3178 53.0224C83.4568 52.899 82.5884 52.8331 81.7185 52.8252C80.9443 50.7891 79.9027 48.859 78.5505 47.1823ZM79.876 54.9526L80.2576 54.9286C80.7719 56.5785 81.113 58.2966 81.2982 60.0027C80.6622 59.7663 80.0195 59.5484 79.3709 59.3492C79.0022 59.2368 78.6326 59.1308 78.262 59.034C78.7432 58.0044 79.3395 56.702 79.7552 55.3627C79.7967 55.2282 79.8373 55.0917 79.8751 54.9535L79.876 54.9526ZM64.3531 43.8825C64.3927 43.5949 64.4194 43.3055 64.4323 43.0161L64.4904 43.0179C64.6499 43.2263 64.8066 43.4364 64.9605 43.6475C65.4426 44.3093 65.8822 44.9766 66.2767 45.6532C66.0684 45.7656 65.8656 45.8836 65.6675 46.0071C65.2858 45.2655 64.8463 44.5551 64.3531 43.8825ZM76.3098 58.3233C76.1318 57.9831 75.9287 57.6565 75.7024 57.3463C76.238 56.6915 76.6947 55.9759 77.0629 55.2143C77.2555 55.1931 77.45 55.1738 77.6472 55.1544C77.262 56.2845 76.7532 57.3721 76.3107 58.3224L76.3098 58.3233ZM77.2988 61.1033L77.3744 60.9438C77.838 61.0581 78.3008 61.1872 78.7635 61.3291C79.6391 61.5964 80.5461 61.9153 81.4531 62.2831L81.4586 62.532C81.525 65.9912 80.3101 69.6653 78.1477 72.4849C78.075 72.3961 78.0013 72.3083 77.9265 72.2213C77.9247 72.0876 77.9219 71.954 77.9173 71.8194L77.9293 71.6553C78.1413 68.3186 78.1524 64.5543 77.2998 61.1033H77.2988ZM72.928 67.1637C73.4627 66.7668 73.9539 66.3145 74.3935 65.8143L74.4507 65.9369C75.0683 67.2605 75.4882 68.6676 75.6969 70.1132C75.0045 69.582 74.2639 69.117 73.4847 68.7242C73.2004 68.5818 72.9107 68.4502 72.6164 68.3297L72.6201 68.3195C72.7445 67.9333 72.8469 67.5481 72.928 67.1637ZM61.5556 82.8516L61.6782 82.9429V82.8949C61.6397 82.8786 61.6013 82.862 61.563 82.8452L61.5556 82.8516ZM65.3467 84.861C64.8214 84.6874 64.3081 84.4792 63.8102 84.2379C63.7862 84.0084 63.7687 83.777 63.7586 83.5466C64.5619 83.713 65.3783 83.8086 66.1984 83.8323C65.9255 84.1798 65.6417 84.5246 65.3467 84.861ZM66.0168 87.1847C66.3505 87.2566 66.686 87.3137 67.0224 87.3561C67.5082 87.417 68.0004 87.4446 68.4917 87.4326C67.5145 88.0175 66.4554 88.4531 65.3495 88.7249L65.3356 88.7037C65.2223 88.523 65.1144 88.3405 65.013 88.1562C65.3587 87.8428 65.6923 87.5174 66.0168 87.1847ZM67.6437 85.3412C68.0741 84.8038 68.4769 84.2591 68.8511 83.7162C70.2084 83.5533 71.5524 83.2936 72.8727 82.9392C72.6178 83.2932 72.3348 83.6261 72.0265 83.9347C70.8725 85.0822 69.3341 85.4795 67.6437 85.3412ZM76.8315 79.3131C77.5108 78.9997 78.1791 78.6596 78.8326 78.2936C78.6752 77.6241 78.4497 76.9724 78.1597 76.3488C78.0771 76.1704 77.9898 75.9943 77.898 75.8206C77.7938 75.9165 77.6878 76.0105 77.5809 76.1027C77.3978 77.1876 77.1475 78.2592 76.8315 79.3131ZM74.2617 80.3491C72.961 80.8015 71.6281 81.1552 70.2743 81.4073C70.6245 80.7648 70.9785 80.0339 71.2523 79.2633C72.1371 79.0485 73.0063 78.7748 73.8451 78.4282C74.2414 78.2641 74.6258 78.0816 75.0009 77.8816C74.8049 78.7184 74.558 79.5424 74.2617 80.3491ZM71.7435 76.9848C71.8117 75.7146 71.4901 74.3919 70.3609 73.3255C70.1497 73.1242 69.9211 72.942 69.6779 72.7807C70.5391 72.0725 71.2573 71.2066 71.7942 70.2294C72.0505 70.3335 72.3049 70.4478 72.5547 70.5732C73.7427 71.1772 74.8247 71.97 75.7586 72.9208C75.6941 73.6499 75.6148 74.3818 75.5134 75.109C74.7547 75.6783 73.928 76.1508 73.0524 76.5156C72.6266 76.6926 72.1897 76.8474 71.7435 76.9848ZM69.6005 77.4945C68.1773 77.7471 66.698 77.8549 65.2158 77.877C65.6241 77.0134 65.9643 76.1091 66.2343 75.1763C66.3907 74.9981 66.5621 74.8337 66.7468 74.685C67.1395 74.3735 67.4824 74.2491 67.7755 74.2481C68.0501 74.2481 68.4382 74.3551 68.9387 74.8288C69.6392 75.4906 69.8116 76.3792 69.6005 77.4945ZM64.1005 79.9481C65.6453 79.9666 67.2427 79.9085 68.8235 79.7057C68.5822 80.1996 68.3196 80.6827 68.0363 81.1538C67.9202 81.3492 67.7994 81.5464 67.6741 81.7437C66.3652 81.823 65.0573 81.7437 63.8424 81.4414C63.9023 80.9436 63.989 80.4459 64.1005 79.9481ZM61.5528 79.856C61.4358 80.0007 61.315 80.1417 61.1924 80.28L61.1519 80.2523C60.9396 80.1045 60.7356 79.9451 60.5408 79.7749C60.8846 79.8099 61.2229 79.8366 61.5528 79.856ZM62.7299 77.2687C62.1086 77.0954 61.4809 76.9276 60.8496 76.7589C60.9261 76.4502 60.9832 76.1368 61.0228 75.8215C61.8952 75.7223 62.7589 75.5574 63.6065 75.3284C63.2528 75.9456 62.9593 76.5953 62.7299 77.2687ZM74.3898 55.6604C74.3371 55.7328 74.2833 55.8044 74.2285 55.8752C74.1702 55.8334 74.1112 55.7925 74.0516 55.7526C74.1631 55.7204 74.2755 55.6899 74.3898 55.6604ZM75.6065 53.31C74.3225 53.5064 73.022 53.8188 71.7905 54.3986C71.5417 53.9746 71.2753 53.569 70.9951 53.181C72.928 51.7984 74.5714 50.0711 75.6296 48.1207L75.7107 47.9695C75.8167 48.069 75.9208 48.1723 76.0259 48.2755C76.0803 48.7456 76.1116 49.224 76.1208 49.7097C76.143 50.9937 75.9817 52.1956 75.6065 53.31ZM77.8334 53.0538C77.9717 52.4915 78.0676 51.9182 78.1247 51.3329C78.239 51.838 78.2473 52.4067 78.1699 53.0243L77.8334 53.0538ZM70.4688 50.9863C70.1923 49.4775 69.7406 48.0534 69.1323 46.6864C69.3479 46.6192 69.5701 46.5574 69.7959 46.5021C71.0402 46.1952 72.3491 46.1011 73.6755 46.1795C73.8202 46.2984 73.964 46.4173 74.1059 46.538C74.0153 46.7405 73.9169 46.9395 73.811 47.1344C73.045 48.5456 71.8818 49.8609 70.4688 50.9863ZM67.228 47.4994C67.6169 48.3677 67.9322 49.2572 68.1718 50.178C67.7801 49.8517 67.3754 49.542 66.9588 49.2489C66.8279 48.8044 66.6813 48.3648 66.5191 47.9308C66.7477 47.7787 66.9828 47.634 67.228 47.4994ZM67.6474 52.4814C67.7202 52.5505 67.7921 52.6215 67.863 52.6925L67.687 52.7846L67.6474 52.4814ZM65.166 50.5338C65.2766 50.9734 65.3734 51.4186 65.4545 51.8684C65.1967 51.5555 64.8806 51.2957 64.5236 51.1034C64.2614 50.9612 63.9852 50.8463 63.6996 50.7605C63.8784 50.4932 64.0692 50.2351 64.271 49.9863C64.5752 50.1623 64.8748 50.3457 65.166 50.5338ZM63.9862 47.2699L63.8351 47.4082C63.6559 47.3197 63.4758 47.233 63.2949 47.1482C63.3988 46.941 63.4987 46.7317 63.5945 46.5205C63.7327 46.7657 63.8618 47.0155 63.9862 47.2699ZM68.1847 44.8181C68.5521 44.693 68.9249 44.5841 69.3019 44.4918C69.8411 44.36 70.3858 44.2614 70.9361 44.1941C69.7293 43.7522 68.4802 43.4356 67.2086 43.2493C67.5536 43.7597 67.8793 44.283 68.1847 44.8181ZM58.0456 49.1613C58.1819 48.7189 58.331 48.2806 58.4927 47.8469C58.4807 48.164 58.3756 48.5318 58.1627 48.9465C58.1258 49.0184 58.0871 49.0894 58.0456 49.1613ZM56.6409 46.8911C56.5342 47.1739 56.4313 47.4581 56.3321 47.7437C56.2169 47.5667 56.0971 47.3934 55.9699 47.2238C56.0132 47.0588 56.0538 46.8938 56.0925 46.7288C56.2759 46.7823 56.4584 46.8358 56.6409 46.8911ZM57.888 44.0687C57.8024 44.0186 57.7161 43.9697 57.629 43.9222C57.7608 43.8788 57.8954 43.8374 58.0309 43.7977L57.888 44.0687ZM59.5628 45.3407C59.8439 44.7748 60.15 44.2245 60.4827 43.6982C60.4136 44.4485 60.3905 45.2025 60.4025 45.9527C60.2437 45.8947 60.0845 45.8376 59.9251 45.7813C59.8149 45.6263 59.6939 45.4785 59.5628 45.3407ZM59.8301 36.7548C59.2388 36.1408 58.5969 35.5778 57.9111 35.0717C55.4805 33.2549 52.5733 31.6216 49.7334 31.4953C47.2355 31.3829 44.7183 32.2207 42.5402 33.6356C43.3053 33.5692 44.0777 33.5941 44.8372 33.6891C47.3913 34.0071 49.9104 35.126 51.8092 36.4423C52.2452 36.7446 52.6839 37.0672 53.1088 37.4138L53.1927 37.4322C54.92 36.6174 56.8326 36.2119 58.8522 36.5326C59.1824 36.585 59.5097 36.6592 59.8301 36.7548ZM44.1652 35.6994C42.3181 35.5464 40.6055 35.9335 39.2662 37.0857C40.5017 36.8758 41.748 36.7355 42.9992 36.6653C43.1755 36.5007 43.3559 36.3405 43.5403 36.1851C43.7366 36.0192 43.9459 35.8542 44.1652 35.6994ZM34.4483 40.6952C33.6409 42.6456 33.1238 44.7296 32.8039 46.6155C32.6141 46.7785 32.4279 46.9457 32.2454 47.1169C32.101 46.854 31.9658 46.5862 31.8398 46.3141C31.389 45.3514 31.0738 44.3308 30.9033 43.2816C31.3393 42.7967 31.8094 42.3571 32.3173 41.9764C32.9717 41.4842 33.6879 41.0602 34.4483 40.6952ZM37.2495 39.6564C38.4119 39.3352 39.596 39.0986 40.7926 38.9485C40.7074 39.1609 40.695 39.3956 40.7574 39.6157C40.8198 39.8359 40.9535 40.0292 41.1375 40.1653C41.3215 40.3014 41.5455 40.3725 41.7743 40.3677C42.0031 40.3628 42.2239 40.2822 42.402 40.1384C42.7043 39.8951 43.0721 39.519 43.4251 39.1577L43.5541 39.025C43.661 38.9153 43.7698 38.8047 43.8795 38.695C45.4594 38.635 47.0416 38.676 48.6163 38.8176C48.8255 39.1135 49.0182 39.4075 49.1868 39.6748C49.2643 39.7965 49.338 39.9209 49.4081 40.0453C48.6687 40.7296 47.9784 41.4651 47.3425 42.2464C43.886 42.2649 40.2635 42.6575 37.0347 43.9931C36.474 44.2252 35.9279 44.4912 35.3995 44.7895C35.6761 43.5608 36.0263 42.3617 36.4743 41.2169C36.7084 40.6749 36.9674 40.1513 37.2495 39.6564ZM50.2892 42.31C50.2131 42.3066 50.1369 42.3032 50.0607 42.2999L50.2413 42.1156L50.2892 42.31ZM52.4332 42.4584C52.3237 41.8314 52.1593 41.2151 51.9419 40.6168L51.9935 40.5781C52.2756 40.3661 52.5604 40.167 52.8507 39.9827C53.4397 40.6085 53.8932 41.2768 54.1661 42.0215C53.987 42.2147 53.8176 42.4165 53.6582 42.6262C53.2471 42.5571 52.8378 42.5018 52.4332 42.4584ZM56.1459 40.4537C56.039 40.5154 55.9339 40.579 55.8289 40.6454C55.7659 40.5172 55.6992 40.3909 55.6288 40.2666C55.8031 40.3274 55.9754 40.3892 56.1459 40.4537ZM60.2569 39.1439C59.7968 39.1984 59.3401 39.2788 58.889 39.3845C58.2332 39.063 57.562 38.7738 56.8778 38.518C57.4281 38.4705 57.9821 38.49 58.5277 38.5761C59.1298 38.6755 59.713 38.867 60.2569 39.1439ZM41.4599 44.8374C40.2162 45.071 38.9989 45.4286 37.8265 45.9048C36.7785 46.338 35.7987 46.9095 34.8935 47.5916L34.829 48.0681C36.8785 46.6884 39.1103 45.6011 41.4599 44.8374ZM49.6247 48.2331C49.8099 47.8893 50.0081 47.5538 50.2192 47.2284C50.3141 46.8155 50.3897 46.4035 50.4432 45.9915C49.4652 45.7629 48.4172 45.7002 47.3618 45.7592C47.2678 45.9085 47.1765 46.0578 47.0881 46.2053C46.6714 46.9058 46.2401 47.7188 45.9654 48.5281C46.8438 48.3253 47.772 48.2221 48.7398 48.2184C49.0366 48.2184 49.3316 48.2221 49.6247 48.2331ZM43.6546 49.3539C43.2103 49.577 42.7845 49.8323 42.3798 50.1208C41.1632 50.9873 40.1658 52.1311 39.4155 53.5193C39.0674 53.3829 38.7257 53.2307 38.3915 53.063C37.1068 52.411 35.9279 51.5689 34.8944 50.5651C37.8097 48.3551 41.1859 46.8311 44.7717 46.1067C44.3597 46.8948 43.9597 47.8165 43.7551 48.7613C43.7136 48.9548 43.6795 49.153 43.6546 49.3539ZM43.8952 51.5938C44.1078 52.1325 44.4378 52.6171 44.8611 53.0123C45.1838 53.3174 45.5248 53.5598 45.8806 53.7313C45.6419 53.9617 45.4123 54.2078 45.1921 54.4668C43.9201 54.4898 42.6665 54.3894 41.4498 54.1285C42.0592 53.1068 42.896 52.2394 43.8952 51.5938ZM49.8496 60.636C50.021 60.5281 50.1906 60.4194 50.3611 60.3088C50.8602 60.7544 51.2735 61.2877 51.5806 61.8822C51.1584 62.1633 50.7123 62.4186 50.245 62.6444C50.0743 61.9829 49.9422 61.3129 49.8496 60.636ZM48.7306 67.9481L48.6145 67.9896C47.8116 68.2753 46.9719 68.538 46.1193 68.75C46.1543 67.8034 46.2355 66.8604 46.359 65.935C47.2413 65.8021 48.113 65.6065 48.9675 65.3497C49.0873 65.6447 49.2182 65.9359 49.3574 66.2235C49.0897 66.775 48.8797 67.3535 48.7306 67.9481ZM52.4028 66.3765L52.3751 66.3904C52.2996 66.1345 52.2132 65.882 52.1161 65.6336L52.1659 65.5645C52.2359 65.4686 52.3078 65.3737 52.3816 65.2788C52.4037 65.6474 52.4111 66.0134 52.4028 66.3765ZM48.9426 71.3631C48.5192 71.1317 48.1027 70.888 47.6936 70.6322C47.9738 70.4958 48.2577 70.3686 48.5435 70.2506C48.5951 70.6792 48.737 71.0488 48.9426 71.3631ZM56.2206 67.5444C55.8597 67.4262 55.4898 67.3375 55.1145 67.2789C55.4897 67.0651 55.862 66.8457 56.2298 66.6199C56.2667 66.8374 56.299 67.0549 56.3284 67.2715C56.2916 67.3619 56.2547 67.4531 56.2206 67.5444ZM55.1422 62.5043C55.3892 63.1339 55.5966 63.7901 55.7726 64.4639C55.3385 64.7432 54.897 65.0133 54.45 65.2732C54.4162 64.612 54.3392 63.9537 54.2195 63.3025C54.5255 63.0214 54.8343 62.755 55.1422 62.5043ZM53.778 59.9327C53.5973 60.1465 53.4075 60.353 53.2075 60.553C52.8967 60.0267 52.5231 59.5402 52.0949 59.104C52.2976 58.9548 52.4988 58.8036 52.6987 58.6506C53.0987 59.0497 53.4572 59.4792 53.778 59.9327ZM67.1173 69.3703C67.7036 69.3731 68.2843 69.4072 68.8567 69.4791C68.3173 70.2269 67.6721 70.8923 66.9413 71.4544C67.0215 70.7686 67.0814 70.0718 67.1173 69.3703ZM65.0388 69.4828C64.9742 70.5449 64.8567 71.6031 64.6867 72.6535C64.3549 72.6904 64.012 72.7107 63.6572 72.7116C62.6873 72.7172 61.7189 72.6351 60.7638 72.4664C60.7358 72.3688 60.706 72.2717 60.6744 72.1752C60.9998 71.47 61.3528 70.7714 61.7206 70.0837C62.8117 69.8081 63.9204 69.6073 65.0388 69.4828ZM61.1731 64.7506C60.903 64.9424 60.6356 65.1382 60.3712 65.3377L60.2514 65.4271C60.1661 65.3396 60.0828 65.2502 60.0016 65.1589C60.2698 64.8363 60.5564 64.5294 60.8606 64.2363C60.9592 64.4114 61.0634 64.5838 61.1731 64.7506ZM64.2747 61.8886C63.9318 62.3863 63.6 62.8841 63.2802 63.3818C63.153 63.4556 63.0258 63.533 62.8995 63.6095C62.7516 63.3833 62.6174 63.1484 62.4976 62.9062C63.0553 62.5264 63.6498 62.1863 64.2747 61.8886ZM74.3991 62.2131C74.145 61.9721 73.8685 61.756 73.5732 61.5678C73.5916 61.1531 73.5916 60.7383 73.575 60.3253C74.0426 60.3607 74.5089 60.4112 74.9733 60.4765C75.0185 60.6139 75.0609 60.7522 75.1005 60.8913C74.8765 61.3402 74.6442 61.7835 74.3991 62.2131ZM70.9407 57.3924C71.0366 57.6606 71.1195 57.9344 71.1905 58.2118C71.0974 58.2152 71.0043 58.2192 70.9112 58.2238C70.8273 58.1094 70.7413 57.9966 70.6531 57.8855C70.6623 57.7952 70.6716 57.7039 70.6789 57.6136L70.9407 57.3924ZM65.4499 57.1408L65.7845 57.0523C65.7538 57.7364 65.6957 58.419 65.6103 59.0985C65.4536 58.7086 65.2813 58.3243 65.096 57.9464C65.225 57.6827 65.343 57.4136 65.4499 57.1408ZM61.5971 58.5565C61.7777 58.4745 61.9593 58.3952 62.1418 58.3169C62.1824 58.4275 62.2248 58.5381 62.269 58.6487C62.073 58.9257 61.8667 59.1954 61.6505 59.4571C61.624 59.1575 61.6061 58.8572 61.5971 58.5565ZM59.584 59.5557C59.6329 60.153 59.7121 60.7475 59.8218 61.3374L59.8292 61.377C59.3711 61.8016 58.8963 62.2078 58.406 62.5947C58.137 61.9612 57.9143 61.3091 57.7396 60.6433C58.3415 60.2593 58.9567 59.8965 59.584 59.5557ZM58.065 54.3037C58.0685 54.2177 58.0707 54.1316 58.0714 54.0456C58.2871 53.8308 58.501 53.6142 58.7121 53.3957C59.1361 53.7147 59.5453 54.0576 59.9389 54.4262L59.8956 54.6217C59.5997 54.6032 59.3066 54.5728 59.0199 54.5304C58.6956 54.4828 58.3761 54.4069 58.065 54.3037ZM57.7977 56.3868C58.0936 56.467 58.3996 56.5306 58.7157 56.5776C59.0052 56.6209 59.2964 56.6532 59.5895 56.6753C59.5739 56.8624 59.561 57.0504 59.5508 57.2385C58.7806 57.6251 58.0257 58.0418 57.288 58.4874C57.2712 58.3813 57.2558 58.275 57.2419 58.1685C57.4723 57.5979 57.6604 57.0034 57.7977 56.3868ZM55.0288 56.7997C55.0491 57.15 55.0786 57.5021 55.1173 57.8533C55.0767 57.939 55.0343 58.0238 54.9919 58.1086C54.7864 57.8542 54.5679 57.6072 54.3375 57.3666C54.5679 57.1813 54.7984 56.9924 55.0288 56.7997ZM51.4202 53.0068C51.3142 53.2105 51.2064 53.4142 51.0976 53.617L51.0865 53.6243C50.7083 53.7217 50.3278 53.8102 49.9454 53.8898C49.9658 53.7541 49.9873 53.6186 50.01 53.4833C50.4685 53.2921 50.9397 53.1329 51.4202 53.0068ZM51.329 50.4508C51.6285 50.4904 51.9253 50.5375 52.2184 50.5918L52.2553 50.72C51.8599 50.7847 51.4672 50.8653 51.0783 50.9614C51.1695 50.7891 51.2534 50.6176 51.329 50.4508ZM48.7112 50.2886C48.5984 50.602 48.4954 50.919 48.4025 51.2389C48.2706 51.3854 48.1351 51.5154 47.9969 51.626C47.6734 51.8823 47.4061 51.9726 47.1931 51.9726C46.9996 51.9726 46.6972 51.8989 46.2834 51.508C46.0512 51.2934 45.8787 51.0222 45.7829 50.7209C46.6677 50.4434 47.6476 50.296 48.7112 50.2886ZM43.8371 56.5149C42.734 56.4642 41.6383 56.3081 40.5649 56.0485L40.5124 56.2098C40.0022 57.7623 39.8648 59.4132 40.1115 61.0286C40.3815 60.5927 40.6719 60.1687 40.9871 59.7705C41.6185 58.9722 42.3715 58.2487 43.2767 57.7242C43.4509 57.3057 43.6389 56.902 43.8371 56.5149ZM36.9932 62.9265C35.9858 62.1707 35.2004 61.0885 34.5433 59.8129C34.6262 60.5926 34.7368 61.3632 34.8815 62.119C35.5867 62.4232 36.2973 62.6914 36.9932 62.9265ZM35.5028 64.5948C35.8586 65.7101 36.36 66.6577 37.0504 67.3987C37.3315 66.6641 37.6467 65.9691 37.9242 65.3728C37.655 65.2999 37.387 65.2224 37.1204 65.1405C36.5762 64.9734 36.0368 64.792 35.5028 64.5948ZM38.9501 68.703C38.8997 68.6822 38.8496 68.6607 38.7998 68.6385C39.104 67.7554 39.4939 66.9028 39.8506 66.1387C39.964 66.3231 40.081 66.5037 40.2036 66.6825C39.6875 67.3222 39.2727 67.9979 38.9501 68.703ZM32.6021 60.9908C32.2288 58.2533 32.2205 55.442 32.3495 52.8058C30.883 54.3083 29.6396 56.007 28.7013 57.8652C29.6995 59.0828 31.0794 60.1263 32.6021 60.9908ZM55.9201 82.1281C56.4616 81.9374 56.9823 81.6922 57.4742 81.3962C57.7138 81.8571 58.0069 82.2829 58.3351 82.6774C57.2835 83.3155 56.1437 83.7954 54.9523 84.1015L54.9274 84.1079C55.2862 83.4623 55.6174 82.8018 55.9201 82.1281ZM53.3522 82.6728C53.2721 82.8244 53.1901 82.975 53.1061 83.1245C53.0184 82.9877 52.9351 82.8481 52.8563 82.706C53.0222 82.6986 53.1872 82.6875 53.3522 82.6728ZM55.2638 78.0955C55.0048 78.8797 54.718 79.6544 54.4039 80.4182C54.0441 80.502 53.6792 80.562 53.3116 80.598C53.3457 80.4523 53.378 80.3086 53.4065 80.1684C53.637 79.0578 53.7199 77.9268 53.7144 76.8023L53.8988 76.8677C54.061 77.0917 54.2564 77.3037 54.485 77.5019C54.7348 77.7194 54.9947 77.9166 55.2638 78.0955ZM36.3711 72.4332C36.4208 72.6397 36.4844 72.8443 36.5628 73.0453C36.9112 73.932 37.573 74.7763 38.2293 75.4814L38.2348 75.5128C36.386 74.9074 34.6339 74.0392 33.0325 72.9347C34.1294 72.8268 35.2558 72.684 36.3711 72.4332ZM40.3013 71.199C40.4193 71.2175 40.5373 71.2341 40.6562 71.2497C40.6608 71.7383 40.6765 72.2194 40.7023 72.6923C40.7216 73.0692 40.7511 73.4416 40.7889 73.8094C40.6101 74.0767 40.4442 74.3505 40.2912 74.6297C40.2569 74.5961 40.2228 74.5623 40.1889 74.5284C40.1456 74.1412 40.1197 73.7486 40.1133 73.3485C40.0995 72.5973 40.1594 71.8811 40.3013 71.199ZM42.7301 71.5401C42.7286 71.4725 42.7274 71.4049 42.7264 71.3373L42.9633 71.3272C42.8847 71.3975 42.8069 71.4679 42.7301 71.5401ZM42.9412 74.3624C43.3117 73.8877 43.7339 73.4315 44.1984 73.001C44.3118 74.0583 44.486 75.1072 44.7247 76.1359C44.2577 76.2152 43.786 76.2638 43.3126 76.2815C43.1567 75.6484 43.0327 75.0079 42.9412 74.3624ZM46.7175 75.5671C46.4966 74.5873 46.3359 73.5949 46.2364 72.5955C46.9934 73.2804 47.8109 73.8953 48.679 74.4325C48.0786 74.8963 47.4189 75.2779 46.7175 75.5671ZM45.2815 78.1388C45.1367 78.1664 44.992 78.1904 44.8464 78.2125C45.0372 78.3324 45.2298 78.4476 45.4243 78.56C45.3753 78.4201 45.3277 78.2797 45.2815 78.1388ZM48.2218 79.9131C47.8546 79.1559 47.5383 78.375 47.2752 77.5756C48.5133 77.1054 49.6512 76.4048 50.6284 75.5109C50.7132 75.5524 50.7971 75.5939 50.8828 75.6335C50.8235 75.7544 50.7657 75.8761 50.7096 75.9985C50.0756 77.3793 49.8254 78.9054 49.9851 80.4164C49.3849 80.2955 48.7953 80.1272 48.2218 79.9131ZM49.7758 82.4838C49.9897 82.5235 50.2044 82.5585 50.4211 82.5889C50.349 82.7343 50.2722 82.8773 50.1906 83.0175C50.0485 82.8423 49.9102 82.6641 49.7758 82.4829V82.4838ZM41.8674 78.6817C41.6922 78.5508 41.5189 78.419 41.3475 78.2853C41.3125 78.2815 41.2774 78.2775 41.2424 78.2734L41.236 78.3222C41.6605 79.2551 42.1853 80.139 42.8011 80.9584C42.4486 80.217 42.1369 79.457 41.8674 78.6817ZM43.3827 86.5367C41.1797 86.1238 39.0515 85.4223 37.1232 84.4001C32.6482 82.0285 29.7189 77.8807 27.9851 73.2637C26.95 73.2596 25.9165 73.1842 24.8918 73.0379C24.6163 72.9866 24.3434 72.922 24.0742 72.8443L23.8963 72.7983C23.5119 72.6969 23.0916 72.5927 22.6907 72.5254C22.2943 72.46 21.9948 72.4443 21.803 72.4683C21.7699 72.6213 21.7477 72.8185 21.7394 73.0656C21.7311 73.2895 21.7339 73.4638 21.7358 73.6509C21.7376 73.7956 21.7394 73.9458 21.7358 74.1338C21.7136 75.6888 21.7975 77.1295 22.1671 78.5609C23.5691 83.9992 26.8219 87.8059 32.2103 89.4724C34.6161 90.2153 37.1877 90.4117 39.7704 90.302C42.7089 90.1794 45.676 89.8199 48.0798 88.5138C47.745 88.1742 47.4213 87.8238 47.1093 87.463C46.9751 87.3823 46.8418 87.3002 46.7092 87.2169C46.0252 87.2193 45.3434 87.1392 44.6786 86.9782C44.2178 86.8658 43.7846 86.7183 43.3827 86.5367ZM59.1508 33.4144C58.14 32.6511 57.0771 31.9594 55.9699 31.3442C58.5434 31.8585 60.856 32.5461 63.5558 33.7038C64.1333 33.9509 64.7021 34.218 65.261 34.5048C64.8033 34.7238 64.3803 35.0089 64.0056 35.351C63.4904 35.8318 63.0383 36.376 62.6598 36.9704C61.7077 35.5676 60.4689 34.3997 59.1508 33.4144ZM46.3156 58.9409L46.2576 58.9437C45.9851 58.9569 45.7145 58.9955 45.4492 59.0589C45.1004 59.6986 44.7887 60.3578 44.5155 61.0332C44.851 60.9042 45.1847 60.765 45.5147 60.6185C45.7469 60.0424 46.0142 59.482 46.3156 58.9409ZM44.7339 63.1993C44.7321 63.2012 44.7312 63.2021 44.7293 63.2021C44.5155 63.2989 44.3053 63.4039 44.097 63.5145L44.0998 63.3763C44.3155 63.3062 44.5302 63.2325 44.7441 63.156L44.7349 63.2002L44.7339 63.1993ZM47.265 56.8928C47.3775 56.902 47.489 56.9122 47.5996 56.926L47.607 56.7057C47.4889 56.7596 47.374 56.8221 47.265 56.8928ZM52.494 55.3793C53.0831 55.2031 53.6629 54.9976 54.2315 54.7636C53.7375 55.1867 53.2388 55.5968 52.7411 55.995C52.6019 55.8983 52.4581 55.8015 52.3106 55.7093L52.494 55.3793ZM66.9192 64.1266C66.968 64.0169 67.016 63.909 67.0611 63.8021L66.8842 63.8759L66.9192 64.1266ZM68.865 66.5157C68.5765 66.5305 68.2935 66.5286 68.0151 66.512C68.5258 65.6603 68.911 64.7598 69.1959 64.0611C69.3387 63.7127 69.4705 63.356 69.5922 62.9919C70.0623 62.8887 70.478 62.8454 70.8495 62.8537C70.9693 63.3551 71.0476 63.8676 71.078 64.3865C70.9306 64.9847 70.7499 65.5755 70.5407 66.1507C70.0067 66.3662 69.4401 66.4896 68.865 66.5157ZM36.1277 58.3427C35.3512 56.6787 34.8429 54.9024 34.6216 53.0796C35.5017 53.7884 36.4543 54.4023 37.4633 54.9111C37.8366 55.0982 38.2136 55.2669 38.5943 55.418L38.5436 55.572C37.9581 57.3542 37.7826 59.2456 38.0302 61.1051C37.3426 60.518 36.7213 59.6156 36.1277 58.3427ZM54.7486 69.315C55.0094 69.3537 55.2602 69.4127 55.5007 69.4902C55.3394 69.6496 55.18 69.8109 55.0214 69.9741C54.7246 69.7473 54.437 69.504 54.1578 69.2487C54.3569 69.2643 54.5541 69.2864 54.7486 69.315ZM60.208 68.0836C60.267 68.1241 60.3279 68.1647 60.3887 68.2034L60.3205 68.326C60.091 68.3961 59.8615 68.4707 59.6338 68.5518C59.8246 68.3933 60.0163 68.2375 60.208 68.0836ZM50.586 69.5786C50.6837 69.5547 50.7815 69.5326 50.8801 69.5095C50.9114 69.7611 50.94 70.0063 50.9676 70.2441L50.9953 70.4838C50.9757 70.4744 50.9563 70.4646 50.9372 70.4543C50.6957 70.3206 50.6054 70.1833 50.5916 69.9363C50.5852 69.8172 50.5834 69.6979 50.586 69.5786Z" fill="#1F6CD6"/>
<path fill-rule="evenodd" clip-rule="evenodd" d="M81.0309 25.0036C81.3023 24.9638 81.5785 25.0334 81.7987 25.197C82.0189 25.3607 82.1651 25.6051 82.2052 25.8765C82.3222 26.6784 82.6107 27.9191 82.9306 29.2151C83.0301 29.6179 83.1324 30.0262 83.232 30.4225C83.444 31.2714 83.6449 32.0697 83.7758 32.6577C83.8262 32.9219 83.7717 33.1953 83.624 33.4201C83.4763 33.6448 83.247 33.8032 82.9845 33.8618C82.722 33.9204 82.447 33.8745 82.2178 33.7339C81.9885 33.5933 81.823 33.369 81.7563 33.1085C81.5907 32.3914 81.4165 31.6764 81.2337 30.9636C81.1323 30.5608 81.0272 30.1386 80.9221 29.7109C80.606 28.4325 80.2916 27.0932 80.1571 26.177C80.1173 25.9054 80.1869 25.6291 80.3508 25.4089C80.5147 25.1887 80.7593 25.0435 81.0309 25.0036ZM91.8345 27.6251C92.2677 27.9974 92.3166 28.651 91.9451 29.0842L86.8479 35.0082C86.7593 35.1112 86.6513 35.1957 86.53 35.257C86.4087 35.3182 86.2766 35.355 86.1411 35.3652C86.0056 35.3754 85.8694 35.3588 85.7404 35.3163C85.6113 35.2739 85.4918 35.2064 85.3888 35.1178C85.2858 35.0292 85.2013 34.9212 85.14 34.7999C85.0788 34.6787 85.042 34.5465 85.0318 34.411C85.0216 34.2755 85.0382 34.1393 85.0807 34.0103C85.1231 33.8812 85.1905 33.7617 85.2791 33.6587L90.3763 27.7347C90.5551 27.5267 90.8091 27.3982 91.0825 27.3775C91.356 27.3568 91.6265 27.4464 91.8345 27.6251ZM89.1375 36.6037C89.005 36.6336 88.8796 36.6894 88.7686 36.7678C88.6577 36.8462 88.5632 36.9457 88.4907 37.0606C88.4181 37.1755 88.3689 37.3036 88.3459 37.4375C88.3228 37.5714 88.3264 37.7086 88.3564 37.8411C88.3863 37.9736 88.4421 38.099 88.5205 38.21C88.5989 38.321 88.6984 38.4154 88.8133 38.488C88.9282 38.5605 89.0563 38.6097 89.1902 38.6327C89.3241 38.6558 89.4612 38.6522 89.5938 38.6223C89.992 38.5319 90.592 38.3153 91.2197 38.0692C91.9408 37.7849 92.6583 37.4915 93.372 37.189C93.725 37.0415 94.0716 36.894 94.4015 36.7539C95.503 36.2875 96.4294 35.8958 96.8331 35.7584C97.0821 35.6624 97.2844 35.4738 97.3977 35.2322C97.511 34.9905 97.5266 34.7144 97.4412 34.4615C97.3558 34.2086 97.176 33.9985 96.9394 33.875C96.7027 33.7516 96.4276 33.7243 96.1713 33.7988C95.6865 33.962 94.6394 34.4053 93.5158 34.8819L92.5691 35.2819C91.8281 35.5935 91.0925 35.8995 90.4676 36.1419C89.8205 36.3944 89.3615 36.5539 89.1375 36.6037Z" fill="#FF8A56"/>
</g>
</svg>
