<svg width="119" height="119" viewBox="0 0 119 119" fill="none" xmlns="http://www.w3.org/2000/svg">
<rect x="0.963623" y="0.104492" width="117.982" height="117.982" rx="8" fill="white"/>
<g clip-path="url(#clip0_10_609)">
<path d="M8.95459 8.09521H110.955V110.095H8.95459V8.09521Z" fill="white"/>
<path d="M8.95459 8.09521H33.5753V11.6125H8.95459V8.09521ZM37.0925 8.09521H40.6098V11.6125H37.0925V8.09521ZM47.6442 8.09521H65.2305V11.6125H47.6442V8.09521ZM72.2649 8.09521H75.7822V11.6125H72.2649V8.09521ZM86.3339 8.09521H110.955V11.6125H86.3339V8.09521ZM8.95459 11.6125H12.4718V15.1297H8.95459V11.6125ZM30.058 11.6125H33.5753V15.1297H30.058V11.6125ZM47.6442 11.6125H51.1615V15.1297H47.6442V11.6125ZM61.7132 11.6125H65.2305V15.1297H61.7132V11.6125ZM68.7477 11.6125H72.2649V15.1297H68.7477V11.6125ZM86.3339 11.6125H89.8511V15.1297H86.3339V11.6125ZM107.437 11.6125H110.955V15.1297H107.437V11.6125ZM8.95459 15.1297H12.4718V18.6469H8.95459V15.1297ZM15.9891 15.1297H26.5408V18.6469H15.9891V15.1297ZM30.058 15.1297H33.5753V18.6469H30.058V15.1297ZM37.0925 15.1297H44.127V18.6469H37.0925V15.1297ZM47.6442 15.1297H51.1615V18.6469H47.6442V15.1297ZM54.6787 15.1297H58.196V18.6469H54.6787V15.1297ZM68.7477 15.1297H72.2649V18.6469H68.7477V15.1297ZM86.3339 15.1297H89.8511V18.6469H86.3339V15.1297ZM93.3684 15.1297H103.92V18.6469H93.3684V15.1297ZM107.437 15.1297H110.955V18.6469H107.437V15.1297ZM8.95459 18.6469H12.4718V22.1642H8.95459V18.6469ZM15.9891 18.6469H26.5408V22.1642H15.9891V18.6469ZM30.058 18.6469H33.5753V22.1642H30.058V18.6469ZM47.6442 18.6469H54.6787V22.1642H47.6442V18.6469ZM61.7132 18.6469H65.2305V22.1642H61.7132V18.6469ZM68.7477 18.6469H72.2649V22.1642H68.7477V18.6469ZM75.7822 18.6469H79.2994V22.1642H75.7822V18.6469ZM86.3339 18.6469H89.8511V22.1642H86.3339V18.6469ZM93.3684 18.6469H103.92V22.1642H93.3684V18.6469ZM107.437 18.6469H110.955V22.1642H107.437V18.6469ZM8.95459 22.1642H12.4718V25.6814H8.95459V22.1642ZM15.9891 22.1642H26.5408V25.6814H15.9891V22.1642ZM30.058 22.1642H33.5753V25.6814H30.058V22.1642ZM40.6098 22.1642H44.127V25.6814H40.6098V22.1642ZM51.1615 22.1642H54.6787V25.6814H51.1615V22.1642ZM61.7132 22.1642H68.7477V25.6814H61.7132V22.1642ZM72.2649 22.1642H75.7822V25.6814H72.2649V22.1642ZM86.3339 22.1642H89.8511V25.6814H86.3339V22.1642ZM93.3684 22.1642H103.92V25.6814H93.3684V22.1642ZM107.437 22.1642H110.955V25.6814H107.437V22.1642ZM8.95459 25.6814H12.4718V29.1987H8.95459V25.6814ZM30.058 25.6814H33.5753V29.1987H30.058V25.6814ZM37.0925 25.6814H40.6098V29.1987H37.0925V25.6814ZM47.6442 25.6814H51.1615V29.1987H47.6442V25.6814ZM54.6787 25.6814H61.7132V29.1987H54.6787V25.6814ZM68.7477 25.6814H75.7822V29.1987H68.7477V25.6814ZM79.2994 25.6814H82.8167V29.1987H79.2994V25.6814ZM86.3339 25.6814H89.8511V29.1987H86.3339V25.6814ZM107.437 25.6814H110.955V29.1987H107.437V25.6814ZM8.95459 29.1987H33.5753V32.7159H8.95459V29.1987ZM37.0925 29.1987H40.6098V32.7159H37.0925V29.1987ZM44.127 29.1987H47.6442V32.7159H44.127V29.1987ZM51.1615 29.1987H54.6787V32.7159H51.1615V29.1987ZM58.196 29.1987H61.7132V32.7159H58.196V29.1987ZM65.2305 29.1987H68.7477V32.7159H65.2305V29.1987ZM72.2649 29.1987H75.7822V32.7159H72.2649V29.1987ZM79.2994 29.1987H82.8167V32.7159H79.2994V29.1987ZM86.3339 29.1987H110.955V32.7159H86.3339V29.1987ZM40.6098 32.7159H47.6442V36.2331H40.6098V32.7159ZM54.6787 32.7159H58.196V36.2331H54.6787V32.7159ZM61.7132 32.7159H65.2305V36.2331H61.7132V32.7159ZM72.2649 32.7159H75.7822V36.2331H72.2649V32.7159ZM8.95459 36.2331H12.4718V39.7504H8.95459V36.2331ZM15.9891 36.2331H19.5063V39.7504H15.9891V36.2331ZM30.058 36.2331H37.0925V39.7504H30.058V36.2331ZM47.6442 36.2331H58.196V39.7504H47.6442V36.2331ZM61.7132 36.2331H72.2649V39.7504H61.7132V36.2331ZM79.2994 36.2331H82.8167V39.7504H79.2994V36.2331ZM89.8511 36.2331H93.3684V39.7504H89.8511V36.2331ZM100.403 36.2331H103.92V39.7504H100.403V36.2331ZM107.437 36.2331H110.955V39.7504H107.437V36.2331ZM12.4718 39.7504H15.9891V43.2676H12.4718V39.7504ZM19.5063 39.7504H30.058V43.2676H19.5063V39.7504ZM40.6098 39.7504H47.6442V43.2676H40.6098V39.7504ZM51.1615 39.7504H54.6787V43.2676H51.1615V39.7504ZM61.7132 39.7504H68.7477V43.2676H61.7132V39.7504ZM72.2649 39.7504H82.8167V43.2676H72.2649V39.7504ZM86.3339 39.7504H93.3684V43.2676H86.3339V39.7504ZM103.92 39.7504H110.955V43.2676H103.92V39.7504ZM8.95459 43.2676H19.5063V46.7849H8.95459V43.2676ZM23.0236 43.2676H33.5753V46.7849H23.0236V43.2676ZM40.6098 43.2676H44.127V46.7849H40.6098V43.2676ZM47.6442 43.2676H65.2305V46.7849H47.6442V43.2676ZM75.7822 43.2676H82.8167V46.7849H75.7822V43.2676ZM89.8511 43.2676H103.92V46.7849H89.8511V43.2676ZM107.437 43.2676H110.955V46.7849H107.437V43.2676ZM15.9891 46.7849H30.058V50.3021H15.9891V46.7849ZM37.0925 46.7849H40.6098V50.3021H37.0925V46.7849ZM44.127 46.7849H47.6442V50.3021H44.127V46.7849ZM58.196 46.7849H65.2305V50.3021H58.196V46.7849ZM72.2649 46.7849H75.7822V50.3021H72.2649V46.7849ZM79.2994 46.7849H93.3684V50.3021H79.2994V46.7849ZM96.8856 46.7849H100.403V50.3021H96.8856V46.7849ZM30.058 50.3021H37.0925V53.8194H30.058V50.3021ZM40.6098 50.3021H44.127V53.8194H40.6098V50.3021ZM51.1615 50.3021H65.2305V53.8194H51.1615V50.3021ZM68.7477 50.3021H72.2649V53.8194H68.7477V50.3021ZM79.2994 50.3021H82.8167V53.8194H79.2994V50.3021ZM86.3339 50.3021H93.3684V53.8194H86.3339V50.3021ZM107.437 50.3021H110.955V53.8194H107.437V50.3021ZM19.5063 53.8194H23.0236V57.3366H19.5063V53.8194ZM26.5408 53.8194H30.058V57.3366H26.5408V53.8194ZM33.5753 53.8194H40.6098V57.3366H33.5753V53.8194ZM44.127 53.8194H47.6442V57.3366H44.127V53.8194ZM51.1615 53.8194H68.7477V57.3366H51.1615V53.8194ZM75.7822 53.8194H82.8167V57.3366H75.7822V53.8194ZM86.3339 53.8194H93.3684V57.3366H86.3339V53.8194ZM103.92 53.8194H110.955V57.3366H103.92V53.8194ZM12.4718 57.3366H23.0236V60.8538H12.4718V57.3366ZM30.058 57.3366H37.0925V60.8538H30.058V57.3366ZM44.127 57.3366H51.1615V60.8538H44.127V57.3366ZM61.7132 57.3366H65.2305V60.8538H61.7132V57.3366ZM72.2649 57.3366H89.8511V60.8538H72.2649V57.3366ZM107.437 57.3366H110.955V60.8538H107.437V57.3366ZM12.4718 60.8538H15.9891V64.3711H12.4718V60.8538ZM26.5408 60.8538H30.058V64.3711H26.5408V60.8538ZM33.5753 60.8538H40.6098V64.3711H33.5753V60.8538ZM47.6442 60.8538H58.196V64.3711H47.6442V60.8538ZM61.7132 60.8538H65.2305V64.3711H61.7132V60.8538ZM75.7822 60.8538H89.8511V64.3711H75.7822V60.8538ZM19.5063 64.3711H26.5408V67.8883H19.5063V64.3711ZM30.058 64.3711H33.5753V67.8883H30.058V64.3711ZM47.6442 64.3711H51.1615V67.8883H47.6442V64.3711ZM54.6787 64.3711H58.196V67.8883H54.6787V64.3711ZM61.7132 64.3711H68.7477V67.8883H61.7132V64.3711ZM79.2994 64.3711H93.3684V67.8883H79.2994V64.3711ZM107.437 64.3711H110.955V67.8883H107.437V64.3711ZM19.5063 67.8883H23.0236V71.4056H19.5063V67.8883ZM33.5753 67.8883H37.0925V71.4056H33.5753V67.8883ZM44.127 67.8883H51.1615V71.4056H44.127V67.8883ZM61.7132 67.8883H68.7477V71.4056H61.7132V67.8883ZM72.2649 67.8883H79.2994V71.4056H72.2649V67.8883ZM86.3339 67.8883H93.3684V71.4056H86.3339V67.8883ZM100.403 67.8883H110.955V71.4056H100.403V67.8883ZM8.95459 71.4056H15.9891V74.9228H8.95459V71.4056ZM19.5063 71.4056H23.0236V74.9228H19.5063V71.4056ZM26.5408 71.4056H65.2305V74.9228H26.5408V71.4056ZM72.2649 71.4056H82.8167V74.9228H72.2649V71.4056ZM96.8856 71.4056H100.403V74.9228H96.8856V71.4056ZM107.437 71.4056H110.955V74.9228H107.437V71.4056ZM15.9891 74.9228H19.5063V78.44H15.9891V74.9228ZM23.0236 74.9228H26.5408V78.44H23.0236V74.9228ZM37.0925 74.9228H40.6098V78.44H37.0925V74.9228ZM44.127 74.9228H47.6442V78.44H44.127V74.9228ZM58.196 74.9228H61.7132V78.44H58.196V74.9228ZM65.2305 74.9228H68.7477V78.44H65.2305V74.9228ZM72.2649 74.9228H75.7822V78.44H72.2649V74.9228ZM86.3339 74.9228H96.8856V78.44H86.3339V74.9228ZM8.95459 78.44H19.5063V81.9573H8.95459V78.44ZM26.5408 78.44H37.0925V81.9573H26.5408V78.44ZM40.6098 78.44H61.7132V81.9573H40.6098V78.44ZM65.2305 78.44H68.7477V81.9573H65.2305V78.44ZM75.7822 78.44H100.403V81.9573H75.7822V78.44ZM103.92 78.44H107.437V81.9573H103.92V78.44ZM37.0925 81.9573H44.127V85.4745H37.0925V81.9573ZM47.6442 81.9573H51.1615V85.4745H47.6442V81.9573ZM54.6787 81.9573H68.7477V85.4745H54.6787V81.9573ZM72.2649 81.9573H82.8167V85.4745H72.2649V81.9573ZM93.3684 81.9573H103.92V85.4745H93.3684V81.9573ZM107.437 81.9573H110.955V85.4745H107.437V81.9573ZM8.95459 85.4745H33.5753V88.9918H8.95459V85.4745ZM37.0925 85.4745H44.127V88.9918H37.0925V85.4745ZM51.1615 85.4745H54.6787V88.9918H51.1615V85.4745ZM61.7132 85.4745H65.2305V88.9918H61.7132V85.4745ZM72.2649 85.4745H75.7822V88.9918H72.2649V85.4745ZM79.2994 85.4745H82.8167V88.9918H79.2994V85.4745ZM86.3339 85.4745H89.8511V88.9918H86.3339V85.4745ZM93.3684 85.4745H96.8856V88.9918H93.3684V85.4745ZM107.437 85.4745H110.955V88.9918H107.437V85.4745ZM8.95459 88.9918H12.4718V92.509H8.95459V88.9918ZM30.058 88.9918H33.5753V92.509H30.058V88.9918ZM40.6098 88.9918H51.1615V92.509H40.6098V88.9918ZM54.6787 88.9918H58.196V92.509H54.6787V88.9918ZM75.7822 88.9918H82.8167V92.509H75.7822V88.9918ZM93.3684 88.9918H96.8856V92.509H93.3684V88.9918ZM103.92 88.9918H110.955V92.509H103.92V88.9918ZM8.95459 92.509H12.4718V96.0263H8.95459V92.509ZM15.9891 92.509H26.5408V96.0263H15.9891V92.509ZM30.058 92.509H33.5753V96.0263H30.058V92.509ZM40.6098 92.509H44.127V96.0263H40.6098V92.509ZM51.1615 92.509H58.196V96.0263H51.1615V92.509ZM61.7132 92.509H65.2305V96.0263H61.7132V92.509ZM72.2649 92.509H100.403V96.0263H72.2649V92.509ZM103.92 92.509H110.955V96.0263H103.92V92.509ZM8.95459 96.0263H12.4718V99.5435H8.95459V96.0263ZM15.9891 96.0263H26.5408V99.5435H15.9891V96.0263ZM30.058 96.0263H33.5753V99.5435H30.058V96.0263ZM47.6442 96.0263H58.196V99.5435H47.6442V96.0263ZM61.7132 96.0263H65.2305V99.5435H61.7132V96.0263ZM72.2649 96.0263H75.7822V99.5435H72.2649V96.0263ZM82.8167 96.0263H86.3339V99.5435H82.8167V96.0263ZM93.3684 96.0263H103.92V99.5435H93.3684V96.0263ZM107.437 96.0263H110.955V99.5435H107.437V96.0263ZM8.95459 99.5435H12.4718V103.061H8.95459V99.5435ZM15.9891 99.5435H26.5408V103.061H15.9891V99.5435ZM30.058 99.5435H33.5753V103.061H30.058V99.5435ZM37.0925 99.5435H40.6098V103.061H37.0925V99.5435ZM51.1615 99.5435H54.6787V103.061H51.1615V99.5435ZM58.196 99.5435H72.2649V103.061H58.196V99.5435ZM75.7822 99.5435H86.3339V103.061H75.7822V99.5435ZM93.3684 99.5435H96.8856V103.061H93.3684V99.5435ZM103.92 99.5435H110.955V103.061H103.92V99.5435ZM8.95459 103.061H12.4718V106.578H8.95459V103.061ZM30.058 103.061H33.5753V106.578H30.058V103.061ZM40.6098 103.061H47.6442V106.578H40.6098V103.061ZM51.1615 103.061H58.196V106.578H51.1615V103.061ZM61.7132 103.061H68.7477V106.578H61.7132V103.061ZM75.7822 103.061H82.8167V106.578H75.7822V103.061ZM93.3684 103.061H100.403V106.578H93.3684V103.061ZM8.95459 106.578H33.5753V110.095H8.95459V106.578ZM37.0925 106.578H40.6098V110.095H37.0925V106.578ZM44.127 106.578H72.2649V110.095H44.127V106.578ZM79.2994 106.578H82.8167V110.095H79.2994V106.578ZM86.3339 106.578H93.3684V110.095H86.3339V106.578ZM107.437 106.578H110.955V110.095H107.437V106.578Z" fill="black"/>
</g>
<defs>
<clipPath id="clip0_10_609">
<rect width="102" height="102" fill="white" transform="translate(8.95459 8.09521)"/>
</clipPath>
</defs>
</svg>
