<svg width="296" height="296" viewBox="0 0 296 296" fill="none" xmlns="http://www.w3.org/2000/svg">
<g clip-path="url(#clip0_10_569)">
<path d="M148.5 282.76C223.167 282.76 283.696 222.231 283.696 147.564C283.696 72.8967 223.167 12.3672 148.5 12.3672C73.8331 12.3672 13.3036 72.8967 13.3036 147.564C13.3036 222.231 73.8331 282.76 148.5 282.76Z" fill="#5FC69B"/>
<mask id="mask0_10_569" style="mask-type:luminance" maskUnits="userSpaceOnUse" x="13" y="12" width="271" height="271">
<path d="M148.5 282.76C223.167 282.76 283.696 222.231 283.696 147.564C283.696 72.8967 223.167 12.3672 148.5 12.3672C73.8331 12.3672 13.3036 72.8967 13.3036 147.564C13.3036 222.231 73.8331 282.76 148.5 282.76Z" fill="white"/>
</mask>
<g mask="url(#mask0_10_569)">
<path d="M104.663 127.316C96.6827 127.316 87.6844 126.518 82.237 120.613C77.09 115.025 76.6904 106.307 79.1239 99.125C79.7219 97.7716 80.0475 96.3137 80.0823 94.8346C79.9231 92.3412 77.9478 90.4257 76.4714 88.4301C74.4122 85.4029 73.1498 81.9053 72.801 78.2608C72.4522 74.6163 73.0282 70.9427 74.4758 67.5799C77.5115 60.8777 82.7692 55.4298 89.3594 52.158C92.9905 50.1623 96.9017 48.8857 100.453 46.8099C103.646 44.9351 106.438 42.4812 110.07 41.304C118.39 38.5306 127.089 43.6777 135.768 44.9351C139.958 45.5537 144.207 45.2342 148.397 45.6733C154.672 46.3443 160.656 48.6715 165.736 52.4164C167.713 53.7407 169.336 55.5287 170.464 57.6244C171.265 59.5922 171.711 61.6865 171.781 63.81L173.217 79.5717C173.656 82.4479 173.656 85.3744 173.217 88.2506C171.901 94.5558 166.693 99.2243 161.625 103.214C154.941 108.47 147.995 113.384 140.815 117.939C133.633 122.488 125.771 126.797 117.272 126.737" fill="#763D2A"/>
<path d="M266.117 183.342C258.427 151.038 244.533 138.311 242.152 134.609C239.777 131.752 225.329 121.382 222.04 119.655C207.542 111.438 191.197 107.037 174.534 106.862C157.871 106.688 141.437 110.747 126.771 118.658L121.702 129.572C99.5242 143.629 84.4815 156.64 64.3409 173.488C56.7483 183.342 51.0127 189.422 48.1436 199.62C40.2687 227.623 49.218 237.557 38.9024 242.325C39.2482 271.592 54.8364 249.099 61.3474 277.634C61.4513 278.703 61.7701 279.74 62.2844 280.682C62.7988 281.625 63.4983 282.454 64.3409 283.12C65.8775 283.795 67.5855 283.976 69.2295 283.64L154.735 302.626L242.152 265.523C244.535 265.55 246.85 264.722 248.676 263.189C249.988 261.471 250.691 259.365 250.671 257.203C253.963 217.34 275.375 222.228 266.117 183.342Z" fill="white"/>
<path d="M111.448 135.658C127.035 160.894 143.972 185.27 162.185 208.681C165.437 175.641 168.69 142.102 162.983 109.381C149.153 114.486 135.6 120.314 122.381 126.839" fill="#D8D8D8"/>
<path d="M93.6905 148.046C96.386 159.258 99.8523 170.271 104.065 181.006C108.757 178.17 113.683 175.741 118.789 173.744L113.841 187.251C113.461 188.074 113.31 188.984 113.403 189.885C113.693 190.787 114.241 191.584 114.979 192.18C128.696 205.501 144.78 216.145 162.404 223.564M165.915 106.387C185.129 111.255 194.327 139.088 193.369 139.587C188.583 142.087 183.733 144.462 178.824 146.71L187.982 151.678C188.631 151.969 189.204 152.406 189.657 152.955C189.979 153.565 190.163 154.238 190.198 154.928C190.232 155.617 190.116 156.305 189.857 156.945C185.139 176.713 178.689 196.029 170.584 214.666" stroke="#252D37" stroke-width="1.18899" stroke-miterlimit="10" stroke-linecap="round"/>
<path d="M145.924 68.7188V68.5992C144.268 65.5256 143.829 61.6551 141.195 59.3807C140.234 58.6346 139.123 58.1042 137.939 57.8254C136.755 57.5467 135.525 57.5263 134.332 57.7655C131.95 58.2661 129.692 59.2357 127.688 60.6178C123.259 63.4713 119.348 67.1419 114.679 69.5767C110.011 72.0102 104.345 73.1875 99.0564 74.7441C95.8046 75.6821 92.3529 77.0173 90.5774 79.9114C88.4824 83.3631 89.4802 87.772 90.3979 91.7226C91.1564 94.9948 91.8336 98.3065 92.3935 101.698C92.6554 104.842 93.1756 107.958 93.9489 111.016C94.9321 113.71 96.0784 116.342 97.3814 118.897C98.1448 120.883 99.3931 122.646 101.013 124.025C104.065 126.021 106.599 130.809 109.512 133.302C115.688 138.677 123.202 142.282 131.26 143.737C136.302 144.739 141.525 144.318 146.343 142.521C154.702 139.069 160.07 130.31 162.484 121.311C164.113 115.208 164.606 108.858 163.94 102.577C163.641 99.564 162.424 96.4114 162.424 93.3988C162.033 89.9991 160.925 86.7211 159.172 83.7819C157.177 79.9916 153.486 77.1584 150.493 74.1853C148.716 72.5915 147.177 70.7513 145.924 68.7188Z" fill="#E67C40"/>
<path d="M90.3584 106.269C92.6723 111.855 102.33 114.888 108.314 114.11C114.3 113.331 119.747 110.299 125.334 107.964C129.892 106.348 134.332 104.415 138.621 102.178C147.707 96.1779 155.127 87.9758 160.189 78.3359C161.966 83.1049 164.399 87.5341 166.175 92.3018C169.775 102.945 169.62 114.5 165.736 125.043C165.098 126.74 164.259 128.336 163.741 130.071C163.222 131.807 163.183 133.683 162.863 135.498C161.966 140.717 159.18 145.423 155.036 148.721C150.892 152.019 145.68 153.677 140.393 153.38C136.89 153.182 133.488 152.133 130.482 150.323C128.821 149.083 126.967 148.126 124.995 147.49C123.399 147.15 121.723 147.49 120.127 147.19C116.675 146.671 114.001 143.958 111.766 141.205C103.646 131.567 94.3485 122.231 90.3584 110.259" fill="#763D2A"/>
<path d="M146.881 107.025C146.769 106.595 146.524 106.212 146.183 105.928C145.944 105.789 145.678 105.701 145.403 105.67C145.129 105.639 144.85 105.666 144.587 105.749C141.056 106.407 138.302 109.021 135.349 111.036C130.955 114.072 125.86 115.94 120.544 116.463L119.608 116.902C117.851 118.578 118.49 121.65 120.106 123.446C122.88 126.519 127.648 127.077 131.658 126.02C136.605 124.505 140.921 121.416 143.949 117.221C146.223 114.248 147.999 110.537 146.881 107.025Z" fill="#252D37"/>
<path d="M102.03 98.2864C101.157 99.2155 100.545 100.358 100.254 101.598C100.131 102.219 100.204 102.863 100.461 103.442C100.717 104.02 101.147 104.505 101.69 104.831C102.449 105.034 103.246 105.047 104.012 104.869C104.777 104.692 105.487 104.329 106.079 103.813L109.89 101.419C111.546 100.381 113.382 99.0246 113.442 97.0888C113.502 95.1542 110.31 88.3106 102.03 98.2852V98.2864ZM143.809 81.7063C145.125 81.6009 146.444 81.8635 147.619 82.4648C148.183 82.8172 148.609 83.3516 148.827 83.9795C149.045 84.6074 149.041 85.2909 148.817 85.9165C148.366 86.6941 147.753 87.3655 147.02 87.8853C146.287 88.4051 145.45 88.7611 144.567 88.9291L139.778 90.4845C137.784 91.1437 135.25 91.7623 133.794 90.4845C132.336 89.2079 129.903 81.7661 143.809 81.7063Z" fill="white"/>
<path d="M107.317 100.282C108.11 100.282 108.872 99.9664 109.433 99.4051C109.994 98.8438 110.309 98.0826 110.309 97.2888C110.309 96.4951 109.994 95.7338 109.433 95.1725C108.872 94.6113 108.11 94.2959 107.317 94.2959C106.523 94.2959 105.762 94.6113 105.2 95.1725C104.639 95.7338 104.324 96.4951 104.324 97.2888C104.324 98.0826 104.639 98.8438 105.2 99.4051C105.762 99.9664 106.523 100.282 107.317 100.282ZM141.234 88.3114C142.028 88.3114 142.789 87.9961 143.35 87.4348C143.912 86.8736 144.227 86.1123 144.227 85.3186C144.227 84.5248 143.912 83.7635 143.35 83.2023C142.789 82.641 142.028 82.3257 141.234 82.3257C140.44 82.3257 139.679 82.641 139.118 83.2023C138.557 83.7635 138.241 84.5248 138.241 85.3186C138.241 86.1123 138.557 86.8736 139.118 87.4348C139.679 87.9961 140.44 88.3114 141.234 88.3114Z" fill="#252D37"/>
<path d="M233.981 252.896C229.612 245.114 224.604 237.592 221.032 229.571C219.426 226.26 217.034 223.392 214.064 221.218C211.094 219.044 207.636 217.631 203.994 217.102C196.212 215.686 188.251 217.102 180.411 218.119C173.846 218.977 166.984 219.636 161.337 223.047C155.691 226.459 148.507 239.149 154.952 244.496C163.093 251.24 177.259 246.751 186.875 249.504C196.013 252.117 202.837 259.599 209.081 266.762C209.63 267.539 210.414 268.119 211.316 268.418C212.255 268.495 213.194 268.264 213.99 267.76C220.634 264.416 226.654 259.955 231.787 254.572" fill="#E67C40"/>
<path d="M100.693 94.9148C103.053 92.7567 105.706 90.9432 108.574 89.5285C109.053 89.2688 109.592 88.9494 109.671 88.3906C109.676 88.1514 109.628 87.9121 109.532 87.6919C109.256 86.9871 108.835 86.3483 108.295 85.8171C108.133 85.6081 107.91 85.4547 107.656 85.378C107.408 85.3082 107.146 85.3082 106.898 85.378C103.971 86.0954 101.299 87.6075 99.1773 89.7474C98.0329 90.6935 97.1186 91.8873 96.5032 93.2386C96.3441 93.5784 95.1668 97.4285 95.7447 97.5086C97.6602 97.7683 99.2766 96.2919 100.693 94.9148ZM144.785 75.1031C144.829 74.5922 144.688 74.0825 144.387 73.6674C143.09 71.8716 140.496 71.7914 138.521 71.8309C136.474 71.8476 134.431 72.0343 132.415 72.3896C131.409 72.5959 130.427 72.9034 129.483 73.3073C128.6 73.626 127.777 74.0912 127.048 74.6832C126.11 75.7013 127.048 78.2964 128.126 78.8946C128.661 79.1316 129.248 79.2285 129.831 79.1762C130.414 79.1239 130.974 78.924 131.458 78.5955C132.096 78.416 132.714 78.1361 133.333 77.9159C135.273 77.2838 137.283 76.8889 139.319 76.7398C140.337 76.6202 141.314 76.5197 142.331 76.3606C142.89 76.3606 144.147 76.2206 144.506 75.7623C144.589 75.6212 144.643 75.4644 144.665 75.3029C144.717 75.244 144.757 75.1763 144.785 75.1031Z" fill="#763D2A"/>
<path d="M117.915 87.7744C116.741 91.2161 116.139 94.8269 116.133 98.4633C116.07 98.9981 116.116 99.5401 116.271 100.055C116.426 100.57 116.686 101.048 117.034 101.459C117.63 101.839 118.332 102.018 119.037 101.969C119.742 101.919 120.412 101.644 120.949 101.184C121.99 100.242 123.125 99.409 124.336 98.6978" stroke="#252D37" stroke-width="1.18899" stroke-miterlimit="10" stroke-linecap="round"/>
<path d="M81.4977 240.707C76.0898 227.926 76.5409 210.659 77.7768 202.678C110.143 193.847 173.802 190.427 208.237 189.712C215.726 198.318 213.408 217.513 211.957 227.741C171.571 230.826 122.36 234.796 81.4977 240.707Z" fill="#2C64D8"/>
<path d="M114.805 228.28L113.421 203.563M113.664 204.555C119.657 203.161 124.366 204.336 124.629 206.997C125.14 212.177 118.057 213.408 114.34 213.982C118.591 213.131 127.28 213.71 128.934 216.962C131.417 221.847 123.246 227.444 114.435 227.563" stroke="#333333" stroke-width="1.62932" stroke-linecap="round" stroke-linejoin="round"/>
<path d="M135.655 219.689C135.113 218.379 135.035 217.179 135.244 216.111C136.072 211.856 142.252 210.04 145.312 213.109C147.349 215.155 146.874 218.208 146.15 220.245C145.022 223.42 137.97 225.269 135.655 219.689ZM160.649 211.672C162.558 213.419 162.906 215.493 162.636 217.306C162.245 219.926 159.873 221.87 157.23 222.04C152.469 222.345 151.164 218.326 150.905 215.607C150.584 212.253 156.192 207.594 160.649 211.672Z" stroke="#333333" stroke-width="1.62932" stroke-linejoin="round"/>
<path d="M166.651 201.552L167.987 221.809M167.566 214.177L176.757 206.115M170.671 212.141C173.572 214.663 176.126 218.172 178.468 220.866" stroke="#333333" stroke-width="1.62932" stroke-linecap="round" stroke-linejoin="round"/>
</g>
</g>
<defs>
<clipPath id="clip0_10_569">
<rect width="295.664" height="295.664" fill="white" transform="translate(0.113525 0.059082)"/>
</clipPath>
</defs>
</svg>
