<svg width="25" height="27" viewBox="0 0 25 27" fill="none" xmlns="http://www.w3.org/2000/svg">
<g clip-path="url(#clip0_35_101)">
<path d="M24.7062 24.1008L17.6887 16.7584C19.1182 15.069 20.0278 12.8597 20.0278 10.4556C20.0278 5.06246 15.6744 0.708984 10.2813 0.708984C4.88814 0.708984 0.534668 5.06246 0.534668 10.4556C0.534668 15.8487 4.88814 20.2022 10.2813 20.2022C11.9057 20.2022 13.4002 19.8123 14.6997 19.0975L21.9772 26.6999L24.7062 24.1008ZM2.93883 10.4556C2.93883 6.42698 6.25267 3.11314 10.2813 3.11314C14.3098 3.11314 17.6237 6.36201 17.6237 10.4556C17.6237 14.5491 14.3098 17.798 10.2813 17.798C6.25267 17.798 2.93883 14.4842 2.93883 10.4556Z" fill="white"/>
</g>
<defs>
<clipPath id="clip0_35_101">
<rect width="24.6956" height="25.9909" fill="white" transform="translate(0.272705 0.708984)"/>
</clipPath>
</defs>
</svg>
