<svg width="119" height="119" viewBox="0 0 119 119" fill="none" xmlns="http://www.w3.org/2000/svg">
<g clip-path="url(#clip0_10_460)">
<mask id="mask0_10_460" style="mask-type:luminance" maskUnits="userSpaceOnUse" x="0" y="0" width="119" height="119">
<path d="M0.627197 0.82666H118.609V118.809H0.627197V0.82666Z" fill="white"/>
</mask>
<g mask="url(#mask0_10_460)">
<path d="M59.3371 118.246C91.7616 118.246 118.047 91.9611 118.047 59.5365C118.047 27.112 91.7616 0.82666 59.3371 0.82666C26.9125 0.82666 0.627197 27.112 0.627197 59.5365C0.627197 91.9611 26.9125 118.246 59.3371 118.246Z" fill="white"/>
<path fill-rule="evenodd" clip-rule="evenodd" d="M40.7715 73.4272C49.3667 73.4272 56.4825 67.0949 57.7084 58.8408H65.6924C66.9183 67.0949 74.0341 73.4272 82.6293 73.4272C92.0863 73.4272 99.7533 65.7612 99.7533 56.3032C99.7533 46.8462 92.0863 39.1802 82.6293 39.1802C74.2553 39.1802 67.2861 45.1899 65.7984 53.1334H57.6024C56.1147 45.1908 49.1455 39.1802 40.7715 39.1802C31.3145 39.1802 23.6475 46.8462 23.6475 56.3032C23.6475 65.7602 31.3145 73.4272 40.7715 73.4272Z" fill="#2C64D8"/>
<path d="M82.6284 67.7189C89.2833 67.7189 94.6782 62.466 94.6782 55.9862C94.6782 49.5064 89.2833 44.2534 82.6284 44.2534C75.9734 44.2534 70.5786 49.5064 70.5786 55.9862C70.5786 62.466 75.9734 67.7189 82.6284 67.7189Z" fill="#FDFAEE"/>
<path d="M40.7697 67.7189C47.4246 67.7189 52.8195 62.466 52.8195 55.9862C52.8195 49.5064 47.4246 44.2534 40.7697 44.2534C34.1147 44.2534 28.7198 49.5064 28.7198 55.9862C28.7198 62.466 34.1147 67.7189 40.7697 67.7189Z" fill="#FDFAEE"/>
<mask id="mask1_10_460" style="mask-type:luminance" maskUnits="userSpaceOnUse" x="28" y="44" width="25" height="24">
<path d="M40.7706 67.7199C47.4255 67.7199 52.8204 62.467 52.8204 55.9872C52.8204 49.5073 47.4255 44.2544 40.7706 44.2544C34.1157 44.2544 28.7208 49.5073 28.7208 55.9872C28.7208 62.467 34.1157 67.7199 40.7706 67.7199Z" fill="white"/>
</mask>
<g mask="url(#mask1_10_460)">
<path d="M36.0154 64.5489C40.3938 64.5489 43.9432 60.8575 43.9432 56.304C43.9432 51.7505 40.3938 48.0591 36.0154 48.0591C31.6369 48.0591 28.0875 51.7505 28.0875 56.304C28.0875 60.8575 31.6369 64.5489 36.0154 64.5489Z" fill="#252D37"/>
</g>
<path fill-rule="evenodd" clip-rule="evenodd" d="M86.7135 56.9565C87.6859 56.4062 88.5413 55.573 89.4151 54.4125C89.4953 54.2999 89.5972 54.2044 89.7148 54.1318C89.8325 54.0592 89.9635 54.0109 90.1001 53.9897C90.2367 53.9686 90.3762 53.975 90.5103 54.0086C90.6444 54.0423 90.7704 54.1024 90.8809 54.1856C90.9913 54.2687 91.084 54.3731 91.1535 54.4926C91.2229 54.6122 91.2678 54.7444 91.2853 54.8816C91.3028 55.0187 91.2926 55.158 91.2554 55.2911C91.2182 55.4243 91.1547 55.5486 91.0687 55.6569C90.0963 56.9473 89.039 58.0174 87.732 58.7576C86.4139 59.5032 84.9115 59.8747 83.1058 59.8747C81.3527 59.8747 79.9268 59.7908 78.2308 58.8359L77.9957 58.7041L77.993 58.7023C77.5164 58.4377 76.9044 58.0967 76.356 57.704C75.7292 57.2561 75.0066 56.6191 74.6858 55.7592C74.6329 55.6308 74.6064 55.4931 74.6078 55.3542C74.6092 55.2154 74.6386 55.0782 74.6941 54.9509C74.7496 54.8237 74.8302 54.7089 74.931 54.6134C75.0318 54.5179 75.1508 54.4436 75.2809 54.3951C75.411 54.3465 75.5495 54.3246 75.6882 54.3307C75.8269 54.3368 75.963 54.3707 76.0883 54.4305C76.2137 54.4903 76.3257 54.5746 76.4178 54.6786C76.5098 54.7825 76.58 54.904 76.6242 55.0356C76.721 55.2937 77.0122 55.6292 77.5598 56.0219C78.004 56.3389 78.4981 56.6145 78.9765 56.8809L78.9783 56.8828L79.2465 57.0321C80.4632 57.7179 81.4449 57.8054 83.1058 57.8054C84.611 57.8054 85.7521 57.5003 86.7135 56.9565ZM64.2481 57.763C64.4975 57.6488 64.782 57.6382 65.0391 57.7336C65.2963 57.829 65.5051 58.0226 65.6196 58.2718C67.2317 61.7836 68.6659 65.3203 70.1011 68.8579L70.3076 69.3677C70.5647 70.0009 70.8265 70.565 71.0984 71.1503C71.3049 71.5955 71.5169 72.0536 71.7381 72.5642C72.2155 73.6703 72.6515 74.8593 72.8432 76.1737C72.9963 77.2236 72.6939 78.1057 72.0266 78.7454C71.4164 79.3307 70.5924 79.6256 69.8365 79.7897C68.5212 80.0745 66.9681 80.0413 65.9855 80.0201C65.8562 80.0172 65.7269 80.0147 65.5975 80.0128C63.5347 79.9851 61.3409 79.81 59.2744 79.3196C59.1765 79.3006 59.0782 79.2843 58.9794 79.2708C58.7946 79.244 58.6105 79.2124 58.4273 79.1758C58.2036 79.1327 57.9845 79.0685 57.7729 78.9841C57.595 78.9094 57.2014 78.7233 56.9802 78.3048C56.8651 78.0851 56.8327 77.8313 56.889 77.5897C56.9452 77.3482 57.0864 77.1348 57.2867 76.9885C57.487 76.8423 57.7332 76.7728 57.9804 76.7927C58.2277 76.8127 58.4595 76.9208 58.6338 77.0973C58.6826 77.1121 58.7536 77.1305 58.8467 77.1499C58.985 77.1775 59.1343 77.2015 59.2901 77.2254L59.3269 77.231C59.4541 77.2494 59.6219 77.2761 59.7509 77.3065C61.6184 77.749 63.6489 77.9177 65.6251 77.9435L66.0602 77.9508C67.0686 77.9711 68.3443 77.9951 69.3987 77.7665C70.0034 77.6365 70.3887 77.4494 70.5942 77.2522C70.7417 77.1111 70.8597 76.913 70.7952 76.4724C70.6421 75.4216 70.2873 74.4234 69.8384 73.3846C69.6688 72.9938 69.4697 72.5633 69.2642 72.1172C68.9576 71.4664 68.6659 70.8088 68.3894 70.1447L68.1885 69.6488C66.7497 66.1001 65.3311 62.603 63.7393 59.1355C63.6248 58.886 63.614 58.6013 63.7095 58.3439C63.8049 58.0865 63.9986 57.8776 64.2481 57.763ZM49.0828 80.3575C49.0633 80.223 49.0175 80.0937 48.948 79.9769C48.8786 79.8601 48.7868 79.7582 48.6779 79.6768C48.569 79.5955 48.4452 79.5365 48.3135 79.503C48.1818 79.4695 48.0448 79.4624 47.9103 79.4818C47.6387 79.5212 47.3939 79.6668 47.2297 79.8867C47.1484 79.9956 47.0893 80.1194 47.0558 80.2511C47.0224 80.3828 47.0152 80.5198 47.0347 80.6543C47.3785 83.0278 48.8523 85.0187 50.6082 86.4022C52.3586 87.7793 54.521 88.6605 56.4327 88.6909C56.7027 88.6886 56.9612 88.5809 57.153 88.3907C57.3447 88.2005 57.4545 87.9429 57.459 87.6729C57.4634 87.4028 57.3621 87.1418 57.1768 86.9454C56.9914 86.749 56.7366 86.6328 56.4668 86.6216C55.1072 86.5995 53.3698 85.9414 51.8885 84.7763C50.4147 83.6149 49.3289 82.0581 49.0828 80.3575Z" fill="#252D37"/>
</g>
</g>
<defs>
<clipPath id="clip0_10_460">
<rect width="117.982" height="117.982" fill="white" transform="translate(0.627197 0.82666)"/>
</clipPath>
</defs>
</svg>
