<svg width="119" height="119" viewBox="0 0 119 119" fill="none" xmlns="http://www.w3.org/2000/svg">
<g clip-path="url(#clip0_10_397)">
<mask id="mask0_10_397" style="mask-type:luminance" maskUnits="userSpaceOnUse" x="0" y="0" width="119" height="119">
<path d="M0.331787 0.82666H118.314V118.809H0.331787V0.82666Z" fill="white"/>
</mask>
<g mask="url(#mask0_10_397)">
<path d="M59.0417 118.246C91.4662 118.246 117.752 91.9611 117.752 59.5365C117.752 27.112 91.4662 0.82666 59.0417 0.82666C26.6171 0.82666 0.331787 27.112 0.331787 59.5365C0.331787 91.9611 26.6171 118.246 59.0417 118.246Z" fill="white"/>
<path d="M73.6604 30.0366C60.498 30.0366 57.7752 40.3978 57.7291 40.5784C57.6821 40.3959 54.9565 30.0356 41.7978 30.0356C34.7853 30.0356 25.8666 35.308 25.8666 48.486C25.8666 54.9704 28.7101 59.8095 32.2394 63.5858C37.0186 63.1453 37.6694 67.4617 39.8862 69.1365C49.7635 78.9115 48.8085 73.5507 48.8085 73.5507C48.8085 73.5507 44.6303 69.0444 76.3159 69.5716C82.0739 65.2229 89.5916 59.0288 89.5916 48.486C89.5916 35.307 80.6757 30.0366 73.6604 30.0366Z" fill="#1F6CD6"/>
<path d="M92.1338 83.1377C92.2672 83.1653 92.4049 83.1663 92.5387 83.1405C92.6726 83.1148 92.8001 83.0628 92.9138 82.9876C93.0275 82.9124 93.1252 82.8155 93.2013 82.7024C93.2775 82.5893 93.3305 82.4623 93.3573 82.3287C93.3842 82.195 93.3843 82.0574 93.3578 81.9236C93.3313 81.7899 93.2786 81.6628 93.2027 81.5495C93.1269 81.4362 93.0294 81.3391 92.9158 81.2636C92.8023 81.1882 92.675 81.1359 92.5412 81.1098L92.1338 83.1377ZM64.0301 79.7669C64.1585 79.7225 64.2769 79.6532 64.3786 79.563C64.4802 79.4728 64.5631 79.3635 64.6225 79.2412C64.6819 79.119 64.7167 78.9863 64.7248 78.8506C64.7329 78.715 64.7142 78.5791 64.6698 78.4506C64.6253 78.3222 64.5561 78.2038 64.4659 78.1021C64.3757 78.0005 64.2664 77.9176 64.1441 77.8582C64.0219 77.7988 63.8892 77.7641 63.7535 77.7559C63.6179 77.7478 63.482 77.7665 63.3535 77.811L64.0301 79.7669ZM87.3684 97.9702C87.608 98.1039 87.8908 98.137 88.1548 98.0622C88.4187 97.9873 88.6422 97.8107 88.7759 97.5711C88.9096 97.3315 88.9427 97.0487 88.8678 96.7847C88.793 96.5207 88.6163 96.2973 88.3768 96.1636L87.3684 97.9702ZM30.5822 67.9272L29.5674 67.7244L29.5581 67.7742L29.5526 67.8249L30.5822 67.9272ZM49.192 79.0756C49.4595 79.0533 49.7079 78.928 49.8847 78.7261C50.0616 78.5241 50.1531 78.2614 50.14 77.9933C50.1268 77.7252 50.01 77.4727 49.8142 77.2891C49.6185 77.1054 49.359 77.005 49.0906 77.0091L49.192 79.0756ZM92.5412 81.1098C91.9964 80.9992 91.0268 80.7246 89.9852 80.2619C88.9381 79.7991 87.8864 79.177 87.1186 78.4046L85.6521 79.8655C86.6688 80.8868 87.974 81.6352 89.1464 82.1542C90.3253 82.6768 91.4388 82.9985 92.1328 83.1386L92.5412 81.1098ZM87.1186 78.4046C85.0908 76.3675 82.8906 71.8298 75.3868 70.6408L75.0623 72.6852C81.6951 73.736 83.2151 77.4183 85.6521 79.8655L87.1186 78.4046ZM75.3868 70.6408C69.4001 69.6914 67.4119 69.8684 64.8762 70.3652C62.5147 70.8288 59.6749 71.5644 51.7627 71.7496L51.8116 73.8171C59.897 73.6291 62.8705 72.8686 65.2744 72.3967C67.505 71.9589 69.2379 71.7607 75.0632 72.6852L75.3858 70.6417L75.3868 70.6408ZM51.7627 71.7496C50.4068 71.781 49.3201 72.1847 48.5569 72.9202C47.7965 73.6521 47.4693 74.607 47.425 75.5306C47.3817 76.4468 47.6112 77.3741 48.0149 78.1585C48.415 78.9364 49.0307 79.6563 49.8344 80.06L50.7636 78.2101C50.4511 78.0534 50.1128 77.7123 49.8547 77.2118C49.6003 76.7241 49.4752 76.1791 49.4916 75.6292C49.5164 75.1186 49.6879 74.7029 49.993 74.4098C50.2944 74.1185 50.8382 73.8401 51.8116 73.8171L51.7627 71.7496ZM49.8344 80.06C51.1664 80.7282 53.4052 81.0942 55.8801 81.0923C58.3927 81.0914 61.2999 80.7107 64.0301 79.7669L63.3535 77.811C60.8759 78.6682 58.202 79.0221 55.8783 79.023C53.5168 79.0249 51.665 78.6626 50.7636 78.2101L49.8344 80.06ZM88.3777 96.1645C87.2071 95.511 85.1783 94.5524 82.8307 93.7533C80.4913 92.9578 77.7658 92.2969 75.2245 92.2969V94.3662C77.445 94.3662 79.9272 94.9515 82.1643 95.7129C84.393 96.4706 86.3075 97.3794 87.3693 97.9711L88.3777 96.1645ZM75.2245 92.2969C69.2766 92.2969 60.8529 91.9476 54.6846 90.1263L54.0984 92.1108C60.5782 94.0252 69.2674 94.3662 75.2245 94.3662V92.2969ZM54.6846 90.1263C48.6675 88.3492 43.8284 86.1047 40.6844 82.2454L39.0806 83.5524C42.6329 87.9122 47.9808 90.3041 54.0984 92.1108L54.6846 90.1263ZM40.6844 82.2454C38.9847 80.1586 36.6076 77.3999 34.6821 74.6761C33.7216 73.3175 32.8994 72.0031 32.3436 70.8233C31.774 69.6158 31.5472 68.6793 31.6118 68.0304L29.5526 67.8249C29.4309 69.0434 29.8549 70.3984 30.4716 71.7054C31.1011 73.0419 31.9998 74.4669 32.9925 75.8707C34.9724 78.6709 37.4325 81.5302 39.0806 83.5524L40.6844 82.2454ZM31.5961 68.1291C31.8274 66.9695 32.4505 66.5197 32.9787 66.4239C33.5437 66.3197 34.3244 66.5566 34.9558 67.4175L36.6241 66.1943C35.613 64.8145 34.0875 64.1168 32.6072 64.3877C31.0919 64.6643 29.9314 65.8957 29.5674 67.7244L31.597 68.13L31.5961 68.1291ZM34.9558 67.4175C36.6463 69.7255 38.9847 72.6428 41.4485 74.9683C42.6799 76.1306 43.9694 77.1713 45.2497 77.9123C46.5162 78.646 47.8665 79.1419 49.192 79.0756L49.0906 77.0091C48.3329 77.0459 47.3909 76.7611 46.2876 76.1214C45.1963 75.49 44.0358 74.5646 42.8689 73.4631C40.5369 71.2611 38.2823 68.459 36.6251 66.1953L34.9558 67.4175Z" fill="#252D37"/>
<path fill-rule="evenodd" clip-rule="evenodd" d="M57.4553 22.0054C58.0268 22.0054 58.4895 22.469 58.4895 23.0405V29.6991C58.4936 29.8376 58.4699 29.9755 58.4198 30.1046C58.3696 30.2337 58.2941 30.3515 58.1976 30.4509C58.1011 30.5503 57.9857 30.6293 57.8581 30.6833C57.7305 30.7373 57.5934 30.7651 57.4548 30.7651C57.3163 30.7651 57.1792 30.7373 57.0516 30.6833C56.924 30.6293 56.8086 30.5503 56.7121 30.4509C56.6156 30.3515 56.54 30.2337 56.4899 30.1046C56.4398 29.9755 56.4161 29.8376 56.4202 29.6991V23.0405C56.4202 22.469 56.8838 22.0054 57.4553 22.0054ZM68.1668 23.4396C68.6461 23.7493 68.7843 24.3899 68.4737 24.8701L64.9859 30.2604C64.8337 30.4837 64.6001 30.6386 64.3352 30.692C64.0703 30.7455 63.7951 30.6932 63.5682 30.5463C63.3413 30.3995 63.1809 30.1698 63.1211 29.9062C63.0614 29.6427 63.107 29.3662 63.2484 29.1359L66.7362 23.7456C66.8855 23.5155 67.12 23.354 67.3882 23.2966C67.6564 23.2392 67.9364 23.2907 68.1668 23.4396ZM46.4397 24.8701C46.2983 24.6398 46.2526 24.3633 46.3124 24.0998C46.3721 23.8362 46.5326 23.6065 46.7594 23.4597C46.9863 23.3129 47.2616 23.2606 47.5265 23.314C47.7914 23.3674 48.0249 23.5223 48.1771 23.7456L51.6659 29.1368C51.7397 29.2509 51.7904 29.3784 51.8149 29.5121C51.8395 29.6457 51.8375 29.7829 51.809 29.9158C51.7806 30.0487 51.7262 30.1747 51.6491 30.2865C51.5719 30.3984 51.4735 30.494 51.3594 30.5678C51.2453 30.6417 51.1178 30.6923 50.9842 30.7169C50.8505 30.7414 50.7133 30.7394 50.5804 30.711C50.4476 30.6825 50.3216 30.6281 50.2097 30.551C50.0978 30.4739 50.0023 30.3754 49.9284 30.2613L46.4397 24.8701Z" fill="#2C64D8"/>
</g>
</g>
<defs>
<clipPath id="clip0_10_397">
<rect width="117.982" height="117.982" fill="white" transform="translate(0.331787 0.82666)"/>
</clipPath>
</defs>
</svg>
