<svg width="296" height="296" viewBox="0 0 296 296" fill="none" xmlns="http://www.w3.org/2000/svg">
<g clip-path="url(#clip0_10_541)">
<path d="M125.346 104.801L135.214 87.9272L154.954 99.7074L176.285 116.263L165.142 173.889H144.766L125.346 104.801Z" fill="#5FC69B"/>
<path d="M106.908 33.5661C126.282 5.50971 151.982 37.7381 150.88 51.7178C150.823 52.4464 149.643 50.1265 143.077 68.2676C134.871 90.9439 82.6907 68.6361 106.908 33.5661Z" fill="#252D37"/>
<path d="M196.343 280.935C176.732 281.19 178.408 270.641 181.698 265.335H235.821C230.834 270.429 215.955 280.68 196.343 280.935Z" fill="#FFBB95"/>
<path d="M173.42 106.465L156.865 151.993H235.822C224.105 127.033 189.127 111.135 173.42 106.465Z" fill="white"/>
<path d="M83.0023 151.921H274.663V269.72H83.0023V151.921Z" fill="#2C64D8"/>
<path d="M91.9165 160.468H265.684V261.605H91.9165V160.468Z" fill="white"/>
<path d="M35.8693 158.678C72.5453 94.7475 112.611 88.8828 132.35 93.021L142.537 151.992L114.826 152.947C106.442 186.377 80.505 250.561 43.8279 239.864C7.15185 229.167 23.2402 181.283 35.8693 158.678Z" fill="white"/>
<path d="M182.304 109.265C183.588 116.744 185.921 132.44 184.983 135.387C184.045 138.334 178.118 146.16 174.601 150.96M123.027 92.0171C120.069 101.059 114.554 120.852 116.162 127.684C117.769 134.516 121.408 139.238 123.027 140.745" stroke="#252D37" stroke-width="1.48149"/>
<path d="M95.7381 141.733C81.6233 150.648 58.4876 163.065 44.1605 197.768" stroke="#252D37" stroke-width="1.48149" stroke-linecap="round"/>
<path d="M98.2839 141.513C104.614 141.789 112.733 150.274 115.829 153.832C121.563 153.832 134.475 152.532 141.631 152.532C150.576 152.532 142.663 141.513 127.87 136.693C116.035 132.836 103.214 138.3 98.2839 141.513ZM193.796 99.0715C192.112 95.4613 189.517 93.6714 189.726 88.0623C189.899 83.4478 191.352 78.9231 191.412 74.3055C191.909 36.4932 154.877 29.6612 133.054 48.5172C108.531 69.7047 133.023 102.48 154.636 114.672C168.291 122.374 174.817 109.875 182.201 102.805C182.548 102.473 183.057 102.396 183.512 102.552C188.056 104.126 195.906 103.592 193.796 99.0715Z" fill="#FFBB95"/>
<mask id="mask0_10_541" style="mask-type:alpha" maskUnits="userSpaceOnUse" x="122" y="37" width="75" height="79">
<path d="M195.9 101.448C194.862 98.3766 193.391 93.4633 192.366 89.0717C191.264 84.3463 191.63 79.4542 191.712 74.6031C192.375 34.925 153.39 28.8893 131.714 47.8128C107.356 69.0753 135.833 106.688 153.682 113.08C173.83 120.296 175.217 109.804 182.275 102.812C182.619 102.469 183.136 102.387 183.587 102.566C188.258 104.405 197.515 106.223 195.9 101.448Z" fill="#E2A993"/>
</mask>
<g mask="url(#mask0_10_541)">
<path d="M158.067 76.5005C170.34 80.5923 188.475 69.3455 186.924 50.8411C186.869 50.1886 187.373 49.6046 188.03 49.6046C189.045 49.6046 189.507 48.3343 188.726 47.6828L161.771 25.1553C161.563 24.9811 161.302 24.8815 161.031 24.8723C160.759 24.8631 160.493 24.9449 160.273 25.1046L123.405 51.953C123.27 52.0499 123.157 52.1731 123.072 52.3153C122.987 52.4575 122.931 52.6156 122.91 52.7799C121.299 64.806 112.106 92.5572 116.198 94.7926C119.981 96.8612 135.079 100.816 140.355 85.8963C141.458 82.7729 140.967 79.2851 141.113 75.9747C141.358 70.3866 143.582 62.6867 150.201 62.7754C156.114 62.8535 156.798 68.0741 156.069 72.3507C155.776 74.075 156.407 75.9472 158.067 76.5005Z" fill="#252D37"/>
<path d="M176.923 86.0124C178.29 84.4211 181.289 85.098 183.642 86.3482C185.116 87.1317 185.315 89.0092 184.379 90.3925C183.48 91.7251 181.765 92.2752 180.364 91.4854C177.884 90.0852 175.284 87.9205 176.923 86.0124Z" fill="white"/>
<path d="M179.892 90.3421C180.201 91.4667 181.364 92.1278 182.488 91.8185C183.613 91.5093 184.274 90.347 183.965 89.2224C183.655 88.0977 182.493 87.4367 181.368 87.7459C180.244 88.0551 179.583 89.2175 179.892 90.3421Z" fill="#252D37"/>
</g>
<path d="M179.469 105.595C177.559 105.595 169.281 101.005 167.689 93.3643" stroke="#252D37" stroke-width="1.11085" stroke-linecap="round"/>
<path d="M206.531 72.0088C196.343 80.2874 183.608 76.3593 180.425 73.9201L183.608 49.0864C198.89 56.7272 199.846 67.2339 206.531 72.0088Z" fill="#252D37"/>
<path d="M178.514 81.502C180.212 81.0776 184.118 80.8653 186.155 83.4133" stroke="#252D37" stroke-width="1.11085" stroke-linecap="round"/>
<path d="M128.095 178.401C125.927 178.068 120.278 178.049 119.704 177.677C119.129 177.304 117.148 172.181 115.828 169.71C114.209 172.863 113.527 177.293 112.888 177.762C111.464 178.806 104.07 179.805 104.07 179.805C106.115 181.254 110.46 182.489 111.397 183.768C111.865 184.407 109.365 191.707 108.097 193.788C109.975 192.109 116.107 188.047 116.975 188.036C117.844 188.023 123.311 190.914 125.41 192.169C124.173 189.678 122.386 186.034 122.653 184.455C122.852 183.263 126.732 179.892 128.095 178.401ZM157.477 178.401C155.309 178.068 149.66 178.049 149.085 177.677C148.511 177.304 146.53 172.181 145.21 169.71C143.59 172.863 142.909 177.293 142.269 177.762C140.846 178.806 133.452 179.805 133.452 179.805C135.496 181.254 139.842 182.489 140.778 183.768C141.247 184.407 138.747 191.707 137.478 193.788C139.357 192.109 145.489 188.047 146.357 188.036C147.226 188.023 152.692 190.914 154.791 192.169C153.555 189.678 151.767 186.034 152.035 184.455C152.234 183.263 156.114 179.892 157.477 178.401ZM187.858 178.401C185.691 178.068 180.04 178.049 179.466 177.677C178.891 177.304 176.91 172.181 175.59 169.71C173.972 172.863 173.29 177.293 172.651 177.762C171.226 178.806 163.833 179.805 163.833 179.805C165.877 181.254 170.222 182.489 171.16 183.768C171.628 184.407 169.127 191.707 167.86 193.788C169.737 192.109 175.869 188.047 176.738 188.036C177.606 188.023 183.073 190.914 185.172 192.169C183.936 189.678 182.148 186.034 182.415 184.455C182.615 183.263 186.495 179.892 187.858 178.401ZM217.547 178.401C215.381 178.068 209.73 178.049 209.156 177.677C208.581 177.304 206.6 172.181 205.28 169.71C203.662 172.863 202.98 177.293 202.341 177.762C200.916 178.806 193.523 179.805 193.523 179.805C195.567 181.254 199.912 182.489 200.849 183.768C201.317 184.407 198.817 191.707 197.549 193.788C199.427 192.109 205.559 188.047 206.427 188.036C207.296 188.023 212.763 190.914 214.862 192.169C213.626 189.678 211.838 186.034 212.105 184.455C212.305 183.263 216.184 179.892 217.547 178.401ZM247.929 178.401C245.761 178.068 240.112 178.049 239.537 177.677C238.963 177.304 236.982 172.181 235.661 169.71C234.042 172.863 233.36 177.293 232.721 177.762C231.297 178.806 223.903 179.805 223.903 179.805C225.948 181.254 230.293 182.489 231.23 183.768C231.698 184.407 229.198 191.707 227.93 193.788C229.808 192.109 235.941 188.047 236.809 188.036C237.677 188.023 243.144 190.914 245.243 192.169C244.006 189.678 242.218 186.034 242.486 184.455C242.686 183.263 246.566 179.892 247.929 178.401Z" fill="#2C64D8"/>
<path d="M104.453 209.096C114.441 210.88 219.974 207.311 229.962 209.096M106.484 242.094C135.235 242.094 161.404 242.094 189.049 241.357M105.378 227.025C114.593 227.025 129.454 226.867 136.709 227.025C158.672 228.016 211.9 226.095 238.071 224.402" stroke="#252D37" stroke-width="1.48149" stroke-miterlimit="10" stroke-linecap="round"/>
</g>
<defs>
<clipPath id="clip0_10_541">
<rect width="295.664" height="295.664" fill="white" transform="translate(0.118164 0.059082)"/>
</clipPath>
</defs>
</svg>
